<?xml version="1.0" standalone="no"?>
<!DOCTYPE svg PUBLIC "-//W3C//DTD SVG 20010904//EN"
 "http://www.w3.org/TR/2001/REC-SVG-20010904/DTD/svg10.dtd">
<svg version="1.0" xmlns="http://www.w3.org/2000/svg"
 width="528.000000pt" height="528.000000pt" viewBox="0 0 528.000000 528.000000"
 preserveAspectRatio="xMidYMid meet">
<metadata>
Created by potrace 1.11, written by Peter Selinger 2001-2013
</metadata>
<g transform="translate(0.000000,528.000000) scale(0.100000,-0.100000)"
fill="#000000" stroke="none">
<path d="M3568 5263 c-8 -10 -26 -43 -40 -73 -14 -30 -62 -109 -106 -175 -44
-66 -79 -121 -77 -123 1 -2 30 10 63 27 76 38 110 41 149 13 l32 -22 64 35
c35 19 74 35 87 35 21 0 22 -1 7 -18 -24 -27 -137 -104 -137 -94 0 15 -54 33
-81 28 -34 -6 -92 -27 -105 -37 -11 -9 -78 -46 -137 -76 -39 -21 -84 -8 -108
30 -29 49 -25 74 14 83 17 4 35 9 40 10 4 1 16 2 27 3 21 1 39 29 50 78 10 42
-19 89 -65 109 -39 16 -57 15 -102 -9 -37 -19 -39 -17 -62 54 -6 20 -22 46
-35 58 l-23 21 -73 -29 c-69 -28 -110 -55 -99 -65 2 -2 42 -6 87 -9 65 -4 91
-10 113 -26 15 -11 31 -21 34 -21 10 0 42 -34 54 -57 23 -44 10 -42 -39 6 -57
57 -79 63 -235 66 -71 1 -122 8 -177 25 -130 39 -179 16 -275 -130 -94 -143
-112 -152 -188 -100 -24 17 -52 30 -63 30 -11 0 -55 -23 -97 -52 l-77 -52 -56
13 c-153 34 -185 14 -197 -125 -12 -137 -21 -159 -66 -149 -43 10 -67 -2 -94
-48 -36 -62 -94 -234 -75 -222 6 4 10 12 10 20 0 13 62 128 82 152 6 7 29 18
52 25 101 29 131 77 135 216 1 12 10 31 21 42 17 17 33 20 118 20 92 0 101 2
145 30 51 32 96 38 157 20 52 -16 114 -14 149 4 17 9 50 40 72 69 23 28 45 51
49 50 4 -1 7 5 6 15 0 10 5 16 13 14 8 -2 11 3 8 12 -4 9 -3 15 1 15 19 -3 26
2 13 10 -12 8 -8 16 21 45 31 31 42 36 83 36 26 0 81 -8 123 -19 43 -10 97
-19 122 -20 120 -4 160 -32 175 -126 14 -85 29 -124 58 -158 67 -75 138 -78
275 -11 119 57 162 62 208 22 18 -16 43 -45 54 -63 13 -22 26 -32 36 -28 7 3
14 1 14 -3 0 -5 11 -22 25 -39 24 -29 23 -28 -5 32 -42 89 -61 135 -56 140 2
3 7 -5 11 -16 5 -18 9 -19 28 -10 44 24 217 15 217 -11 0 -13 76 -49 100 -47
27 2 60 50 60 88 0 43 -93 119 -117 96 -3 -4 -14 -2 -25 4 -13 7 -17 18 -15
37 2 15 8 27 13 27 19 1 110 36 127 49 15 12 18 24 13 71 -7 79 -17 88 -91 83
-48 -3 -71 -11 -115 -39 -94 -60 -99 -59 -124 16 -21 63 -22 66 -75 103 -50
36 -81 40 -103 15z m111 -582 c-2 -6 -10 2 -17 17 -11 25 -11 25 4 10 9 -9 15
-21 13 -27z"/>
<path d="M2480 4880 c-16 -38 -36 -61 -80 -91 -19 -13 -53 -41 -76 -62 -48
-45 -195 -156 -207 -157 -4 0 -4 8 1 18 12 23 8 104 -6 128 -11 18 -11 17 -12
-6 -6 -138 -36 -188 -155 -258 -38 -22 -93 -58 -122 -79 -126 -92 -204 -144
-212 -141 -5 2 34 39 87 83 185 155 242 225 258 313 3 14 7 29 10 34 3 4 1 8
-4 8 -5 0 -17 -21 -27 -47 -17 -45 -78 -123 -96 -123 -5 0 -7 14 -4 31 6 32
-10 99 -24 99 -4 0 -8 -22 -8 -50 -3 -79 -32 -118 -187 -254 -117 -104 -167
-190 -171 -296 -3 -67 -27 -139 -51 -153 -22 -13 -50 -76 -64 -142 -11 -55 -9
-149 6 -215 5 -23 4 -22 -12 5 -39 67 -52 216 -28 304 8 29 13 55 11 58 -4 3
-24 -40 -32 -72 -35 -123 -37 -200 -9 -279 26 -76 14 -74 -28 4 -34 62 -52
134 -52 207 -1 63 -10 64 -22 2 -18 -93 3 -202 51 -259 7 -8 16 -26 20 -39 l7
-25 -30 20 c-48 30 -132 114 -142 140 -17 45 -29 24 -13 -22 11 -32 36 -66 81
-111 l66 -65 -59 29 c-102 50 -150 71 -154 67 -5 -5 -12 1 89 -74 l85 -63 -55
8 c-88 11 -120 13 -120 6 0 -8 50 -31 67 -31 7 0 13 -3 13 -7 0 -5 -20 -8 -45
-7 -25 0 -48 -3 -51 -8 -3 -4 2 -8 10 -8 24 0 23 0 66 -15 42 -15 43 -15 62
-15 31 0 -7 -13 -47 -16 -48 -3 -129 -43 -138 -67 -4 -11 5 -10 43 4 48 18
130 33 130 24 0 -2 -20 -14 -44 -25 -62 -28 -136 -106 -143 -149 -1 -9 13 0
33 21 49 54 96 82 203 123 132 50 145 60 182 133 33 64 57 89 94 95 11 1 25 6
30 9 19 11 90 -28 122 -67 17 -21 36 -57 42 -81 15 -60 14 -158 -3 -199 -14
-33 -13 -36 51 -165 57 -114 75 -141 139 -205 87 -86 215 -157 409 -225 334
-117 466 -174 647 -278 141 -82 207 -133 275 -214 42 -50 43 -41 2 19 -51 74
-137 151 -254 227 -145 95 -197 121 -405 204 -229 92 -349 145 -435 193 -99
56 -105 60 -145 97 -26 25 -13 19 48 -22 46 -31 129 -78 186 -105 105 -51 276
-114 276 -102 0 3 -57 33 -127 66 -69 33 -158 81 -197 106 -78 52 -200 159
-218 193 -6 11 12 0 42 -27 63 -57 162 -116 263 -158 39 -17 86 -36 102 -44
44 -20 167 -66 188 -70 9 -2 23 -7 30 -11 8 -5 9 -4 2 3 -5 6 -77 45 -160 88
-212 110 -411 251 -446 317 -13 24 -13 25 88 -48 40 -29 99 -68 131 -86 70
-40 268 -129 377 -170 43 -16 85 -34 92 -40 7 -6 13 -7 13 -3 0 4 10 1 23 -7
12 -8 56 -27 97 -41 236 -82 361 -127 389 -142 61 -31 171 -146 206 -215 40
-76 47 -61 9 20 -33 71 -81 129 -162 194 -80 64 -148 99 -302 156 -63 23 -191
75 -285 115 -93 40 -195 83 -225 95 -83 32 -217 94 -275 128 -103 59 -131 76
-135 82 -3 3 -16 14 -30 24 l-25 18 25 -7 c14 -4 39 -15 56 -25 16 -9 70 -32
120 -50 49 -18 94 -37 99 -41 10 -7 81 -28 123 -35 12 -3 59 -13 105 -24 80
-18 120 -24 222 -35 52 -5 93 -12 135 -20 14 -3 43 -8 65 -11 326 -44 574
-108 690 -179 57 -34 64 -40 88 -75 12 -17 17 -20 17 -9 0 21 -55 79 -108 114
-23 15 -42 28 -42 29 0 1 24 2 53 2 50 0 147 29 147 44 0 4 -21 3 -47 -2 -109
-21 -145 -18 -273 18 -268 77 -367 101 -445 109 -117 13 -138 16 -227 35 -51
11 -111 22 -133 25 -168 25 -355 76 -500 135 -11 4 -50 20 -88 35 -103 42 -90
49 20 10 176 -61 261 -81 392 -90 47 -3 87 -8 90 -10 4 -2 25 -6 47 -9 22 -4
51 -9 64 -12 68 -14 241 -31 245 -24 2 4 -1 7 -8 7 -16 1 -63 10 -86 18 -11 3
-35 8 -53 9 -18 2 -53 9 -78 14 -25 6 -61 14 -80 17 -107 19 -477 115 -554
145 -51 19 -22 20 39 1 33 -10 79 -21 103 -25 24 -3 46 -7 50 -10 4 -2 31 -7
61 -10 29 -4 57 -8 61 -11 4 -3 29 -7 56 -9 123 -13 166 -18 249 -31 80 -13
145 -17 326 -20 210 -4 342 -11 399 -21 52 -8 130 -52 283 -156 15 -11 27 -16
27 -11 -1 7 -83 65 -138 98 -9 6 -19 13 -22 17 -3 4 -40 27 -83 51 l-76 44
-123 2 c-123 1 -322 10 -388 17 -19 1 -71 6 -115 9 -44 3 -127 13 -185 21 -58
8 -123 18 -145 20 -22 3 -51 7 -65 10 -14 2 -40 7 -59 10 -64 11 -246 65 -303
91 -93 41 -67 46 40 7 53 -20 105 -37 115 -40 9 -2 27 -7 40 -10 30 -8 300
-11 357 -3 l45 6 -55 3 c-67 3 -103 6 -155 13 -22 4 -62 9 -90 12 -51 6 -302
90 -320 107 -6 6 -1 7 15 4 14 -3 37 -8 52 -10 15 -3 31 -7 36 -10 5 -3 19 -7
33 -9 13 -3 51 -12 84 -20 33 -9 83 -18 110 -22 28 -3 64 -8 80 -11 17 -3 44
-7 60 -10 70 -12 544 -11 633 0 51 7 137 12 190 11 86 -2 105 -5 149 -29 27
-15 61 -38 76 -52 35 -33 43 -14 9 23 -32 35 -79 61 -142 78 l-45 12 30 13
c17 7 36 14 43 16 22 4 302 190 302 200 0 6 -29 -8 -212 -100 -167 -84 -233
-108 -333 -123 -16 -2 -41 -7 -55 -10 -46 -11 -644 -14 -679 -3 -19 5 -53 12
-75 16 -58 8 -107 18 -286 59 -8 2 -15 4 -15 5 0 1 -8 3 -18 5 -11 2 -22 7
-25 10 -11 11 109 -1 298 -30 141 -22 318 -20 342 3 4 4 -48 6 -115 5 -133 -2
-233 14 -305 48 -24 12 -42 23 -40 24 2 2 26 6 53 9 63 6 123 15 155 21 14 3
36 8 50 10 58 11 75 15 124 30 95 28 86 34 -44 29 -69 -3 -179 -6 -245 -8
-130 -5 -162 -9 -244 -32 -29 -8 -55 -13 -58 -10 -11 10 98 46 187 61 19 3 51
10 70 15 19 5 53 11 74 15 22 3 42 8 45 11 6 5 -259 -5 -269 -11 -3 -2 -29 -7
-56 -10 -27 -4 -76 -17 -109 -31 -65 -26 -86 -25 -35 1 47 24 110 41 235 64
228 41 236 49 48 44 -131 -4 -136 -4 -122 14 26 34 73 73 88 74 67 6 119 -7
236 -59 133 -59 190 -45 234 59 12 27 31 54 43 60 23 12 41 -3 124 -107 58
-73 156 -110 240 -90 36 8 111 76 125 114 6 15 7 52 4 85 -6 51 -4 63 24 117
38 73 39 117 4 178 -37 65 -110 153 -163 197 l-24 20 16 -23 c9 -13 43 -51 76
-85 107 -112 121 -170 65 -267 -21 -35 -28 -60 -29 -112 -3 -79 -19 -109 -79
-143 -48 -29 -116 -33 -168 -11 -36 14 -98 76 -148 146 -41 57 -47 61 -89 58
-30 -3 -40 -10 -67 -53 -18 -27 -38 -58 -45 -67 -28 -38 -83 -29 -281 46 -119
46 -162 34 -356 -98 -102 -70 -113 -75 -66 -29 75 71 110 95 203 140 51 25 91
47 88 50 -16 17 -250 -85 -311 -136 -19 -15 -19 -15 -5 3 35 45 232 149 349
183 33 10 61 22 61 26 0 5 -3 6 -7 4 -5 -3 -37 -8 -72 -11 -35 -4 -90 -13
-122 -21 -33 -7 -59 -11 -59 -9 0 4 -46 -21 -110 -59 -19 -11 -53 -34 -74 -51
-31 -24 -37 -26 -28 -9 15 27 71 76 125 107 64 38 189 81 347 120 257 64 367
97 423 129 67 38 39 36 -80 -4 -134 -45 -137 -46 -273 -65 -19 -2 -62 -12 -95
-20 -33 -9 -68 -17 -77 -19 -137 -27 -268 -76 -340 -126 -38 -28 -44 -23 -11
9 64 63 174 119 394 197 57 20 108 41 114 46 5 5 15 9 23 9 16 0 85 40 79 46
-2 2 -41 -10 -88 -27 -46 -17 -91 -33 -99 -34 -8 -2 -15 -4 -15 -5 0 -1 -7 -3
-15 -5 -218 -49 -295 -79 -389 -155 -40 -32 -43 -33 -31 -10 36 70 134 130
368 224 121 49 192 83 192 92 0 5 -55 -1 -95 -11 -11 -3 33 21 97 54 102 53
145 81 123 81 -4 0 -41 -18 -83 -39 -43 -22 -106 -51 -142 -66 -87 -35 -130
-55 -130 -60 0 -2 7 -2 15 1 8 4 15 1 15 -5 0 -13 -26 -15 -34 -2 -5 8 -71
-22 -170 -78 -29 -17 -81 -60 -114 -96 -34 -36 -64 -65 -67 -65 -18 0 59 84
129 142 102 84 193 140 427 260 102 52 204 107 227 122 23 14 44 26 47 26 3 0
45 26 93 57 83 54 222 123 250 123 23 0 97 42 119 69 31 35 29 46 -4 24 -37
-24 -65 -38 -138 -64 -33 -12 -70 -29 -82 -37 -27 -17 -29 -6 -6 28 12 18 4
14 -25 -13 -72 -63 -231 -155 -512 -294 -176 -87 -251 -131 -367 -215 -113
-82 -154 -138 -207 -288 l-17 -45 21 25 21 25 -19 -40 c-23 -49 -53 -136 -55
-164 -2 -29 -8 -18 -29 47 -25 77 -32 137 -19 159 9 15 10 13 11 -14 0 -54 17
-37 24 24 4 31 15 76 26 101 44 98 79 128 470 390 107 72 200 135 205 140 6 4
33 23 60 42 28 18 52 36 55 39 3 4 30 25 60 47 55 41 129 110 131 123 2 15 7
40 14 60 10 32 -1 25 -15 -9z m-550 -685 c0 -14 -37 -35 -120 -67 -37 -14 -13
5 45 37 28 15 54 31 60 36 13 12 15 11 15 -6z m-539 -468 c-10 -9 -11 -8 -5 6
3 10 9 15 12 12 3 -3 0 -11 -7 -18z m3 -59 c0 -24 10 -76 22 -117 24 -78 18
-85 -10 -12 -19 50 -33 171 -20 171 5 0 9 -19 8 -42z"/>
<path d="M2690 4830 c-17 -33 -28 -60 -26 -60 7 0 43 62 55 93 18 47 3 29 -29
-33z"/>
<path d="M4183 4860 c-19 -8 -25 -21 -38 -89 -12 -66 -28 -93 -61 -107 -59
-25 -119 -18 -172 18 -39 27 -55 32 -100 31 -29 0 -55 -3 -57 -5 -3 -2 0 -21
6 -42 l10 -37 75 4 c41 3 74 2 74 -1 0 -4 -27 -18 -60 -31 -67 -25 -68 -31
-29 -95 24 -40 24 -46 -6 -90 l-24 -36 22 -1 c12 0 38 -2 57 -4 19 -2 64 -6
100 -9 36 -2 99 -12 140 -20 48 -11 117 -16 195 -15 279 2 345 -3 345 -31 0
-4 -127 -6 -282 -4 -265 2 -373 6 -543 18 -65 5 -68 4 -44 -9 37 -20 365 -126
405 -131 12 -1 38 -5 58 -8 20 -3 52 -9 71 -12 138 -22 303 -84 224 -84 -15 0
-73 13 -130 29 -57 16 -133 33 -169 36 -36 3 -73 9 -82 11 -10 3 -18 1 -18 -4
0 -5 37 -28 83 -52 45 -24 102 -60 127 -80 25 -20 83 -63 130 -94 47 -32 92
-64 100 -71 45 -37 242 -130 260 -122 8 3 70 -44 70 -54 0 -13 -92 24 -299
123 -57 27 -106 47 -109 44 -2 -3 18 -29 46 -58 29 -30 68 -87 91 -134 33 -65
58 -97 123 -159 162 -154 203 -176 256 -139 46 32 17 75 -60 88 -39 7 -66 29
-112 89 -53 70 -23 90 39 27 21 -22 54 -45 73 -51 30 -10 36 -8 57 11 l24 22
-25 22 c-17 14 -23 27 -19 39 7 17 19 17 70 2 37 -11 86 77 64 113 -10 16 -22
19 -70 17 -77 -3 -84 14 -30 69 44 44 47 72 15 121 -23 35 -77 28 -112 -15
-67 -82 -66 -81 -116 -66 -72 22 -216 124 -216 154 0 5 14 15 30 22 27 11 32
11 45 -6 8 -11 15 -24 15 -31 1 -31 42 -41 137 -34 26 2 43 31 33 57 -9 22 -5
29 28 59 20 19 40 35 45 35 16 0 6 69 -16 101 -31 46 -67 47 -79 2 -9 -36
-102 -133 -127 -133 -9 0 -35 23 -59 50 -50 57 -79 75 -140 84 -68 9 -77 21
-43 58 l20 20 46 -28 c26 -16 61 -43 78 -61 51 -50 138 -54 122 -4 -5 16 1 25
27 41 18 11 41 20 51 20 14 0 16 6 12 33 -4 22 -23 49 -64 88 -32 30 -68 74
-80 98 -29 57 -51 81 -85 96 -57 25 -82 -5 -88 -105 -2 -38 -7 -48 -35 -68
-18 -12 -47 -24 -65 -25 -36 -4 -123 18 -151 38 -12 8 -29 10 -52 5 -78 -18
-196 21 -203 66 -9 61 90 63 207 5 80 -41 142 -60 172 -54 19 5 39 44 39 77 0
25 -22 75 -51 117 -14 21 -24 25 -45 21 -30 -5 -29 -8 -8 126 7 47 -7 86 -35
97 -30 12 -86 14 -108 5z"/>
<path d="M3710 4592 c55 -115 50 -149 -30 -203 -25 -17 -35 -29 -28 -32 8 -4
7 -6 -4 -6 -9 -1 -20 -6 -24 -13 -12 -19 77 0 113 25 39 26 51 56 48 118 -2
44 -24 104 -25 69 0 -15 -50 52 -50 68 0 5 -7 15 -15 22 -8 6 -1 -15 15 -48z"/>
<path d="M2863 4615 c-57 -17 -94 -46 -120 -91 -18 -34 -21 -56 -22 -170 -1
-157 -6 -195 -32 -251 -23 -48 -98 -120 -164 -156 -41 -23 -143 -61 -193 -72
-43 -10 -68 -15 -117 -25 -58 -12 -99 -33 -50 -26 17 3 53 7 80 11 45 5 243
39 305 52 75 16 121 6 188 -40 24 -16 46 -26 49 -23 3 3 -18 28 -46 55 -54 52
-80 66 -128 70 -13 1 -6 13 29 46 45 44 80 112 92 181 3 15 7 28 10 31 2 2 21
-21 41 -51 34 -51 119 -126 143 -126 6 0 13 -5 15 -10 3 -6 5 -6 4 -1 -2 8
-49 65 -120 145 -42 47 -87 146 -93 205 -10 91 41 179 115 201 60 17 222 -9
219 -35 -1 -5 -15 -39 -30 -74 -41 -88 -43 -126 -10 -156 25 -23 32 -24 119
-20 51 2 97 6 101 8 4 3 36 8 72 12 36 3 77 8 93 10 32 4 87 -37 87 -65 0 -9
-21 -37 -46 -61 -69 -67 -93 -114 -89 -176 2 -29 11 -63 20 -76 14 -21 106
-80 120 -77 3 1 18 -1 33 -4 15 -3 47 -7 72 -10 167 -19 212 -29 229 -50 16
-19 8 -68 -22 -123 -54 -104 -35 -157 73 -207 29 -14 57 -31 61 -38 26 -40
-14 -143 -59 -155 -13 -3 -54 2 -91 11 -106 27 -103 27 -99 9 7 -37 199 -76
253 -51 46 21 82 137 57 184 -6 11 -37 35 -70 52 -32 17 -70 43 -85 56 -30 28
-29 40 15 87 60 65 65 133 16 201 -32 46 -87 67 -197 78 -172 16 -259 65 -247
139 4 25 23 51 73 100 42 41 69 76 70 90 3 37 -24 78 -68 108 -56 37 -103 37
-376 -2 -83 -12 -91 12 -37 114 20 39 34 79 32 92 -5 38 -86 71 -208 84 -14 2
-44 -3 -67 -10z"/>
<path d="M3300 4530 c-13 -13 -20 -33 -19 -57 0 -30 2 -34 8 -18 5 11 7 23 5
27 -3 4 5 13 17 21 24 17 59 14 144 -15 127 -43 161 -42 55 1 -30 13 -74 32
-97 42 -54 24 -88 24 -113 -1z"/>
<path d="M1138 4458 c-1 -13 -1 -33 -1 -45 0 -19 -5 -23 -28 -23 -24 0 -29 -5
-35 -35 -3 -19 -3 -47 1 -62 13 -53 14 -63 4 -69 -6 -3 -17 4 -26 15 -12 17
-18 20 -29 10 -8 -6 -14 -23 -14 -38 0 -39 -13 -52 -49 -49 -66 6 -63 -50 6
-130 13 -15 23 -31 24 -37 0 -5 2 -20 3 -33 3 -26 -28 -72 -48 -72 -14 0 -14
0 -19 92 -2 38 -7 71 -10 75 -4 3 -16 -2 -27 -12 -19 -18 -20 -17 -20 3 0 30
-47 82 -76 82 -13 0 -28 -9 -34 -20 -13 -25 -10 -100 4 -100 6 0 5 -4 -3 -9
-8 -5 -19 -7 -26 -5 -12 5 -77 -35 -82 -51 -2 -8 44 -72 50 -69 1 0 12 6 24
12 17 9 28 9 48 0 46 -21 89 -134 66 -176 -10 -19 -11 -19 -60 5 -58 29 -87
24 -102 -15 -23 -57 -21 -71 11 -87 55 -28 70 -51 70 -102 0 -41 -4 -51 -38
-82 -26 -24 -43 -51 -52 -83 -16 -59 -34 -78 -49 -50 -18 34 13 115 58 151 48
38 56 70 26 107 -20 25 -23 26 -57 15 -42 -14 -53 -25 -62 -63 -4 -17 -13 -28
-24 -28 -29 0 -37 13 -38 64 -2 56 -24 85 -71 92 -27 4 -34 0 -53 -30 -27 -44
-31 -81 -14 -123 29 -67 16 -93 -46 -93 -56 0 -110 -34 -110 -68 0 -9 34 -53
76 -97 159 -166 203 -244 206 -363 1 -67 -1 -77 -22 -94 -28 -23 -39 -20 -66
19 -17 25 -20 45 -19 114 2 156 -31 205 -101 146 -21 -18 -26 -31 -26 -65 0
-23 -2 -42 -6 -43 -4 0 -22 -2 -40 -3 -43 -3 -69 -31 -75 -81 -11 -83 67 -151
151 -130 l23 6 -25 44 c-32 54 -18 68 23 23 152 -167 187 -213 226 -301 13
-31 25 -60 25 -65 1 -9 10 -50 17 -74 8 -33 19 -18 17 25 -6 120 -13 208 -18
215 -5 8 -12 70 -21 187 -5 66 -10 101 -26 187 -19 105 -20 112 -26 121 -6 11
-29 117 -37 177 -3 25 -8 55 -10 68 -13 62 26 -12 48 -93 23 -84 27 -97 30
-120 2 -11 8 -47 14 -80 6 -33 13 -85 17 -115 6 -61 12 -105 19 -135 9 -43 20
-141 17 -155 -2 -8 0 -12 4 -8 4 4 9 22 10 40 2 18 7 67 10 108 4 41 9 91 10
110 3 40 13 103 21 140 3 14 8 38 10 54 10 83 57 190 49 114 -10 -91 -15 -135
-20 -158 -6 -25 -8 -42 -20 -140 -4 -30 -8 -65 -10 -77 -5 -33 10 -36 25 -5
37 80 72 240 75 347 7 222 61 371 201 557 29 39 39 66 60 169 25 123 64 252
90 299 25 46 13 -19 -52 -279 -13 -52 -21 -97 -19 -99 2 -3 25 18 50 46 27 30
61 56 82 63 34 11 93 63 93 81 0 5 -7 9 -15 9 -8 1 -19 3 -25 4 -5 1 -17 3
-25 4 -23 2 -18 22 15 56 18 18 33 47 37 68 5 33 3 37 -22 43 -14 3 -36 2 -49
-4 -19 -8 -22 -7 -24 16 -1 14 9 44 23 68 31 53 31 68 2 81 -17 8 -23 19 -24
51 -3 65 -41 115 -45 60z"/>
<path d="M2520 4354 c-47 -19 -107 -44 -135 -55 -64 -27 -70 -33 -20 -24 100
19 275 86 275 107 0 15 -35 7 -120 -28z"/>
<path d="M3635 4273 c20 -51 17 -83 -9 -122 -15 -21 -38 -49 -51 -61 -14 -13
-25 -26 -25 -30 0 -3 23 -33 50 -65 42 -50 55 -59 78 -57 43 6 47 18 19 56
-39 50 -39 78 -2 86 76 16 122 -24 208 -180 23 -41 47 -75 52 -76 6 0 22 -4
37 -8 30 -9 61 -1 82 20 19 18 7 57 -40 131 -42 65 -88 110 -184 175 -103 70
-105 73 -28 45 84 -32 106 -44 157 -86 56 -46 106 -116 171 -241 48 -92 58
-105 84 -108 20 -3 27 0 23 10 -8 24 13 48 43 48 21 0 31 -6 36 -22 12 -34 12
-40 -3 -77 -21 -53 -16 -75 30 -127 51 -59 87 -94 97 -94 14 0 34 32 36 57 0
13 8 32 18 41 15 15 18 15 38 -5 l21 -22 -21 -66 c-12 -36 -22 -68 -22 -70 0
-3 18 -16 41 -31 25 -16 39 -31 35 -39 -3 -8 10 -36 28 -62 18 -27 39 -73 45
-103 6 -29 16 -60 23 -67 20 -25 29 -13 23 30 -11 75 -25 161 -30 187 -4 14
-8 36 -11 50 -28 142 -144 321 -328 507 -194 196 -292 260 -516 341 -156 56
-218 67 -205 35z"/>
<path d="M3339 4177 c-24 -19 -75 -98 -88 -138 -14 -44 -8 -144 10 -179 34
-63 84 -104 142 -116 34 -7 174 -7 255 1 61 5 72 4 72 -9 0 -8 5 -18 11 -22 8
-4 9 1 4 17 -15 50 -26 53 -176 56 -157 2 -194 11 -230 51 -38 41 -48 74 -45
149 2 55 9 80 35 131 35 65 37 79 10 59z"/>
<path d="M3610 3427 c-14 -7 -30 -24 -37 -37 -15 -30 -10 -109 12 -169 11 -33
14 -66 9 -136 l-6 -92 37 -31 c41 -33 62 -34 127 -6 42 19 67 13 75 -16 4 -16
23 -30 23 -16 0 11 -23 66 -28 67 -40 7 -72 7 -98 0 -21 -6 -41 -4 -62 5 -36
15 -39 29 -29 123 3 19 -2 57 -10 85 -7 28 -16 70 -19 94 -6 38 -3 45 26 72
18 17 42 31 54 31 44 3 72 1 91 -6 17 -6 17 -4 -3 12 -15 13 -42 20 -75 22
-28 1 -54 4 -57 6 -3 2 -17 -2 -30 -8z"/>
<path d="M4737 3348 c14 -40 26 -93 28 -118 2 -25 4 -45 5 -45 3 0 9 -49 16
-136 7 -96 -2 -139 -45 -204 -40 -59 -42 -71 -21 -98 17 -22 24 -24 56 -17 47
11 60 31 74 115 7 39 19 78 27 87 15 16 17 16 41 -3 l26 -20 12 23 c7 13 14
44 17 70 5 50 -5 73 -56 124 -28 28 -28 29 -8 38 17 7 27 4 45 -13 l24 -23 23
31 c13 17 24 39 25 48 3 19 -13 53 -24 52 -26 -4 -61 3 -77 16 -11 8 -47 35
-80 59 -33 25 -72 54 -87 65 -14 12 -30 21 -36 21 -5 0 2 -33 15 -72z"/>
<path d="M1369 3359 c-16 -17 -37 -54 -46 -81 -18 -49 -20 -52 -103 -91 -311
-148 -497 -387 -566 -727 -23 -116 -23 -398 1 -520 3 -14 10 -51 16 -84 63
-349 295 -809 540 -1071 101 -108 357 -292 524 -378 255 -131 670 -281 865
-313 14 -2 35 -6 47 -9 88 -20 389 -27 553 -14 81 7 197 34 218 51 8 7 16 7
26 -1 11 -9 19 -9 34 0 24 15 80 105 91 145 l7 28 24 -40 c46 -76 46 -76 101
-49 l48 25 -5 56 c-5 48 -3 59 17 80 29 31 34 30 37 -8 3 -43 33 -92 58 -96
22 -3 213 89 269 131 5 4 89 59 185 123 239 159 441 318 595 469 79 78 109
117 118 156 6 24 -1 30 -97 87 -161 96 -251 195 -255 282 -2 27 -32 -15 -92
-125 -113 -208 -384 -487 -621 -638 -153 -98 -462 -253 -540 -271 -33 -7 -190
-8 -241 -1 -83 12 -271 90 -355 147 -88 60 -123 108 -126 168 -3 67 -8 64 -50
-33 -21 -49 -21 -51 13 -89 15 -18 33 -43 40 -55 10 -21 8 -24 -26 -40 -50
-24 -53 -47 -11 -73 38 -23 85 -26 131 -7 40 17 95 13 116 -7 19 -20 9 -31
-44 -49 -32 -11 -41 -20 -43 -41 -3 -22 2 -29 30 -40 18 -8 53 -17 77 -20 24
-3 46 -8 48 -10 3 -2 -9 -12 -26 -22 -47 -28 -57 -79 -24 -116 22 -25 45 -22
101 9 56 31 77 27 87 -16 17 -79 115 -45 101 34 -7 38 1 51 55 91 40 29 60 37
102 39 57 2 77 -7 77 -37 0 -24 -28 -35 -92 -37 -33 -1 -68 -33 -68 -60 0 -16
11 -22 55 -31 68 -14 81 -29 19 -22 -34 4 -55 0 -82 -16 -65 -36 -143 -46
-215 -28 -59 15 -83 15 -127 1 -22 -7 -60 45 -80 107 -13 44 -16 45 -195 53
-147 6 -175 12 -295 60 -52 21 -111 42 -130 47 -107 30 -397 166 -535 251
-263 163 -433 345 -622 665 -95 160 -179 369 -199 492 -3 19 -8 38 -10 41 -2
4 -6 24 -9 45 -3 22 -7 50 -10 64 -9 43 -19 230 -19 340 1 161 11 214 60 318
78 165 205 309 357 402 78 48 80 49 109 34 17 -9 47 -21 67 -28 88 -31 164 48
162 171 0 66 -27 128 -75 176 -30 31 -44 37 -77 37 -33 0 -47 -6 -70 -31z
m3331 -2103 c-1 -20 -318 -350 -378 -393 -107 -77 -204 -143 -212 -143 -4 0
-10 -4 -12 -8 -4 -9 -91 -62 -132 -80 -80 -35 -1 26 161 124 135 82 320 259
432 414 107 147 102 142 123 117 10 -11 18 -25 18 -31z"/>
<path d="M3771 3090 c-8 -4 3 -8 28 -8 53 -1 87 -19 124 -64 25 -32 31 -48 33
-99 3 -72 -5 -95 -66 -174 -71 -93 -91 -143 -91 -225 1 -54 3 -67 30 -154 28
-90 14 -162 -43 -215 -48 -45 -99 -32 -135 37 -11 20 -20 30 -21 21 0 -25 42
-81 75 -100 69 -40 144 -27 178 31 44 74 48 138 16 291 -15 75 -17 137 -6 174
6 17 35 73 66 125 49 82 56 102 58 151 2 81 -42 160 -110 195 -32 17 -117 26
-136 14z"/>
<path d="M1295 2974 c-120 -81 -184 -161 -211 -262 -15 -59 -17 -205 -3 -196
5 3 9 16 9 29 0 39 44 166 73 212 26 41 76 81 64 51 -5 -12 -49 -146 -52 -158
-9 -35 -18 -128 -17 -177 1 -62 25 -180 41 -196 9 -9 4 54 -8 113 -11 53 -5
149 14 216 19 65 59 149 75 159 12 8 10 -9 -15 -105 -24 -90 -26 -296 -4 -420
16 -91 44 -170 61 -170 9 0 1 24 -23 65 -15 26 -17 57 -14 230 1 143 7 219 18
267 16 67 42 138 50 138 5 0 -10 -96 -27 -168 -17 -72 -20 -210 -6 -281 25
-133 138 -280 272 -354 36 -20 69 -37 73 -37 3 0 -34 27 -83 60 -49 32 -106
78 -127 101 -80 88 -113 213 -93 344 9 56 11 76 28 190 15 103 28 126 29 53 3
-268 111 -454 349 -602 59 -37 52 -18 -9 23 -107 73 -165 138 -227 252 -40 75
-62 148 -68 234 -3 39 -7 85 -8 103 -2 17 0 32 4 32 4 0 13 -15 20 -32 32 -81
86 -179 135 -243 51 -67 285 -305 300 -305 4 0 -40 48 -98 108 -130 132 -140
144 -186 212 -63 94 -100 179 -107 245 l-5 40 37 -65 c20 -36 48 -78 61 -95
32 -39 144 -154 174 -180 42 -35 161 -107 234 -140 38 -18 102 -47 140 -64
108 -49 230 -112 339 -175 54 -31 101 -54 104 -51 6 6 9 4 -53 47 -57 39 -49
35 -295 160 -167 86 -317 170 -330 187 -3 3 -21 18 -40 32 -103 76 -236 240
-275 336 -22 53 -25 87 -5 53 66 -113 175 -235 300 -335 178 -143 227 -167
470 -220 98 -21 221 -93 297 -174 50 -52 143 -213 143 -246 0 -8 4 -16 9 -20
11 -6 9 11 -8 71 -15 56 -15 56 29 33 22 -12 40 -24 40 -28 0 -15 123 -55 134
-43 3 3 -23 17 -57 32 -109 46 -184 105 -234 184 -76 119 -191 186 -438 251
-122 33 -197 69 -294 142 -85 64 -271 249 -271 269 0 8 -4 14 -9 14 -10 0
-111 198 -111 217 0 6 -5 24 -10 38 l-10 27 -31 -26 c-39 -33 -85 -34 -149 -1
-61 31 -68 31 -115 -1z"/>
<path d="M3524 2396 c-35 -35 -37 -43 -34 -132 1 -52 -8 -69 -88 -154 -67 -72
-77 -158 -22 -204 27 -22 34 -24 63 -14 17 6 41 19 52 28 24 21 43 16 72 -18
20 -24 22 -24 17 -5 -3 12 -16 31 -29 43 -24 23 -32 23 -109 4 -22 -5 -32 -3
-43 11 -23 32 -15 53 43 112 105 110 107 112 99 195 -6 66 -5 75 15 96 35 37
88 23 114 -32 9 -20 18 -36 20 -36 10 0 -4 64 -20 87 -42 65 -97 72 -150 19z"/>
<path d="M1985 2253 c4 -10 8 -25 10 -33 2 -8 4 -15 5 -15 1 0 3 -7 5 -15 20
-97 64 -242 92 -310 24 -57 35 -99 34 -126 -1 -33 2 -42 23 -53 23 -13 63 -12
96 3 10 4 19 -3 27 -21 7 -16 26 -45 43 -65 l31 -38 127 0 c189 0 194 -2 282
-130 62 -89 138 -123 215 -97 17 6 53 26 80 46 44 31 57 35 105 33 77 -2 96 4
108 35 6 16 10 64 8 108 -3 84 5 115 30 115 8 0 47 -16 86 -36 46 -23 88 -37
119 -38 42 -2 52 1 77 28 17 17 55 79 87 139 l57 107 -32 30 c-18 16 -36 27
-42 24 -5 -3 0 -13 12 -21 20 -14 20 -16 4 -41 -10 -15 -24 -33 -31 -40 -7 -8
-34 -42 -59 -78 -62 -87 -80 -90 -214 -38 -86 33 -125 3 -136 -106 -3 -36 -11
-71 -18 -78 -7 -7 -40 -14 -73 -16 -53 -4 -70 -10 -121 -47 -79 -55 -95 -51
-195 52 -108 112 -132 121 -289 113 -115 -6 -125 -5 -150 15 -15 12 -35 39
-44 61 -22 48 -36 54 -67 29 -74 -58 -117 5 -207 296 -49 161 -74 225 -86 225
-4 0 -3 -8 1 -17z"/>
<path d="M1370 2012 c0 -45 29 -89 109 -167 28 -27 51 -54 51 -60 0 -6 -21
-44 -46 -84 -57 -88 -65 -133 -35 -193 59 -121 274 -271 409 -285 63 -7 81 6
118 83 39 82 65 80 110 -7 13 -27 41 -66 63 -89 32 -34 47 -42 90 -47 59 -7
135 17 151 47 10 18 3 80 -9 90 -4 3 -20 23 -37 45 -38 52 -43 90 -13 121 27
29 53 30 115 4 26 -11 49 -18 52 -15 3 2 -17 15 -44 26 -103 46 -145 43 -178
-12 -22 -37 -15 -68 28 -129 17 -25 31 -51 30 -57 -1 -7 -2 -19 -3 -27 -4 -43
-59 -58 -114 -30 -41 22 -48 29 -101 112 -53 81 -77 94 -112 61 -13 -12 -24
-28 -24 -34 0 -25 -50 -59 -88 -59 -115 2 -290 105 -365 217 -31 45 -26 68 29
161 56 94 52 115 -40 201 -41 38 -86 90 -99 115 -32 58 -47 62 -47 12z"/>
<path d="M1710 1906 c0 -2 7 -7 16 -10 8 -3 12 -2 9 4 -6 10 -25 14 -25 6z"/>
<path d="M1775 1873 c17 -8 80 -48 140 -87 61 -40 117 -75 125 -79 8 -4 25
-14 38 -23 12 -9 22 -14 22 -11 0 13 -46 48 -114 89 -39 23 -73 45 -76 48 -9
9 -148 80 -156 80 -5 -1 5 -8 21 -17z"/>
<path d="M3226 1869 c-39 -11 -93 -49 -108 -78 -15 -28 -14 -112 1 -138 8 -14
11 -8 12 32 5 130 27 150 171 150 80 -1 93 2 78 12 -24 17 -120 31 -154 22z"/>
<path d="M1376 1341 c3 -36 12 -77 19 -91 11 -22 10 -28 -6 -49 -32 -40 -24
-58 39 -90 31 -16 65 -38 75 -49 19 -20 18 -21 -33 -47 -40 -20 -51 -30 -48
-47 6 -39 66 -66 152 -68 15 0 17 -5 11 -27 -20 -78 -24 -73 67 -73 101 0 151
-20 156 -62 3 -22 0 -26 -16 -23 -23 4 -62 -21 -61 -38 1 -13 257 -143 349
-178 30 -11 77 -31 105 -44 117 -53 369 -119 495 -130 41 -4 81 -8 88 -11 8
-2 12 1 10 8 -2 6 -17 13 -34 15 -28 3 -142 35 -187 52 -12 5 -24 9 -27 9 -41
4 -395 200 -513 284 -37 26 -69 48 -72 48 -9 0 -161 116 -209 160 -83 76 -187
184 -198 204 -10 18 -9 18 18 -2 16 -11 82 -65 147 -121 65 -55 137 -115 160
-133 23 -18 44 -35 47 -38 19 -21 264 -180 278 -180 3 0 13 -6 21 -14 34 -30
291 -156 376 -184 121 -41 183 -49 192 -26 8 22 -30 54 -63 54 -13 0 -24 4
-24 8 0 4 -9 8 -21 9 -31 3 -68 31 -81 61 -22 52 -20 81 4 105 l24 24 -23 49
c-27 58 -28 77 -8 94 8 7 15 17 15 22 0 19 65 68 97 74 39 7 36 16 -12 38 -32
15 -40 29 -36 62 1 12 -36 54 -49 54 -14 0 -40 -42 -40 -66 0 -17 -6 -21 -36
-22 -20 -1 -43 -7 -50 -13 -19 -16 -18 -59 3 -89 9 -13 18 -34 19 -48 2 -13 9
-34 17 -46 20 -29 25 -78 10 -83 -6 -2 -30 12 -52 32 -46 42 -67 96 -49 129
21 39 3 116 -27 116 -7 0 -26 -10 -42 -23 -15 -12 -44 -24 -63 -26 -46 -4 -47
-4 -42 -45 3 -25 17 -49 47 -81 45 -46 54 -83 19 -77 -48 9 -94 86 -101 173
-5 47 -2 64 18 98 20 36 35 46 61 42 18 -2 47 52 43 81 -5 41 -9 43 -72 43
-49 -1 -58 -4 -79 -30 -22 -27 -24 -28 -24 -9 0 49 -21 83 -58 95 -20 6 -43
16 -49 22 -9 6 -13 6 -13 -2 0 -17 -2 -24 -11 -49 -5 -13 -5 -40 0 -62 5 -21
7 -41 4 -44 -3 -2 -22 2 -44 9 -35 13 -38 13 -35 -3 6 -31 19 -57 50 -97 17
-22 33 -51 35 -64 2 -22 0 -23 -30 -17 -84 16 -107 81 -84 240 4 34 -7 61 -30
70 -19 7 -65 -10 -80 -31 -10 -14 -13 -14 -28 2 -10 9 -24 29 -32 45 -8 15
-21 30 -30 33 -19 8 -45 -1 -46 -17 -1 -6 -3 -20 -4 -31 -1 -11 -3 -24 -4 -30
-1 -5 -20 27 -41 72 -30 65 -44 84 -64 89 -20 5 -31 1 -46 -17 l-19 -24 4 25
c4 33 -50 80 -100 84 l-36 4 7 -67z"/>
</g>
</svg>
