<svg width="36" height="36" viewBox="0 0 36 36" fill="none" xmlns="http://www.w3.org/2000/svg">
<rect opacity="0.8" width="36" height="36" rx="10" fill="#1F2126"/>
<g opacity="0.5" clip-path="url(#clip0_10:369)">
<path d="M9.62689 14.4404C9.97318 14.4404 10.2538 14.1597 10.2538 13.8135V11.1406L14.2913 15.1773C14.4138 15.2997 14.5742 15.3609 14.7346 15.3609C14.8951 15.3609 15.0556 15.2997 15.1779 15.1773C15.4227 14.9324 15.4227 14.5355 15.1778 14.2908L11.1401 10.2539H13.8136C14.1598 10.2539 14.4405 9.97326 14.4405 9.62705C14.4405 9.28085 14.1599 9.00017 13.8136 9.00017H9.62689C9.28059 9.00017 9 9.28085 9 9.62705V13.8136C9 14.1597 9.28059 14.4404 9.62689 14.4404Z" fill="white"/>
<path d="M26.3731 21.5596C26.0268 21.5596 25.7462 21.8403 25.7462 22.1865V24.8595L21.5844 20.6976C21.3395 20.4528 20.9426 20.4528 20.6978 20.6976C20.453 20.9424 20.453 21.3394 20.6978 21.5841L24.8595 25.7459H22.1868C21.8405 25.7459 21.5599 26.0266 21.5599 26.3728C21.5599 26.719 21.8405 26.9997 22.1868 26.9997H26.3732C26.7195 26.9997 27.0001 26.719 27.0001 26.3728V22.1865C27 21.8403 26.7193 21.5596 26.3731 21.5596Z" fill="white"/>
<path d="M14.4156 20.6976L10.2542 24.8594V22.1865C10.2542 21.8403 9.97361 21.5596 9.62731 21.5596C9.28102 21.5596 9.00043 21.8403 9.00043 22.1865V26.3729C9.00043 26.7192 9.28102 26.9998 9.62731 26.9998H13.8136C14.1598 26.9998 14.4405 26.7192 14.4405 26.3729C14.4405 26.0267 14.1599 25.7461 13.8136 25.7461H11.1407L15.3022 21.5841C15.547 21.3393 15.547 20.9424 15.3021 20.6975C15.0575 20.4528 14.6605 20.4528 14.4156 20.6976Z" fill="white"/>
<path d="M26.3731 9.00017H22.1867C21.8404 9.00017 21.5598 9.28085 21.5598 9.62705C21.5598 9.97326 21.8404 10.2539 22.1867 10.2539H24.8596L20.8227 14.2912C20.5779 14.536 20.5779 14.9329 20.8228 15.1778C20.9451 15.3001 21.1056 15.3613 21.266 15.3613C21.4264 15.3613 21.5869 15.3 21.7093 15.1777L25.7463 11.1404V13.8135C25.7463 14.1597 26.0269 14.4404 26.3732 14.4404C26.7195 14.4404 27.0001 14.1597 27.0001 13.8135V9.62705C27 9.28076 26.7193 9.00017 26.3731 9.00017Z" fill="white"/>
</g>
<defs>
<clipPath id="clip0_10:369">
<rect width="18" height="18" fill="white" transform="translate(9 9)"/>
</clipPath>
</defs>
</svg>
