<svg width="210" height="66" viewBox="0 0 210 66" fill="none" xmlns="http://www.w3.org/2000/svg">
<path fill-rule="evenodd" clip-rule="evenodd" d="M43.3898 0H42.9249C42.1501 0.616967 42.615 0.462725 42.1501 1.23393C41.9952 1.69666 41.6852 2.15938 41.3753 2.46787C40.9104 3.39332 40.1356 4.16452 39.8257 4.93573C40.2906 4.78149 40.9104 4.31877 41.3753 4.16452C42.1501 3.85604 42.46 4.31877 42.9249 4.62725C43.2349 4.47301 44.4746 3.7018 44.7845 3.7018H45.0944C45.0944 4.01028 43.6998 4.93573 43.3898 5.08997C43.3898 5.70694 44.0097 6.01542 44.1646 6.47815C44.4746 6.32391 44.4746 6.16967 45.2494 6.16967H46.4891C46.954 6.16967 47.2639 7.09512 48.5036 7.09512C48.6586 7.09512 49.1235 6.32391 49.1235 6.01542C49.1235 5.5527 48.6586 5.24422 48.5036 5.08997C47.8838 4.62725 48.0387 4.78149 47.2639 4.78149C47.109 4.78149 47.109 4.78149 47.109 4.62725V4.01028C47.5738 3.85604 48.8136 3.54756 49.1235 3.08483C48.9685 2.62211 49.1235 1.38817 48.5036 1.38817H47.5738C46.799 1.38817 46.0242 2.46787 45.2494 2.46787C45.0944 2.46787 44.7845 1.23393 44.6295 0.92545C44.1646 0.462725 44.0097 0.462725 43.3898 0ZM57.9564 28.6889C57.9564 30.0771 56.8717 30.8483 56.8717 31.3111C56.8717 31.4653 57.1816 31.928 57.4915 31.928C59.3511 31.928 58.2663 29.1517 59.3511 29.1517C59.816 29.7686 60.1259 29.9229 60.2809 28.072C60.2809 27.3008 59.3511 26.9923 59.1961 26.5296C59.506 26.3753 59.3511 26.3753 59.661 26.3753C59.9709 26.3753 60.1259 26.838 60.2809 26.838C60.4358 26.838 60.7458 26.2211 60.9007 26.2211C60.9007 25.1414 60.9007 25.2956 59.9709 25.2956L57.0266 23.1362C57.0266 23.7532 57.6465 24.5244 57.6465 25.7584C57.8014 26.6838 57.9564 27.6093 57.9564 28.6889ZM43.6998 13.2648V13.5733C43.6998 14.036 42.46 15.1157 42.46 15.2699C42.46 15.4242 43.5448 16.5039 43.6998 16.8123L44.6295 16.6581C44.4746 16.0411 42.9249 14.9614 44.6295 14.9614H44.7845C46.0242 14.9614 46.799 17.4293 47.4189 18.2005C48.0387 18.2005 47.8838 18.3548 48.3487 18.3548H48.5036C48.6586 18.3548 49.1235 18.0463 49.1235 17.892C49.1235 17.1208 48.0387 15.5784 47.5738 15.2699C47.2639 14.9614 45.4044 13.5733 45.0944 13.5733V13.419C45.4044 13.419 46.799 14.036 47.109 14.1902C47.7288 14.653 48.1937 14.9614 48.6586 15.5784C49.1235 16.1954 49.4334 16.6581 49.7433 17.2751C49.8983 17.5835 50.5182 19.126 50.8281 19.126H51.293V18.6632C51.293 18.509 51.4479 18.3548 51.6029 18.3548C52.3777 18.3548 52.3777 18.509 52.3777 19.2802C52.3777 19.5887 52.0678 19.8972 52.0678 20.2057V20.5141C52.0678 20.6684 53.6174 22.365 53.7724 22.365C53.9274 22.365 54.2373 22.0566 54.2373 22.0566C54.2373 21.4396 54.5472 20.3599 55.1671 21.4396C55.1671 22.2108 54.7022 22.8278 54.7022 23.1362C54.7022 23.2905 55.477 23.7532 55.632 23.7532C55.632 24.8329 56.0969 24.8329 56.4068 25.4499C56.7167 26.0668 56.4068 26.9923 57.1816 27.1465C57.1816 26.6838 56.8717 24.5244 56.7167 24.0617C56.5617 23.599 56.5617 22.982 56.4068 22.6735C56.2518 22.365 55.9419 21.7481 55.7869 21.4396C54.8571 19.8972 53.9274 18.6632 52.6876 17.4293C51.6029 16.3496 50.2082 14.9614 48.8136 14.1902C47.8838 13.7275 44.7845 12.3393 43.3898 12.3393C43.5448 12.8021 43.6998 12.9563 43.6998 13.2648ZM48.3487 7.86632H47.7288C47.4189 7.86632 46.799 7.4036 46.4891 7.09512H44.9395L45.2494 8.17481L46.799 8.02057C46.954 8.02057 46.954 8.02057 47.109 8.02057V8.17481L45.5593 8.79177C45.5593 9.2545 46.1792 9.71722 46.1792 10.1799V10.3342C46.1792 10.6427 45.7143 10.9512 45.5593 11.2596C46.4891 11.2596 47.4189 11.4139 48.3487 11.4139C49.1235 11.5681 50.0533 11.8766 50.9831 11.8766C51.9128 11.8766 52.9976 11.7224 53.7724 11.8766C54.5472 12.0308 56.2518 11.5681 56.4068 12.3393H51.4479H50.6731L45.4044 12.0308H45.2494C44.9395 12.0308 45.2494 12.0308 45.0944 12.0308C45.4044 12.3393 49.2785 13.419 50.0533 13.7275C50.9831 13.8817 52.0678 14.036 52.8426 14.1902C53.3075 14.3445 53.7724 14.4987 54.0823 14.4987C54.5472 14.653 55.1671 14.653 55.1671 15.1157H54.8571C54.0823 15.1157 53.1525 14.653 52.3777 14.4987C51.4479 14.3445 50.5182 14.1902 49.7433 14.1902C50.2082 14.4987 51.6029 15.1157 52.2228 15.5784C52.9976 16.1954 53.7724 16.8123 54.5472 17.2751C55.322 17.892 56.0969 18.3548 57.0266 18.8175C57.4915 19.126 57.8014 19.2802 58.4213 19.4344C58.8862 19.5887 59.5061 19.7429 59.661 20.2057C59.5061 20.2057 59.661 20.2057 59.5061 20.2057C59.3511 20.2057 57.1816 19.2802 56.8717 19.126C56.2518 18.8175 54.7022 18.0463 54.3922 17.892C54.3922 18.2005 55.477 19.126 55.7869 19.5887C56.2518 20.5141 56.2518 20.8226 56.8717 21.5938C57.3366 22.0566 59.661 24.3702 60.1259 24.3702H60.2809C60.7458 24.3702 61.2107 24.2159 61.2107 23.599C61.2107 23.1362 59.816 23.1362 59.5061 22.8278C59.3511 22.6735 58.4213 21.5938 58.4213 21.4396V21.1311H58.5763C59.0412 21.1311 59.1961 21.5938 59.5061 21.9023C59.661 22.0566 60.2809 22.365 60.5908 22.365C60.9007 22.365 60.7458 22.0566 61.2107 21.9023C61.0557 21.5938 60.5908 21.5938 60.5908 21.2853C60.5908 20.5141 61.5206 21.1311 61.6755 21.1311C61.8305 21.1311 62.4504 20.2057 62.4504 20.0514C62.4504 19.8972 62.2954 19.4344 62.1404 19.4344H61.9855C61.5206 19.4344 60.5908 19.5887 60.5908 19.2802V19.126C60.5908 18.8175 61.5206 18.3548 61.5206 18.0463V17.892C61.5206 17.4293 61.3656 17.1208 61.0557 16.8123C60.2809 16.8123 60.2809 16.6581 59.816 17.2751C59.506 17.5835 59.3511 18.2005 58.8862 18.2005C57.9564 18.2005 56.0969 16.8123 55.632 16.1954C55.7869 16.0411 56.0969 15.7326 56.4068 15.7326C56.7167 15.7326 56.8717 16.8123 57.3366 16.8123H58.1114L58.8862 16.6581L59.0412 16.5039C59.0412 16.1954 58.8862 16.0411 58.8862 15.7326C58.8862 15.4242 59.9709 14.9614 59.9709 14.653C59.9709 13.2648 58.7312 12.6478 58.7312 13.419C58.7312 14.1902 57.1816 15.2699 57.1816 15.2699C56.5617 15.2699 56.5617 14.653 56.2518 14.4987C55.9419 14.1902 55.632 13.8817 55.322 13.7275L53.7724 13.419C53.7724 13.1105 54.2373 12.6478 54.2373 12.6478C54.5472 12.6478 55.322 13.2648 55.632 13.419C56.2518 13.8817 55.7869 14.1902 57.0266 14.1902H57.1816C57.3366 14.1902 57.4915 14.036 57.4915 13.8817V14.1902C57.4915 13.8817 57.3366 13.7275 57.3366 13.5733C57.3366 13.2648 58.2663 12.9563 58.5763 12.9563C58.5763 11.7224 57.4915 11.5681 57.0266 10.7969C56.5617 10.1799 56.2518 8.94602 55.1671 8.94602C54.5472 8.94602 54.5472 10.1799 54.5472 10.9512C54.3922 11.1054 53.6174 11.5681 53.4625 11.5681C52.5327 11.5681 51.7579 11.4139 51.293 10.9512L50.0533 11.1054C49.5884 11.1054 48.1937 10.6427 48.1937 10.1799V10.0257C48.1937 9.87146 48.5036 9.56298 48.8136 9.56298H49.4334C50.2082 9.56298 51.6029 10.7969 52.6876 10.7969C53.3075 10.7969 53.4625 10.3342 53.4625 9.71722C53.4625 9.40874 52.6877 8.02057 52.5327 8.02057C52.3777 8.02057 52.3777 8.17481 52.0678 8.17481C51.9128 8.17481 51.9128 7.71208 51.9128 7.71208C51.9128 7.24936 52.2228 6.78663 52.2228 6.16967C52.2228 4.93573 50.2082 4.93573 50.0533 5.5527C49.7433 6.94087 49.8983 7.86632 48.3487 7.86632ZM43.0799 16.8123C43.0799 16.6581 42.77 16.3496 42.615 16.1954C42.77 16.5039 42.9249 16.6581 43.0799 16.8123ZM12.2421 10.6427V10.9512C12.2421 11.1054 12.2421 10.9512 12.3971 11.2596C12.2421 11.1054 12.0872 11.1054 11.7772 11.1054C11.6223 11.1054 11.4673 11.4139 11.4673 11.7224V12.0308C11.4673 12.3393 11.6223 12.3393 11.6223 12.8021V13.2648C11.1574 13.2648 11.3123 12.8021 11.0024 12.8021C10.6925 12.8021 10.6925 13.2648 10.6925 13.7275C10.5375 14.3445 10.2276 13.8817 9.91767 13.8817C9.76271 13.8817 9.45278 14.036 9.45278 14.1902V14.3445C9.45278 14.8072 10.0726 15.4242 10.3826 15.8869C10.6925 16.5039 10.5375 17.2751 9.76271 17.4293L9.60775 16.1954V15.4242C9.60775 14.8072 9.14286 15.5784 8.98789 15.7326C8.98789 14.3445 7.43826 13.7275 7.43826 15.2699C7.43826 15.7326 7.59322 15.8869 7.74818 16.0411C7.59322 16.0411 7.43825 16.0411 7.28329 16.0411H7.12833C6.97337 16.0411 6.19855 16.6581 6.19855 16.6581C6.19855 16.8123 6.66344 17.4293 6.8184 17.4293H6.97337C7.28329 17.4293 7.28329 17.2751 7.43826 17.2751C8.21307 17.2751 8.67797 18.509 8.67797 19.2802V19.4344C8.67797 19.7429 8.523 19.7429 8.523 19.8972C8.21307 19.7429 7.43825 19.2802 7.28329 19.2802H7.12833C6.66344 19.2802 6.35351 19.8972 6.35351 20.5141C6.35351 20.8226 7.59322 20.9769 7.59322 21.7481V22.2108C7.59322 23.1362 6.97336 23.1362 6.66344 23.4447C6.50847 23.7532 6.35351 24.9871 6.04358 24.9871C5.88862 24.9871 5.73365 24.6787 5.73365 24.5244C5.73365 24.2159 6.04358 23.2905 6.19855 23.1362C6.35351 22.982 7.12833 22.6735 7.12833 22.0566C7.12833 21.7481 6.8184 21.2853 6.50847 21.2853C5.88862 21.2853 5.73366 21.5938 5.42373 21.9023C5.42373 22.2108 5.42373 22.5193 5.1138 22.5193C4.95884 22.5193 4.80387 22.5193 4.64891 22.365C4.64891 21.9023 4.95884 20.5141 3.4092 20.5141C2.16949 21.7481 3.09927 22.6735 3.09927 22.982V23.4447L2.94431 23.599C2.78935 23.599 2.78935 23.599 2.47942 23.599H2.32446C1.85956 23.599 0.929783 23.9075 0.929783 24.5244V24.6787C0.929783 24.8329 4.49395 27.7635 4.49395 29.7686V30.6941C4.49395 31.1568 4.33898 31.6195 3.71913 31.6195C3.56416 31.3111 3.09927 31.1568 3.09927 30.3856C3.09927 29.7686 3.4092 27.6093 2.47942 27.6093C2.01453 27.6093 1.54964 28.072 1.54964 28.5347V29.3059H0.929783C0.154964 29.3059 0 29.9229 0 30.6941C0 31.7738 1.85956 32.3907 2.16949 31.7738L1.54964 30.6941H1.7046C2.32446 30.6941 2.63438 31.6195 2.94431 31.928C3.4092 32.3907 3.87409 32.8535 4.18402 33.3162C4.49394 33.7789 4.95884 34.3959 5.1138 35.0129C5.26876 35.3213 5.57869 36.8638 5.73365 37.018C5.73365 36.8638 5.73365 37.018 5.73365 36.8638V35.9383C5.73365 35.0128 5.57869 33.6247 5.42373 32.8535C5.26876 31.928 5.26876 30.8483 5.1138 29.7686C4.95884 28.8432 4.80387 27.9177 4.49395 26.9923C4.33898 26.2211 4.02906 24.9871 4.02906 24.0617C4.02906 23.9075 4.02906 24.0617 4.02906 23.9075C4.33898 24.0617 5.26876 27.6093 5.26876 28.3805C5.42373 29.3059 5.42373 30.0771 5.57869 30.8483C5.73366 31.6195 5.88862 32.545 5.88862 33.3162C6.04358 33.0077 6.19855 29.9229 6.35351 29.1517C6.50847 28.072 6.8184 26.0668 7.28329 25.4499C7.28329 27.6093 6.66344 28.9974 6.66344 31.1568C6.97336 31.0026 7.43826 29.4602 7.43826 29.1517C7.59322 28.6889 7.59322 28.3805 7.74818 28.072C8.05811 27.3008 7.90315 27.7635 7.90315 26.838V26.0668C7.90315 23.4447 8.98789 21.2853 10.2276 19.7429C11.1574 18.6632 11.0024 17.892 11.3123 16.5039C11.4673 15.7326 12.0872 13.5733 12.5521 13.2648L11.3123 18.509C11.7772 18.2005 12.0872 17.4293 12.707 17.1208C13.1719 16.8123 13.3269 17.1208 13.6368 16.6581C13.9467 16.3496 14.1017 16.1954 14.2567 15.8869L13.1719 15.7326C13.1719 14.9614 14.1017 15.1157 14.1017 13.8817C13.6368 13.419 13.3269 13.5733 12.862 13.8817V13.2648C12.862 12.8021 13.4818 12.3393 13.4818 12.0308C13.4818 11.7224 13.0169 11.5681 12.862 11.5681V10.7969C12.862 10.4884 12.5521 9.87146 12.2421 9.71722C12.707 9.87146 12.2421 10.1799 12.2421 10.6427ZM6.04358 37.3265V39.0231C6.04358 45.964 10.8475 54.7558 14.8765 57.6864C16.2712 58.7661 17.3559 59.5373 18.9056 60.4627C20.3002 61.2339 22.0048 62.0051 23.5545 62.6221C26.8087 63.856 30.3729 65.2442 34.8668 65.2442H35.6416C36.7264 65.2442 37.5012 65.09 38.431 65.09C39.3608 64.9357 40.1356 64.7815 40.9104 64.473C40.9104 64.1645 40.6005 64.0103 40.4455 64.0103H39.8257C39.2058 64.0103 39.0508 64.3188 38.586 64.473C38.431 64.473 37.1913 64.7815 37.1913 64.7815C36.8814 64.7815 36.4165 64.473 35.9516 64.473C35.0218 64.3188 34.8668 64.6272 34.7119 64.6272C34.4019 64.6272 33.7821 63.3933 33.7821 62.9306C33.6271 62.7763 33.3172 62.6221 33.0073 62.6221C30.8378 62.6221 29.4431 62.6221 27.7385 61.8509C27.1186 61.5424 26.1889 61.2339 25.569 61.0797C24.7942 60.7712 24.1743 60.4627 23.3995 60.1542C20.7651 59.0745 17.6659 57.2236 15.8063 55.3727C14.5666 54.1388 14.1017 53.5218 13.0169 51.9794C12.2421 50.8997 11.3123 49.3573 10.6925 48.1234C9.29782 45.347 8.523 42.108 8.523 37.9434V36.5553C8.523 34.2416 9.76271 32.545 10.6925 31.1568C11.1574 30.5398 11.9322 29.7686 12.5521 29.3059C12.862 28.9974 14.5666 27.9177 14.8765 27.9177C14.8765 27.9177 15.8063 28.5347 16.4261 28.5347C17.3559 28.5347 17.9758 27.455 17.9758 26.5296V26.0668C17.9758 25.1414 17.046 23.599 16.1162 23.599C15.1864 23.599 14.8765 24.3702 14.5666 25.1414C14.2567 25.7584 14.5666 25.6041 13.9467 25.9126C13.6368 26.0668 13.1719 26.2211 12.862 26.3753C11.4673 27.1465 10.5375 27.7635 9.45278 28.8432C7.74818 30.5398 6.04358 33.9332 6.04358 37.3265ZM47.109 58.3033C48.1937 58.1491 51.6029 55.527 52.5327 54.91C52.9976 54.4473 56.8717 50.5913 56.8717 50.2828C56.8717 50.1285 56.5617 49.82 56.4068 49.6658C56.2518 49.6658 54.7022 51.8252 54.5472 52.1337C53.9274 53.0591 52.9976 53.6761 52.3777 54.4473C51.7579 55.0643 50.5182 55.8355 49.8983 56.4524C49.4334 56.6067 47.2639 57.9949 47.109 58.3033ZM15.6513 50.5913C15.6513 50.8997 15.1864 51.054 15.1864 51.5167C15.1864 52.1337 16.891 52.1337 17.046 53.0591C16.7361 53.2134 15.8063 53.5219 15.8063 53.8303C15.8063 54.6015 17.201 54.7558 17.9758 54.7558L17.6659 55.9897C17.8208 55.9897 17.9758 55.9897 18.1307 55.9897H19.5254C20.1453 55.9897 20.7651 56.4524 20.7651 56.9152V57.0694H20.3002C19.9903 57.0694 19.6804 57.3779 19.6804 57.6864C19.9903 57.6864 22.0048 58.7661 22.4697 59.0745C23.3995 59.5373 24.4843 59.8458 25.414 60.3085C26.6538 60.9254 30.5278 62.0051 32.2324 62.0051H32.5424C32.6973 62.0051 32.6973 62.0051 32.8523 62.0051V61.8509C31.9225 61.8509 28.8232 60.7712 28.0484 60.3085C26.6538 59.5373 25.2591 58.7661 24.0194 57.9949C22.9346 57.2236 21.23 56.144 20.3002 55.3727C19.6804 54.7558 17.3559 52.7506 17.201 52.1337C17.6659 52.2879 19.9903 54.4473 20.6102 54.91C21.6949 55.8355 22.9346 56.7609 24.1743 57.5321C26.0339 58.6118 30.063 61.2339 32.8523 61.2339C32.8523 60.3085 32.0775 60.4627 31.3027 60.1542C30.6828 60 30.2179 59.383 30.2179 58.6118C30.2179 58.1491 30.5278 57.8406 30.8378 57.8406C30.6828 57.3779 30.2179 57.0694 30.2179 56.4524V56.2982C30.2179 56.144 30.3729 55.9897 30.5278 55.8355C30.6828 55.6812 30.5278 55.527 30.8378 55.3727C30.9927 55.2185 31.4576 54.7558 31.7675 54.7558H32.2324C32.0775 54.4473 31.6126 54.2931 31.1477 54.1388V53.5218C31.1477 53.2134 30.8378 52.9049 30.5278 52.9049C30.2179 52.9049 30.063 53.5219 30.063 53.8303V53.9846H29.4431C28.9782 53.9846 28.8232 54.2931 28.8232 54.7558C28.8232 55.0643 29.1332 55.3727 29.2881 55.527V56.144C29.4431 56.4524 29.753 56.6067 29.753 57.0694V57.5321C29.2881 57.5321 28.8232 56.9152 28.5133 56.6067C27.8935 55.3727 28.5133 55.527 28.5133 55.0643C28.5133 54.91 28.3584 53.9846 28.2034 53.9846C27.7385 53.9846 27.4286 54.2931 27.2736 54.6015H26.6537H26.1889V55.2185C26.1889 55.9897 27.2736 56.4524 27.2736 56.7609V57.2236C26.3438 57.2236 25.724 55.8355 25.724 55.0643V54.4473C25.724 53.8303 26.0339 53.5218 26.3438 53.2134C27.2736 53.2134 27.2736 52.7506 27.2736 51.9794C27.2736 51.6709 26.4988 51.6709 26.1889 51.6709C25.414 51.6709 25.414 52.1337 25.1041 52.4422C25.1041 51.8252 24.9492 51.3625 24.6392 51.054C24.4843 51.054 24.1743 50.8997 24.0194 50.8997C23.7094 50.7455 23.7094 50.7455 23.5545 50.5913C23.5545 51.2082 23.2446 51.8252 23.3995 51.9794L23.5545 52.7506L22.4697 52.4422C22.4697 53.3676 23.5545 53.9846 23.5545 54.4473V54.91C22.6247 54.91 21.8499 54.1388 22.0048 53.0591L22.1598 51.5167C22.1598 51.2082 21.8499 50.8997 21.5399 50.8997C20.9201 51.054 20.9201 51.2082 20.6102 51.5167C19.9903 51.2082 20.1453 50.2828 19.3705 50.2828C18.9056 50.2828 19.0605 50.8997 19.0605 51.2082C18.9056 51.6709 18.5956 50.8997 18.5956 50.7455C18.4407 50.2828 17.9758 49.2031 17.5109 49.2031C17.201 49.2031 17.046 49.6658 16.891 49.82V49.2031C16.5811 48.8946 16.1162 48.4319 15.6513 48.4319H15.1864C15.1864 48.5861 15.3414 49.6658 15.3414 49.6658C15.1864 49.9743 15.6513 50.5913 15.6513 50.5913ZM40.1356 60.1542H38.586C36.5714 60.1542 31.7675 57.9949 31.7675 56.2982V55.3727L31.3027 55.9897V56.4524C31.1477 56.6067 30.9927 56.7609 30.9927 56.9152V57.0694C30.9927 57.5321 31.9225 58.1491 31.9225 58.6118C31.9225 58.7661 30.9927 58.9203 30.9927 59.2288C30.9927 59.6915 31.6126 60 32.0775 60H32.3874C32.8523 60 33.1622 59.6915 33.4722 59.6915H33.7821C34.092 59.6915 34.5569 59.8458 34.5569 60.1542C34.5569 60.617 33.3172 60.4627 33.3172 60.9254V61.2339C33.3172 61.6967 35.0218 61.8509 35.3317 61.8509V62.0051C35.0218 62.1594 34.4019 62.4679 34.4019 62.9306V63.0848C34.4019 63.3933 34.7119 63.856 35.0218 63.856H35.1768C35.6416 63.856 36.1065 63.2391 36.5714 63.2391H36.8814C37.0363 63.7018 37.0363 64.3188 37.5012 64.3188C37.8111 64.3188 38.276 64.0103 38.276 63.7018V63.5476C38.276 62.7763 38.1211 62.7763 38.7409 62.3136C39.2058 62.0051 39.3608 61.6967 40.1356 61.6967H41.0654C41.0654 61.8509 41.2203 62.0051 41.2203 62.1594C41.2203 63.0848 39.2058 62.0051 39.2058 63.3933C39.2058 63.856 40.1356 63.7018 40.4455 63.856C41.0654 64.0103 40.9104 64.6272 41.3753 64.6272C41.6852 64.6272 42.77 62.9306 42.77 62.3136C42.9249 62.4679 43.5448 63.7018 43.6998 63.7018C43.8547 63.7018 44.6295 63.2391 44.7845 63.2391C45.0944 62.7763 44.7845 62.4679 44.7845 61.8509C44.7845 61.6967 45.2494 61.0797 45.5593 61.0797C45.5593 61.2339 45.5593 61.3882 45.5593 61.5424V61.6967C45.5593 62.0051 46.0242 62.7763 46.1792 62.7763C47.4189 62.7763 53.1525 58.7661 54.2373 57.9949C55.322 57.2236 60.9007 52.9049 60.9007 51.6709V51.3625C60.4358 51.2082 58.5763 49.9743 58.1114 49.6658C57.4915 49.0488 56.4068 48.1234 56.4068 46.8895C56.2518 47.0437 55.1671 48.8946 55.0121 49.2031C54.5472 49.9743 54.0823 50.7455 53.4625 51.3625C52.3777 52.7506 51.138 53.8303 49.7433 55.0643C48.5036 56.144 46.799 57.2236 45.2494 57.9949C44.4746 58.4576 41.3753 60.1542 40.1356 60.1542ZM33.6271 2.00514H34.8668C35.9516 2.00514 36.1065 2.31362 36.8814 2.77635C37.5012 3.23907 37.5012 3.85604 37.5012 4.93573C38.276 4.78149 38.1211 4.62725 39.0508 4.62725C39.2058 4.47301 39.5157 3.7018 39.5157 3.39332C39.5157 2.77635 38.7409 2.15938 38.1211 2.15938C37.3462 2.15938 36.8814 3.08483 36.7264 2.15938C36.7264 1.8509 36.2615 0.771208 35.7966 0.771208C35.1768 1.07969 33.7821 1.38817 33.6271 2.00514Z" fill="white"/>
<path fill-rule="evenodd" clip-rule="evenodd" d="M16.5815 19.8969C16.4265 18.8172 15.9616 18.2002 15.9616 17.2748C15.9616 16.9663 16.1166 16.812 16.1166 16.5035C15.8066 16.812 15.4967 18.3544 15.4967 18.9714V20.0511C15.4967 21.4393 16.1166 22.2105 16.2715 23.1359C17.5112 23.2902 18.441 24.5241 18.441 25.758V26.992C18.441 27.3005 18.1311 27.9174 18.1311 27.9174C18.1311 28.0717 19.3708 30.5395 19.5258 30.848C20.1456 31.7735 20.7655 32.3904 21.5403 33.0074C23.3999 34.2413 25.2594 34.8583 27.5839 35.6295C30.0633 36.4007 37.8115 39.794 37.8115 42.4161C37.8115 39.794 32.6977 37.0177 30.5282 36.0922C28.2037 35.1668 22.625 33.1616 21.3853 31.465C21.5403 31.465 22.625 32.3904 22.935 32.5447C23.5548 32.8532 24.0197 33.1616 24.6396 33.4701C25.7243 33.9328 27.4289 34.7041 28.5137 34.8583C28.5137 34.8583 24.9495 33.1616 24.4846 32.8532C23.7098 32.3904 21.5403 30.6938 21.2304 29.9226C21.6953 30.231 22.1601 30.848 22.935 31.3107C23.7098 31.7735 24.1747 32.0819 24.9495 32.3904C25.7243 32.6989 28.8236 34.0871 29.4434 34.0871C29.4434 34.0871 25.5693 32.0819 25.1045 31.7735C24.3296 31.3107 21.6953 29.4598 21.5403 28.6886C22.935 29.6141 24.1747 30.6938 26.0342 31.465C26.964 31.7735 27.5839 32.2362 28.5137 32.5447C29.4434 32.8532 30.2183 33.1616 31.148 33.6244C32.8526 34.2413 34.7122 34.8583 36.4168 35.4753C37.1916 35.7837 37.9664 36.555 38.4313 37.0177C38.8962 37.4804 38.8962 37.4804 39.2062 37.9431C39.3611 38.2516 39.671 39.0228 39.826 39.1771C39.826 38.4059 39.0512 37.1719 38.5863 36.7092C38.1214 36.0922 37.1916 35.4753 36.5718 35.0125C35.0221 34.0871 33.1626 33.6244 31.303 32.8532C29.5984 32.0819 27.8938 31.3107 26.1892 30.6938C25.4144 30.3853 21.8502 28.5344 21.5403 27.9174C22.1601 28.0717 23.2449 28.8429 24.0197 28.9971C24.9495 29.3056 25.7243 29.7683 26.6541 29.9226C27.5839 30.0768 28.5137 30.3853 29.5984 30.5395C30.5282 30.6938 31.9229 30.6938 32.8526 31.0023C33.9374 31.1565 35.0221 31.3107 35.9519 31.465C37.0367 31.6192 37.9664 31.9277 38.8962 32.0819C39.826 32.2362 40.7558 32.6989 41.5306 33.0074C41.6856 33.1616 42.4604 33.6244 42.6154 33.6244C42.7703 33.7786 43.3902 34.5498 43.3902 34.5498C43.3902 33.7786 41.8405 32.8532 41.3756 32.5447C41.8405 32.5447 42.4604 32.5447 42.7703 32.5447C43.0802 32.3904 43.7001 32.2362 44.01 32.0819V31.9277L42.1505 32.2362H41.5306C41.5306 32.2362 39.2062 31.6192 39.0512 31.6192C38.4313 31.3107 37.3466 31.0023 36.5718 30.848C35.797 30.6938 34.7122 30.3853 33.9374 30.3853C33.3175 30.3853 31.9229 30.0768 31.148 29.9226C29.5984 29.6141 27.2739 29.3056 25.8793 28.8429C24.4846 28.2259 22.4701 27.7632 21.3853 26.992C21.6953 26.992 23.5548 27.7632 24.1747 27.9174C25.1045 28.0717 26.1892 28.5344 27.274 28.5344C28.2037 28.5344 29.5984 28.8429 30.5282 28.9971C31.303 29.1514 33.3175 29.3056 33.9374 29.3056C33.7824 29.3056 28.3587 28.2259 27.7388 28.0717C26.4991 27.7632 22.625 26.8377 22.0052 26.375C22.4701 26.375 22.935 26.6835 23.2449 26.6835C23.7098 26.8377 24.1747 26.8377 24.6396 26.992C25.4144 27.1462 26.6541 27.3005 27.4289 27.4547C29.2885 27.6089 31.458 28.0717 33.3175 28.0717C34.8672 28.0717 38.4313 28.0717 39.671 28.3801C40.7558 28.6886 43.0802 30.5395 43.8551 30.848C43.7001 30.6938 42.1505 29.6141 41.6856 29.3056C40.7558 28.6886 40.4459 28.3801 39.3611 27.9174C39.5161 27.7632 37.9664 27.7632 36.8817 27.7632C35.487 27.7632 34.4023 27.6089 33.3175 27.6089C32.8526 27.6089 32.0778 27.4547 31.6129 27.4547C31.148 27.3005 30.3732 27.4547 29.9083 27.3005C28.8236 27.1462 27.7388 26.992 26.6541 26.8377C25.4144 26.6835 21.5403 25.758 21.0754 24.9868C22.935 25.4496 23.5548 26.2208 26.0342 26.2208C28.0488 26.2208 30.0633 26.0665 32.0778 26.0665C30.2183 26.0665 28.0488 26.0665 26.1892 25.758C25.1045 25.6038 24.6396 25.6038 23.7098 25.1411C23.2449 24.9868 21.6953 24.5241 21.3853 24.2156C21.6953 24.2156 22.935 24.5241 23.3999 24.6784C24.1747 24.8326 24.6396 24.9868 25.4144 25.1411C26.8091 25.2953 28.3587 25.6038 30.0633 25.6038C31.303 25.6038 32.3877 25.6038 33.6275 25.6038C34.7122 25.6038 35.9519 25.2953 36.8817 25.2953H38.1214C38.5863 25.2953 39.5161 25.4496 39.826 25.758C40.4459 26.0665 40.6008 26.375 41.0657 26.6835C40.9108 25.758 39.5161 24.9868 38.2764 24.9868C38.4313 24.8326 39.3611 24.5241 39.671 24.3699C40.1359 24.0614 40.4459 23.9071 40.9108 23.5987C41.2207 23.4444 43.0802 22.0562 43.2352 21.902C42.7703 22.0562 39.3611 23.9071 38.5863 24.2156C37.5016 24.8326 34.4023 25.1411 32.5427 25.1411H28.5137C27.2739 25.1411 22.1601 24.0614 21.5403 23.7529C24.9495 23.7529 26.6541 24.8326 29.9083 24.2156V24.0614C28.3587 24.2156 25.2594 24.2156 24.0197 23.1359C25.4144 23.1359 29.4434 22.3647 29.9083 21.902C28.3587 21.902 26.8091 22.0562 25.4144 22.0562C24.6396 22.0562 24.0197 22.0562 23.2449 22.2105C22.78 22.2105 21.6953 22.6732 21.2304 22.6732C22.0052 21.902 26.1892 21.4393 26.4991 21.285C25.1045 21.285 23.8647 21.285 22.78 21.4393C22.1601 21.5935 21.6953 21.5935 21.2304 21.7478C20.7655 21.902 20.1456 22.2105 19.8357 22.3647C20.6105 21.1308 24.9495 21.1308 25.7243 20.5138L22.1601 20.6681C22.3151 20.3596 23.0899 19.4341 23.5548 19.4341H23.8647C25.4144 19.4341 26.8091 20.6681 27.7388 20.6681H28.0488C29.4434 20.6681 29.1335 18.6629 30.0633 18.6629C30.5282 18.6629 31.148 19.8969 31.458 20.2053C31.7679 20.5138 32.8526 21.285 33.3175 21.285H34.0924C34.8672 21.285 36.1069 20.0511 36.1069 19.2799C36.1069 18.9714 35.9519 18.8172 35.9519 18.3544V18.046C35.9519 17.5832 36.7267 16.9663 36.7267 16.0408C36.7267 14.9611 34.7122 12.8017 34.0924 12.339C34.2473 13.1102 36.4168 14.3442 36.4168 15.7323V16.0408C36.4168 16.3493 35.9519 17.1205 35.797 17.2748C35.487 17.8917 35.642 18.2002 35.642 18.9714C35.642 19.5884 34.5572 20.5138 33.7824 20.5138H33.3175C31.458 20.5138 30.5282 17.7375 29.9083 17.7375H29.5984C28.5137 17.7375 28.6686 19.5884 27.5839 19.5884C26.1892 19.5884 24.6396 18.3544 23.2449 18.3544H23.0899C22.3151 18.3544 19.6807 20.3596 18.9059 20.8223C19.0609 20.3596 20.4555 19.4341 20.7655 19.1257C21.3853 18.6629 23.0899 18.046 23.2449 17.8917C22.4701 17.8917 21.2304 18.3544 20.7655 18.6629C20.1456 18.9714 18.9059 19.7426 18.7509 19.8969C19.5258 18.8172 23.2449 16.9663 25.1045 16.9663C23.2449 16.9663 22.625 17.1205 21.0754 17.429C20.4555 17.5832 19.9907 17.8917 19.5258 18.2002C19.2158 18.3544 18.2861 19.1257 18.1311 19.1257C19.2158 17.429 21.3853 16.812 23.7098 16.1951C25.2594 15.7323 29.4434 14.9611 30.0633 14.0357C29.9083 14.0357 27.5839 14.8069 27.119 14.9611C26.1892 15.2696 24.7945 15.2696 23.8647 15.5781C22.78 15.8866 21.8502 16.0408 20.7655 16.3493C20.3006 16.5035 19.8357 16.812 19.3708 16.9663C19.0609 17.1205 18.441 17.5832 18.1311 17.7375C19.6807 15.4239 25.7243 14.4984 26.3442 13.4187C25.8793 13.573 24.7945 14.0357 24.1747 14.1899C23.3999 14.4984 22.625 14.6526 21.8502 14.8069C21.2304 14.9611 20.1456 15.4239 19.6807 15.5781C19.2158 15.8866 17.9761 16.812 17.9761 16.812C18.7509 15.4239 19.8357 14.9611 21.2304 14.3442C21.8502 14.0357 24.9495 12.956 25.2594 12.4933C24.4846 12.4933 23.0899 12.956 22.3151 13.1102C22.3151 13.7272 22.0052 13.8814 21.5403 14.0357C21.0754 14.1899 20.6105 14.4984 20.3006 14.6526C21.0754 13.573 26.4991 11.7221 26.964 10.9508C26.6541 10.9508 25.7243 11.5678 25.2594 11.7221C24.7945 12.0305 24.1747 12.1848 23.5548 12.4933C22.3151 12.956 21.3853 13.4187 20.3006 14.0357C19.3708 14.4984 18.441 15.5781 17.8212 16.3493C17.5112 16.9663 16.5815 18.8172 16.5815 19.8969ZM17.0463 17.429C17.3563 17.2748 17.9761 15.7323 18.441 15.2696C19.0609 14.6526 19.6807 14.1899 20.4555 13.573C21.6953 12.6475 23.7098 11.7221 25.1045 10.9508C26.6541 10.1796 28.3587 9.25419 29.7534 8.32874C30.3732 7.86601 31.303 7.40329 32.2328 7.0948C33.0076 6.94056 34.2473 6.32359 34.4023 5.55239C33.9374 5.86087 33.3175 6.32359 32.6977 6.47784C31.9229 6.63208 31.148 7.24904 30.8381 7.24904C31.303 6.47784 31.9229 5.86087 32.2328 4.78118C31.7679 5.2439 31.6129 5.86087 31.458 6.16935C31.303 6.47784 30.9931 6.78632 30.6832 7.0948C30.0633 7.55753 29.1335 8.17449 28.5137 8.48298C26.964 9.25419 25.5693 10.1796 24.0197 10.7966C22.4701 11.5678 21.0754 12.339 19.6807 13.4187C18.9059 13.8814 18.596 14.3442 17.9761 15.1154C17.8212 15.4239 17.2013 16.9663 17.0463 17.429ZM24.4846 8.9457C24.4846 8.63722 24.6396 8.63722 24.6396 8.17449V7.55753C24.6396 7.40329 24.4846 6.94056 24.3296 6.78632C24.3296 9.40843 23.5548 9.71691 21.8502 10.6424C21.3853 10.9508 18.2861 13.2645 17.9761 13.2645C18.2861 12.8017 20.3006 11.2593 20.7655 10.7966C21.6953 10.0254 22.625 8.9457 22.625 7.40329C22.3151 7.86601 22.3151 8.32874 22.0052 8.79146C21.6953 9.25419 21.3853 9.56267 20.9204 9.87115C20.9204 9.56267 21.0754 9.40843 21.0754 9.09994C21.0754 8.63722 20.9204 8.32874 20.6105 8.02025C20.6105 8.17449 20.6105 8.32874 20.6105 8.48298V9.09994C20.6105 10.0254 18.7509 11.5678 18.1311 12.0305C17.3563 12.6475 16.1166 14.1899 16.1166 15.5781V16.0408L16.2715 17.429H16.4265C16.4265 15.1154 17.5112 14.0357 18.9059 13.1102C20.1456 12.1848 21.6953 11.2593 22.935 10.3339C24.3296 9.40843 25.5693 8.63722 26.964 7.55753C27.5839 7.0948 28.3587 6.47784 28.8236 6.01511C29.1335 5.70663 29.1335 5.2439 29.2885 4.78118C29.2885 4.16421 29.5984 4.00997 29.9083 3.54724C29.2885 3.70149 29.2885 4.78118 28.9785 5.2439C28.8236 5.70663 28.0488 6.16935 27.5839 6.47784C27.119 7.0948 24.7945 8.79146 24.4846 8.9457ZM26.964 12.6475C27.8938 12.6475 30.9931 11.7221 31.148 11.1051H30.8381C30.6831 11.1051 29.1335 11.7221 28.8236 11.8763C28.6686 12.0305 27.2739 12.4933 26.964 12.6475ZM26.6541 5.39814C26.1892 5.39814 25.5694 4.62694 25.2594 4.62694H25.1045C24.3296 4.62694 23.5548 5.86087 22.78 5.86087C22.0052 5.86087 21.6953 5.55239 21.2304 5.55239H20.7655C19.2158 5.55239 20.1456 9.25419 19.2158 9.25419C18.9059 9.25419 18.7509 9.09994 18.596 9.09994C17.5112 9.09994 16.5815 12.6475 16.5815 14.1899C16.5815 13.1102 17.0463 11.8763 17.5112 11.1051C18.2861 9.56267 18.9059 10.4881 19.8357 9.40843C20.7655 8.48298 19.6807 6.78632 21.0754 6.63208C21.6953 6.63208 22.4701 6.63208 23.0899 6.63208C23.7098 6.47784 24.3296 5.86087 24.4846 5.86087H25.1045C25.5693 5.86087 26.1892 6.16935 26.8091 6.16935C28.9786 6.16935 29.4434 2.62179 30.6832 2.62179H31.303C32.0778 2.62179 32.8526 3.08452 33.7824 3.08452C34.7122 3.08452 35.642 3.23876 35.9519 3.70149C36.4168 4.47269 36.2618 5.2439 36.5718 6.01511C36.7267 6.47784 37.5016 7.40329 38.2764 7.40329H38.8962C39.671 7.40329 41.2207 6.16935 42.1505 6.16935H42.4604C43.2352 6.16935 44.9398 9.09994 44.9398 10.0254C44.9398 10.7966 43.8551 11.2593 43.3902 11.5678C44.01 11.5678 45.0948 10.7966 45.0948 10.1796V9.87115C45.0948 8.79146 44.6299 7.71177 44.165 6.94056C43.8551 6.16935 43.3902 4.78118 42.4604 4.78118H42.1505C41.6856 4.78118 39.826 5.86087 39.3611 6.16935C38.7413 6.47784 38.2764 6.47784 37.8115 5.86087C37.3466 5.2439 37.6565 4.93542 37.5016 4.00997C36.8817 3.393 36.8817 3.08452 36.2618 2.77604C35.797 2.46755 35.1771 2.46755 34.4023 2.46755C33.6275 2.46755 32.8526 2.46755 32.3878 2.31331C32.0778 2.31331 30.8381 1.85059 30.6832 1.85059C28.2037 2.00483 28.0488 5.39814 26.6541 5.39814ZM39.2062 10.7966C39.2062 10.1796 39.2062 9.56267 39.826 9.56267H39.981C40.7558 9.56267 42.1505 10.3339 42.9253 10.3339C42.7703 10.1796 40.1359 9.09994 39.981 9.09994C39.0512 9.09994 38.8962 10.0254 39.2062 10.7966ZM45.0948 9.87115C45.0948 11.2593 43.8551 11.4136 43.2352 11.8763C44.32 11.8763 45.4047 11.4136 45.4047 10.4881V9.71691C45.4047 9.25419 44.01 7.24904 43.7001 6.94056C43.8551 7.71177 45.0948 8.9457 45.0948 9.87115ZM38.5863 16.1951V16.3493C38.5863 18.046 39.5161 19.2799 41.3756 19.2799H42.4604L44.6299 19.1257L44.9398 19.7426C44.9398 18.8172 44.4749 18.6629 43.7001 18.6629C42.9253 18.6629 42.3054 18.6629 41.5306 18.6629C39.981 18.6629 39.2062 17.8917 39.2062 16.3493V16.1951C39.2062 14.8069 39.981 14.3442 40.1359 13.573C39.5161 13.8814 38.5863 15.2696 38.5863 16.1951ZM42.6154 24.0614V24.6784C42.6154 25.1411 43.0802 26.0665 43.0802 26.5293C43.0802 27.3005 42.9253 27.7632 42.9253 28.3801C43.0802 28.8429 43.5451 29.3056 44.165 29.3056C44.7848 29.3056 45.2497 28.8429 45.4047 28.8429C46.0246 28.8429 45.8696 29.4598 46.1795 29.7683C46.1795 29.1514 46.0246 28.5344 45.5597 28.5344H45.2497C44.7848 28.5344 44.4749 28.6886 44.165 28.6886C43.8551 28.6886 43.3902 28.3802 43.3902 28.0717V27.7632C43.3902 27.3005 43.5451 27.3005 43.5451 26.8377C43.5451 26.0665 43.0802 25.4496 43.0802 24.5241C43.0802 23.9071 43.8551 23.4444 44.4749 23.4444H44.7848C45.2497 23.4444 45.5597 23.7529 45.7146 24.0614C45.5597 23.5987 45.0948 23.1359 44.4749 23.1359H43.7001C43.2352 22.8275 42.6154 23.4444 42.6154 24.0614ZM44.9398 27.4547C46.0246 27.4547 46.3345 27.4547 46.7994 27.9174C47.2643 28.3801 47.5742 28.6886 47.5742 29.6141V29.9226C47.5742 31.465 45.5597 32.0819 45.5597 34.3956V34.8583C45.5597 35.6295 46.1795 36.7092 46.1795 37.4804C46.1795 38.2516 45.4047 39.4855 44.7848 39.4855C43.8551 39.4855 43.5451 38.2516 43.3902 37.9431C43.3902 39.0228 44.32 39.9483 45.4047 39.9483H45.5597C46.4894 39.9483 47.1093 38.5601 47.1093 37.6346C47.1093 36.555 46.6444 35.321 46.6444 34.2413V33.9328C46.6444 32.6989 48.349 31.3107 48.349 29.9226C48.349 28.6886 47.2643 27.3005 46.0246 27.3005H45.5597C45.0948 27.3005 45.0948 27.3005 44.9398 27.4547ZM25.5693 44.884C26.0342 44.884 26.0342 44.7298 26.3442 44.5755C26.4991 45.0382 27.2739 46.2722 27.7388 46.2722C29.1335 46.2722 31.303 45.9637 31.9229 46.8891C32.3878 47.6604 33.3175 49.2028 34.4023 49.2028H34.7122C35.3321 49.2028 35.9519 48.74 36.4168 48.4316C37.1916 47.8146 37.1916 48.1231 38.2764 48.1231C39.826 48.1231 38.4313 44.884 39.3611 44.884C40.1359 44.884 40.9108 45.8095 41.8405 45.8095H42.3054C42.9253 45.8095 43.3902 44.884 43.7001 44.267C43.8551 43.9586 44.6299 42.7246 44.6299 42.4161C44.6299 41.9534 43.8551 41.6449 43.5451 41.6449C43.7001 41.7992 44.165 41.9534 44.165 42.2619C44.165 42.2619 43.2352 43.4958 43.0802 43.6501C42.7703 43.9586 42.4604 44.884 41.8405 44.884H41.6856C40.7558 44.884 40.4459 44.267 39.5161 44.267C37.9664 44.267 38.8962 46.7349 38.1214 46.8891C37.3466 47.0434 37.0367 46.7349 36.2618 47.1976C35.9519 47.3519 35.487 47.9688 35.0221 47.9688H34.8672C34.0924 47.9688 33.1626 46.4264 32.5427 45.9637C31.303 45.0382 30.6831 45.501 28.9785 45.501H28.6686C27.2739 45.501 27.4289 43.9586 26.964 43.9586H26.8091C26.4991 43.9586 26.3442 44.4213 26.1892 44.4213H26.0342C24.4846 44.4213 23.7098 38.0974 22.78 37.4804C22.935 38.0974 23.2449 38.8686 23.3999 39.6398C23.5548 40.2568 23.7098 41.1822 24.0197 41.7992C24.1747 42.2619 24.6396 43.3416 24.7945 43.6501C24.6396 44.1128 24.4846 44.884 25.5693 44.884ZM41.6856 37.1719V38.4059C41.2207 39.0228 39.826 40.2568 39.826 41.1822C39.826 41.6449 40.2909 42.4161 40.7558 42.4161C41.5306 42.4161 41.8405 41.7992 41.9955 41.7992C42.6154 41.7992 42.7703 42.4161 42.9253 42.5704C42.9253 42.1077 42.4604 41.4907 42.1505 41.4907H41.8405C41.5306 41.4907 41.2207 41.7992 41.0657 41.7992C40.7558 41.7992 40.4459 41.4907 40.4459 41.1822C40.4459 40.2568 42.4604 39.4855 42.4604 38.2516V38.0974C42.4604 37.7889 42.3054 37.7889 42.3054 37.3262V37.0177C42.3054 36.7092 42.7703 36.2465 42.9253 36.2465H43.0802C44.01 36.2465 44.01 37.1719 44.32 37.4804C44.32 36.555 43.8551 35.6295 43.0802 35.6295H42.7703C42.1505 35.7837 41.5306 36.555 41.6856 37.1719ZM36.8817 44.267V44.4213C36.8817 44.7298 37.0367 45.3467 37.1916 45.6552C37.1916 43.9586 37.1916 43.0331 38.8962 43.0331H39.981C40.1359 43.0331 40.4459 43.1873 40.6008 43.1873C40.4459 42.7246 39.3611 42.5704 38.7413 42.5704C37.8115 42.7246 36.8817 43.3416 36.8817 44.267ZM16.7364 29.1514C15.9616 29.1514 15.4967 28.5344 15.0318 28.5344H14.8769C14.412 28.5344 12.8623 29.9226 12.5524 30.2311C11.9325 31.0023 11.4677 32.0819 11.4677 33.3159V34.0871L11.6226 35.0125C11.6226 33.6244 12.3974 31.0023 13.4822 30.6938C13.4822 31.0023 13.1723 31.3107 13.1723 31.6192C13.0173 31.9277 13.0173 32.2362 12.8623 32.5447C12.7074 33.1616 12.5524 34.0871 12.5524 34.8583V35.4753C12.5524 35.938 12.8623 37.4804 13.1723 37.6346L12.8623 35.321C12.8623 33.9328 13.4822 31.7735 14.257 31.3107C13.9471 32.3904 13.6371 33.4701 13.6371 34.8583V35.7838C13.6371 37.1719 13.9471 39.794 14.7219 40.2568C14.5669 39.4855 14.102 39.4855 14.102 38.2516C14.102 37.3262 14.102 36.555 14.102 35.6295C14.102 34.2413 14.412 32.0819 15.0318 31.3107C15.0318 31.7735 14.7219 33.3159 14.5669 33.9328C14.412 34.7041 14.412 35.938 14.5669 36.8634C14.7219 38.4059 15.9616 39.9483 16.8914 40.7195C18.1311 41.6449 19.5258 42.1077 20.7655 42.8789C21.2304 43.1873 24.3296 45.1925 24.4846 45.1925C23.8647 44.267 20.1456 42.4161 18.9059 41.7992C17.0463 40.7195 15.0318 39.4855 15.0318 36.555V35.938L15.6517 31.9277H15.8066C15.8066 35.0125 16.2715 36.0922 17.5112 37.7889C18.1311 38.5601 18.7509 39.0228 19.5258 39.6398C19.8357 39.794 21.6953 41.028 21.8502 41.1822C21.6953 41.028 20.1456 39.794 19.6807 39.4855C18.9059 39.0228 18.2861 38.2516 17.8212 37.6346C16.5815 35.7837 16.2715 34.5498 16.2715 31.6192C16.2715 31.6192 17.0463 33.6244 17.3563 34.0871C17.8212 35.0125 18.2861 35.321 18.7509 36.0922C19.2158 36.555 19.9907 37.3262 20.4555 37.7889C20.9204 38.2516 21.8502 39.1771 22.1601 39.4855C22.0052 39.0228 19.6807 36.8634 19.0609 36.0922C18.2861 35.1668 17.0463 33.1616 17.0463 31.6192C17.3563 32.0819 17.6662 32.8532 18.1311 33.4701C18.596 34.0871 19.0609 34.5498 19.5258 35.0125C20.3006 35.938 21.6953 36.8634 22.935 37.4804C24.3296 38.0974 25.5693 38.7143 26.964 39.3313C27.7388 39.6398 30.3732 41.3364 30.8381 41.4907C30.3732 40.7195 28.2037 39.6398 27.274 39.1771C26.0342 38.5601 24.6396 37.9431 23.3999 37.1719C22.3151 36.555 20.9204 35.4753 20.1456 34.5498C19.5258 33.9328 17.9761 31.9277 17.9761 30.848C18.2861 31.1565 18.441 31.6192 18.7509 31.9277C19.0609 32.2362 19.2158 32.5447 19.5258 33.0074C19.9907 33.6244 20.7655 34.3956 21.3853 34.8583C22.78 35.938 24.0197 37.1719 26.0342 37.6346C28.2037 38.0974 29.9083 38.5601 31.303 39.9483C32.3877 41.028 33.6275 43.0331 33.6275 45.1925C33.6275 43.8043 33.4725 43.0331 33.1626 41.9534C34.2473 42.4161 34.4023 43.1873 36.1069 43.1873C35.9519 43.0331 35.0221 42.7246 34.7122 42.5704C34.2473 42.4161 33.7824 41.9534 33.4725 41.7992C33.0076 41.4907 32.6977 41.1822 32.3878 40.7195C32.2328 40.411 31.7679 39.794 31.458 39.4855C29.5984 37.7889 28.2037 37.7889 25.7243 37.0177C24.0197 36.555 22.0052 34.7041 20.9204 33.6244C19.5258 32.2362 18.441 30.5395 17.9761 28.3801C17.8212 28.5344 17.5112 29.1514 16.7364 29.1514ZM14.5669 20.3596V20.8223L14.8769 22.3647C14.412 21.902 14.102 20.6681 14.102 19.7426V18.9714C14.102 18.3544 14.412 17.7375 14.5669 17.2748C14.102 17.5832 13.6371 19.4341 13.6371 20.2053V20.3596C13.6371 20.8223 13.7921 21.1308 13.7921 21.5935C13.9471 21.902 14.102 22.3647 14.102 22.6732C13.4822 21.902 12.8623 20.5138 12.8623 19.1257V18.9714C12.8623 18.6629 13.0173 18.6629 13.0173 18.3544C12.7074 18.5087 12.5524 19.2799 12.5524 19.8969V20.0511C12.5524 22.0562 13.3272 22.0562 13.6371 23.1359C13.3272 23.1359 12.3974 22.3647 12.2425 22.0562C11.1577 21.285 11.6226 21.285 11.1577 20.6681C11.1577 22.3647 12.5524 22.8275 13.1723 23.7529C12.8623 23.5987 12.2425 23.1359 11.7776 22.9817C11.3127 22.8275 10.5379 22.3647 10.2279 22.3647L12.7074 24.2156C11.7776 24.0614 11.4677 23.9071 10.073 23.9071L12.0875 24.6784C11.6226 24.6784 11.7776 24.5241 11.3127 24.5241H10.6928L10.073 24.6784L12.0875 25.1411V25.2953H11.6226C10.8478 25.2953 9.76305 25.758 9.60809 26.375C10.2279 26.0665 11.0028 25.758 11.9325 25.758C11.6226 26.0665 10.8478 26.2208 10.3829 26.6835C10.073 26.992 9.45312 27.6089 9.45312 28.2259C10.6928 26.6835 11.1577 26.6835 13.1723 25.9123C13.4822 25.758 13.9471 25.6038 14.102 25.4496C14.5669 25.1411 14.412 24.9868 14.7219 24.5241C15.0318 23.7529 15.3417 23.2902 16.4265 23.2902C15.9616 22.519 15.1868 21.1308 15.3417 19.7426L15.6517 17.429C15.0318 17.5832 14.5669 19.4341 14.5669 20.3596ZM15.1868 40.7195V41.028C15.1868 41.9534 17.2013 43.3416 17.2013 43.6501C17.2013 44.267 15.9616 45.1925 15.9616 46.2722V46.4264C15.9616 47.8146 18.2861 49.357 19.2158 49.974C19.6807 50.2825 21.0754 50.8994 21.8502 50.7452C22.78 50.591 22.78 48.8943 23.3999 48.8943C24.1747 48.8943 24.3296 51.5164 26.3442 51.5164C26.964 51.5164 28.0488 51.2079 28.0488 50.5909V50.4367C28.0488 49.6655 26.964 49.0485 26.964 48.4316V48.1231C26.964 47.8146 27.4289 47.3519 27.7388 47.3519C28.3587 47.3519 28.8236 47.8146 29.5984 47.9688C29.2885 47.6604 27.8938 47.0434 27.274 47.0434C26.8091 47.0434 26.3442 47.8146 26.3442 48.1231C26.3442 48.8943 27.274 49.5113 27.274 49.974C27.274 50.4367 26.964 50.8994 26.6541 50.8994C24.6396 50.8994 24.4846 48.2773 23.5548 48.2773C22.3151 48.2773 23.5548 50.7452 19.8357 49.2028C19.0609 48.8943 16.8914 47.1976 16.8914 46.4264C16.8914 45.1925 18.7509 44.1128 17.6662 43.0331C17.2013 42.5704 16.7364 42.2619 16.4265 41.9534C15.9616 41.4907 15.4967 40.411 15.4967 40.411C15.1868 40.411 15.1868 40.411 15.1868 40.7195ZM32.0778 10.4881C32.0778 13.573 32.3878 14.6526 30.3732 16.1951C29.5984 16.812 28.8236 17.1205 27.7388 17.429C27.2739 17.5832 24.7945 18.046 24.6396 18.2002C26.0342 18.2002 28.0488 17.7375 29.1335 17.5832C31.303 16.9663 31.6129 17.429 33.0076 18.3544C33.0076 18.046 32.2328 17.429 32.0778 17.2748C31.6129 16.812 31.458 16.6578 30.5282 16.6578C30.9931 16.0408 31.303 16.0408 31.7679 15.2696C32.0778 14.4984 32.2328 14.0357 32.3878 13.2645C32.8526 13.8814 32.8526 14.1899 33.4725 14.8069C33.7824 15.1154 34.7122 15.7323 35.0221 15.8866C34.0924 14.4984 32.2328 13.2645 32.2328 11.1051V10.7966C32.2328 9.87115 33.1626 8.79146 34.0924 8.79146H35.0221C35.3321 8.79146 36.4168 9.09994 36.5718 9.25419C36.2618 9.71691 35.642 10.9508 35.642 11.4136V11.7221C35.642 12.1848 36.2618 12.4933 36.7267 12.4933H37.1916L40.9108 12.0305C41.2207 12.0305 41.8405 12.4933 41.8405 12.8017C41.8405 13.573 40.1359 14.1899 40.1359 15.4239V15.8866C40.1359 18.8172 46.1795 17.429 46.1795 18.8172V19.1257C46.1795 19.7426 45.4047 20.5138 45.4047 21.1308C45.4047 22.8275 47.5742 22.519 47.5742 23.4444V23.7529C47.5742 24.2156 47.1093 25.1411 46.6444 25.1411C45.7146 25.1411 45.0948 24.6784 44.32 24.6784V24.9868C44.7848 25.1411 45.8696 25.6038 46.3345 25.6038H47.1093C47.8841 25.6038 48.349 24.5241 48.349 23.7529V23.4444C48.349 22.6732 46.0246 22.2105 46.0246 21.4393C46.0246 20.9766 47.1093 20.3596 47.1093 19.5884C47.1093 18.046 45.8696 17.2748 44.4749 17.2748C43.2352 17.2748 41.0657 16.812 41.0657 15.7323V15.5781C41.0657 14.6526 42.9253 14.0357 42.9253 12.956C42.9253 12.339 41.8405 11.4136 41.0657 11.4136H40.6008L36.8817 11.8763C36.7267 11.8763 36.4168 11.7221 36.4168 11.5678C36.4168 10.7966 37.3466 10.0254 37.3466 9.25419C37.3466 8.63722 35.3321 8.17449 34.5572 8.17449H34.7122C33.3175 8.17449 32.0778 9.09994 32.0778 10.4881Z" fill="#827AFF"/>
<path d="M139.104 56.8097V57.1182C139.259 57.1182 139.879 57.1182 140.189 57.1182C140.653 57.1182 141.273 57.1182 141.428 57.1182V56.8097L141.118 56.6555C140.963 56.6555 140.808 56.5013 140.808 56.1928C140.808 56.0385 140.808 56.0385 140.808 56.0385C141.118 55.5758 142.513 54.1877 142.978 53.8792C142.978 54.6504 142.978 55.8843 142.978 56.5013C142.978 56.6555 142.978 56.8098 142.358 56.964V57.2725C142.513 57.2725 142.978 57.2725 143.288 57.2725C143.753 57.2725 144.218 57.2725 144.528 57.2725C144.528 57.2725 144.682 56.964 144.528 56.964C144.373 56.964 144.063 56.964 143.908 56.8097C143.753 56.8097 143.753 56.6555 143.598 56.5013C143.598 55.8843 143.598 54.0334 143.598 53.2622C143.598 53.108 143.598 52.9537 143.753 52.9537C143.908 52.9537 144.063 52.9537 144.218 52.7995V52.491C144.063 52.491 143.443 52.491 143.133 52.491C142.668 52.491 142.358 52.491 142.048 52.491V52.7995C142.203 52.7995 142.358 52.7995 142.358 52.7995C142.513 52.7995 142.513 52.9537 142.513 53.108V53.2622C142.203 53.7249 140.808 55.1131 140.498 55.4216C140.498 54.9589 140.498 53.5707 140.498 53.108C140.498 52.7995 140.653 52.7995 140.808 52.7995C140.963 52.7995 141.118 52.7995 141.273 52.7995V52.491C141.118 52.491 140.808 52.491 140.034 52.491C139.414 52.491 139.104 52.491 138.949 52.491V52.7995C139.104 52.7995 139.259 52.7995 139.414 52.7995C139.569 52.7995 139.724 52.9537 139.724 53.108C139.724 53.5707 139.724 54.0334 139.724 54.4961C139.724 55.1131 139.724 55.5758 139.724 56.1928C139.724 56.5013 139.724 56.6555 139.414 56.8097C139.569 56.6555 139.259 56.8097 139.104 56.8097ZM137.864 56.1928V55.8843C137.399 56.347 136.934 56.5013 136.469 56.5013C135.85 56.5013 135.385 56.347 135.075 55.8843C134.765 55.5758 134.61 54.9589 134.61 54.3419C134.61 53.5707 135.075 52.6452 135.85 52.6452C136.469 52.6452 136.934 53.108 137.244 53.2622H137.399C137.554 53.2622 137.709 52.9537 137.864 52.7995V52.6452C137.864 52.491 137.709 52.491 137.554 52.3368C137.399 52.1825 137.089 52.1825 136.624 52.1825C136.314 52.1825 135.54 52.3367 135.075 52.6452C134.3 53.108 133.835 53.8792 133.835 54.8046C133.835 55.4216 133.99 56.0385 134.3 56.347C134.765 56.964 135.23 57.1182 136.005 57.1182C136.469 57.2725 137.244 56.964 137.864 56.1928ZM130.581 54.8046C130.581 54.9589 130.581 55.7301 130.581 56.0385C130.581 56.1928 130.581 56.1928 130.426 56.347C130.271 56.5013 129.961 56.5013 129.806 56.5013C129.341 56.5013 129.031 56.1928 129.031 55.7301C129.031 55.5758 129.031 55.4216 129.186 55.2673C129.186 55.1131 129.961 54.9589 130.581 54.8046C130.426 54.6504 130.581 54.8046 130.581 54.8046ZM130.581 53.8792C130.581 54.0334 130.581 54.0334 130.581 54.1876V54.3419C130.116 54.4961 128.721 54.9589 128.256 55.1131C128.256 55.2673 128.101 55.5758 128.101 55.7301C128.101 56.1928 128.256 56.5013 128.566 56.8097C128.721 56.964 129.031 57.1182 129.186 57.1182C129.496 57.1182 129.961 56.8098 130.581 56.5013C130.581 56.6555 130.581 56.6555 130.736 56.8097C130.891 56.964 131.046 57.1182 131.356 57.1182C131.666 57.1182 132.13 56.964 132.285 56.6555V56.347C132.13 56.347 132.13 56.347 131.82 56.347C131.511 56.347 131.356 56.1928 131.356 55.8843C131.356 55.4216 131.356 54.4961 131.356 53.8792C131.356 53.4164 131.356 52.9537 131.046 52.6452C130.736 52.1825 130.426 52.0283 129.806 52.0283C129.496 52.0283 128.721 52.3367 128.256 52.6452C128.256 52.6452 127.946 53.2622 127.946 53.4164C127.946 53.5707 128.256 53.7249 128.256 53.7249C128.411 53.2622 128.566 52.9537 128.721 52.7995C128.721 52.7995 128.876 52.6452 129.186 52.6452C129.496 52.6452 129.961 52.7995 130.116 53.108C130.426 53.4164 130.581 53.7249 130.581 53.8792ZM123.762 52.7995C124.227 52.7995 124.537 52.9537 124.847 53.2622C125.157 53.5707 125.312 54.1877 125.312 54.6504C125.312 55.2673 125.157 55.8843 124.692 56.1928C124.382 56.5013 124.072 56.5013 123.917 56.5013C123.452 56.5013 123.143 56.347 122.988 56.1928C122.833 56.0385 122.833 55.8843 122.678 55.5758C122.678 55.1131 122.678 53.5707 122.678 53.2622C122.678 53.108 122.678 53.108 122.833 52.9537C122.988 52.9537 123.452 52.7995 123.762 52.7995ZM120.973 52.7995C121.283 52.7995 121.438 52.9537 121.593 52.9537C121.748 52.9537 121.748 53.108 121.748 53.4164C121.748 53.8792 121.748 54.3419 121.748 55.8843C121.748 57.8894 121.748 58.5064 121.748 58.9691C121.748 59.4319 121.593 59.4319 121.438 59.5861L120.973 59.7403V60.0488C121.438 60.0488 122.213 59.8946 123.297 59.8946H123.762C123.762 59.8946 123.917 59.5861 123.762 59.5861C123.452 59.5861 123.143 59.5861 122.988 59.4319C122.678 59.4319 122.678 59.2776 122.678 58.9691C122.678 58.5064 122.678 57.8894 122.678 57.1182C122.833 57.1182 122.988 57.1182 123.143 57.1182C123.762 57.1182 124.537 56.8098 125.157 56.347C125.777 55.8843 126.242 55.1131 126.242 54.1876C126.242 53.7249 126.087 53.108 125.622 52.6452C125.312 52.3367 124.847 52.0283 124.382 52.0283C123.917 52.0283 123.452 52.1825 122.678 52.7995C122.678 52.6452 122.678 52.1825 122.678 52.0283C122.678 52.0283 122.678 51.874 122.523 51.874C122.058 52.1825 121.283 52.3368 120.973 52.491C120.818 52.6452 120.818 52.7995 120.973 52.7995ZM114.929 56.8097V57.1182C115.084 57.1182 115.704 57.1182 116.169 57.1182C116.324 57.1182 117.099 57.1182 117.254 57.1182V56.8097C117.099 56.8097 116.944 56.8097 116.789 56.8097C116.634 56.8097 116.479 56.6555 116.479 56.5013C116.479 56.1928 116.479 55.4216 116.479 54.9589C116.789 54.9589 117.099 55.1131 117.254 55.5758C117.719 56.1928 117.874 56.5013 118.184 56.964C118.339 57.2725 118.649 57.2725 118.959 57.2725C119.423 57.2725 119.888 57.2725 120.043 57.2725V56.964C119.423 56.964 119.268 56.8098 118.959 56.5013C118.649 56.0385 118.339 55.5758 118.029 55.1131C117.874 54.9589 117.719 54.8046 117.564 54.6504C117.719 54.4961 118.029 54.1876 118.184 53.7249C118.494 53.2622 118.649 53.108 118.804 53.108C118.959 53.108 119.113 53.108 119.268 53.2622C119.268 53.2622 119.268 53.2622 119.423 53.2622C119.423 53.108 119.578 52.491 119.578 52.491C119.423 52.3368 119.268 52.3368 119.113 52.3368C118.804 52.3368 118.339 52.491 117.874 53.5707C117.719 53.8792 117.564 54.1876 117.409 54.3419C117.254 54.4961 117.099 54.4961 116.634 54.6504V53.108C116.634 52.9537 116.789 52.7995 116.944 52.7995C117.099 52.7995 117.254 52.7995 117.409 52.7995V52.491C117.254 52.491 116.944 52.491 116.169 52.491C115.549 52.491 115.239 52.491 115.084 52.491V52.7995C115.239 52.7995 115.394 52.7995 115.549 52.7995C115.704 52.7995 115.859 52.9537 115.859 53.108C115.859 53.2622 115.859 54.0334 115.859 54.6504C115.859 55.2673 115.859 56.347 115.859 56.5013C115.859 56.6555 115.704 56.8097 115.549 56.8097C115.239 56.6555 115.084 56.8097 114.929 56.8097ZM105.787 56.8097V57.1182C105.942 57.1182 106.406 57.1182 106.871 57.1182C107.491 57.1182 107.956 57.1182 108.111 57.1182V56.8097L107.646 56.6555C107.491 56.6555 107.336 56.5013 107.336 56.1928V54.8046H109.506C109.506 55.2673 109.506 55.8843 109.506 56.1928C109.506 56.347 109.506 56.5013 109.196 56.5013C109.041 56.5013 108.886 56.5013 108.731 56.6555V56.964C108.886 56.964 109.506 56.964 109.971 56.964C110.436 56.964 110.745 56.964 111.21 56.964C111.21 56.964 111.365 56.6555 111.21 56.6555L110.745 56.5013C110.59 56.5013 110.436 56.347 110.436 56.0385C110.436 55.7301 110.436 54.9589 110.436 54.3419C110.436 53.7249 110.436 53.108 110.436 52.7995C110.436 52.491 110.59 52.491 110.745 52.3368C110.9 52.3368 111.055 52.3368 111.055 52.3368V52.0283C110.9 52.0283 110.436 52.0283 109.971 52.0283C109.351 52.0283 109.041 52.0283 108.886 52.0283V52.3368C109.041 52.3368 109.196 52.3368 109.351 52.491C109.506 52.491 109.661 52.6452 109.661 52.7995C109.661 52.7995 109.661 53.8792 109.661 54.0334C109.506 54.0334 109.041 54.0334 108.576 54.0334H107.646V52.7995C107.646 52.6452 107.801 52.491 107.956 52.491C108.111 52.491 108.266 52.491 108.421 52.491V52.1825C108.266 52.1825 107.956 52.1825 107.336 52.1825C106.716 52.1825 106.406 52.1825 106.251 52.1825V52.491C106.406 52.491 106.561 52.491 106.716 52.491C106.871 52.491 107.026 52.6452 107.026 52.7995C107.026 53.108 107.026 53.8792 107.026 54.3419C107.026 54.9589 107.026 55.5758 107.026 56.0385C107.026 56.347 107.026 56.5013 106.716 56.5013L105.787 56.8097ZM101.448 52.6452C102.532 52.6452 103.152 53.5707 103.152 54.9589C103.152 55.7301 102.997 56.1928 102.687 56.5013C102.532 56.6555 102.222 56.8097 101.913 56.8097C100.983 56.8097 100.208 55.8843 100.208 54.3419C100.208 53.4164 100.518 52.9537 100.828 52.7995C100.983 52.6452 101.293 52.6452 101.448 52.6452ZM101.913 52.1825C101.293 52.1825 100.828 52.3367 100.363 52.6452C99.743 53.108 99.2781 53.7249 99.2781 54.6504C99.2781 55.8843 99.898 57.2725 101.758 57.2725C102.222 57.2725 102.842 56.964 103.152 56.8097C103.927 56.347 104.237 55.5758 104.237 54.6504C104.082 53.2622 103.307 52.1825 101.913 52.1825ZM92.6147 56.8097V57.1182C92.7696 57.1182 93.2345 57.1182 93.5445 57.1182C93.8544 57.1182 94.4742 57.1182 94.6292 57.1182V56.8097C94.4742 56.8097 94.3193 56.8097 94.1643 56.6555C94.0094 56.6555 93.8544 56.5013 94.0094 56.0385C94.1643 55.5758 94.7842 53.8792 94.7842 53.5707C94.9391 54.0334 95.714 55.7301 95.8689 56.347C95.8689 56.5013 95.8689 56.5013 95.8689 56.5013C95.714 56.5013 95.559 56.6555 95.559 56.6555V56.964C95.714 56.964 96.1788 56.964 96.6437 56.964C96.9537 56.964 97.5735 56.964 97.8834 56.964V56.6555C97.2636 56.5013 97.2636 56.5013 96.9537 56.0385C96.6437 55.4216 95.714 53.2622 95.404 52.0283C95.404 52.0283 95.404 52.0283 95.2491 52.0283C95.2491 52.0283 94.6292 52.3368 94.4742 52.491C94.4742 52.491 94.4742 52.491 94.4742 52.6452C94.6292 52.7995 94.6292 52.9537 94.4742 53.108C94.1643 54.0334 93.5445 55.7301 93.2345 56.1928C93.3895 56.5013 93.2345 56.6555 92.6147 56.8097ZM90.1353 54.8046C90.1353 54.9589 90.1353 55.7301 90.1353 56.0385C90.1353 56.1928 90.1353 56.1928 89.9803 56.347C89.8253 56.5013 89.5154 56.5013 89.3604 56.5013C88.8956 56.5013 88.5856 56.1928 88.5856 55.7301C88.5856 55.5758 88.5856 55.4216 88.7406 55.2673C88.8956 55.1131 89.6704 54.9589 90.1353 54.8046C90.1353 54.6504 90.1353 54.8046 90.1353 54.8046ZM90.1353 53.8792C90.1353 54.0334 90.1353 54.0334 90.1353 54.1876V54.3419C89.6704 54.4961 88.2757 54.9589 87.8108 55.1131C87.8108 55.2673 87.6558 55.5758 87.6558 55.7301C87.6558 56.1928 87.8108 56.5013 88.1207 56.8097C88.2757 56.964 88.5856 57.1182 88.7406 57.1182C89.0505 57.1182 89.5154 56.8098 90.1353 56.5013C90.1353 56.6555 90.1353 56.6555 90.2902 56.8097C90.4452 56.964 90.6002 57.1182 90.9101 57.1182C91.22 57.1182 91.6849 56.964 91.8399 56.6555V56.347C91.6849 56.347 91.6849 56.347 91.375 56.347C91.065 56.347 90.9101 56.1928 90.9101 55.8843C90.9101 55.4216 90.9101 54.4961 90.9101 53.8792C90.9101 53.4164 90.9101 52.9537 90.6002 52.6452C90.2902 52.1825 89.9803 52.0283 89.3604 52.0283C89.0505 52.0283 88.2757 52.3367 87.8108 52.6452C87.8108 52.6452 87.5009 53.2622 87.5009 53.4164C87.5009 53.5707 87.8108 53.7249 87.8108 53.7249C87.9658 53.2622 88.1207 52.9537 88.2757 52.7995C88.2757 52.7995 88.4307 52.6452 88.7406 52.6452C89.0505 52.6452 89.5154 52.7995 89.6704 53.108C90.1353 53.4164 90.1353 53.7249 90.1353 53.8792ZM86.1062 56.1928V55.8843C85.6413 56.347 85.1764 56.5013 84.7115 56.5013C84.0917 56.5013 83.6268 56.347 83.3169 55.8843C83.0069 55.5758 82.852 54.9589 82.852 54.3419C82.852 53.5707 83.3169 52.6452 84.0917 52.6452C84.7115 52.6452 85.1764 53.108 85.4864 53.2622H85.6413C85.7963 53.2622 85.9512 52.9537 86.1062 52.7995V52.6452C86.1062 52.491 85.9512 52.491 85.7963 52.3368C85.6413 52.1825 85.3314 52.1825 84.8665 52.1825C84.5566 52.1825 83.7818 52.3367 83.3169 52.6452C82.542 53.108 82.0771 53.8792 82.0771 54.8046C82.0771 55.4216 82.2321 56.0385 82.542 56.347C83.0069 56.964 83.4718 57.1182 84.2466 57.1182C84.5566 57.2725 85.4864 56.964 86.1062 56.1928Z" fill="#827AFF"/>
<path d="M174.799 32.1311C173.404 31.6684 173.094 29.2005 173.404 27.8123C169.685 28.4293 162.557 39.2262 167.051 39.3805C169.685 39.5347 174.489 34.4447 174.799 32.1311ZM163.177 27.3496C163.332 26.7326 163.022 26.4242 162.247 26.4242C161.317 26.4242 159.922 27.1954 158.373 28.5835C157.133 29.6632 156.048 30.7429 155.273 31.8226C154.963 32.2853 154.499 32.9023 154.189 33.5193C154.344 33.5193 154.499 33.6735 154.809 33.6735C156.048 33.6735 157.598 33.0566 159.457 31.8226C161.627 30.2802 162.712 28.892 163.177 27.3496ZM125.21 31.2057C124.436 30.8972 123.196 29.8175 123.041 28.4293C122.111 28.7378 120.562 29.6632 118.702 32.1311C116.842 34.599 115.913 36.4499 116.068 37.6838C116.223 38.6093 116.532 39.072 117.307 39.072C118.702 39.072 120.407 37.838 122.421 35.5244C124.126 33.2108 124.901 31.9769 125.21 31.2057ZM117.152 22.5681C114.363 25.9614 110.954 27.5039 106.925 27.5039C105.065 27.5039 103.361 27.0411 101.966 26.2699C100.571 25.4987 99.9514 24.419 99.7964 23.1851C99.6414 21.6427 100.726 20.1003 102.896 18.5578C103.206 18.2494 103.516 18.0951 103.825 18.0951C103.98 18.0951 104.135 18.0951 104.135 18.2494C104.135 18.5578 103.98 18.7121 103.361 19.0206C101.656 20.4087 100.881 21.6427 100.881 23.0308C100.881 23.9563 101.501 24.8818 102.431 25.4987C103.361 26.1157 104.6 26.4242 106.15 26.4242C109.249 26.4242 112.193 25.036 114.828 22.2596C116.223 20.8715 116.842 19.1748 116.687 17.3239C116.532 15.473 115.758 13.9306 114.053 13.0051C112.658 12.2339 110.954 11.7712 108.784 11.7712C105.685 11.7712 102.586 12.5424 99.4865 13.9306C92.823 17.0154 83.6802 25.3445 84.1451 33.2108C84.3 35.8329 85.5397 37.9923 87.7092 39.5347C89.8787 41.0771 92.823 41.6941 96.3872 41.5399C103.206 41.0771 111.574 36.6041 116.068 31.5141C116.532 30.8972 116.997 30.2802 117.462 29.6632C120.097 26.4242 122.266 24.7275 123.971 24.7275C126.295 24.7275 126.915 27.9666 126.45 29.9717C127.69 29.9717 129.085 28.5835 130.169 27.1954C129.549 24.7275 131.409 21.9512 132.494 21.9512C133.269 21.9512 133.578 22.2596 133.578 22.8766C133.578 23.3393 133.269 24.1105 132.494 25.036C131.719 25.9614 131.409 26.4242 131.409 26.4242C131.409 27.0411 132.029 27.3496 132.959 27.3496C133.578 27.3496 134.198 27.1954 134.818 26.7326C135.283 26.4242 135.593 26.2699 136.058 25.9614C136.213 25.9614 136.213 25.9614 136.368 25.9614C136.678 25.9614 137.143 26.1157 137.453 26.4242C137.762 26.7326 137.917 27.0411 137.763 27.1954C136.678 28.5835 135.748 29.8175 134.663 31.0514C132.804 33.5193 131.874 35.5244 131.874 36.9126C132.029 38.3008 132.184 38.7635 133.578 38.7635C136.833 38.7635 139.777 34.4447 141.792 31.6684C142.876 29.509 144.426 27.5039 145.201 26.2699C148.61 20.7172 154.499 13.0051 156.048 13.0051C156.358 13.0051 156.668 13.1594 156.978 13.3136C157.288 13.4679 157.598 13.7763 157.598 14.0848C157.598 14.0848 156.513 15.473 154.499 18.2494C152.019 21.4884 146.75 29.2005 145.356 31.3599C143.341 34.599 142.411 36.7584 142.566 37.838C142.721 38.7635 143.341 39.2262 144.271 39.2262C146.285 39.2262 148.765 36.9126 151.709 32.9023C152.329 31.6684 153.259 30.4344 154.499 29.0463C157.133 26.1157 159.612 24.7275 161.937 24.7275C162.712 24.7275 163.332 24.8817 163.796 25.3445C164.261 25.8072 164.571 26.2699 164.571 26.7326C164.726 28.4293 163.332 30.126 160.542 31.8226C158.063 33.365 156.048 34.1362 154.344 34.1362C154.034 34.1362 153.879 34.1362 153.724 34.1362C153.259 34.9075 153.104 35.8329 153.104 36.7584C153.259 38.3008 154.034 39.072 155.583 39.072C157.133 39.072 159.147 37.9923 161.627 35.9871C163.486 34.4447 165.036 32.7481 166.276 31.0514C166.431 30.8972 166.586 30.7429 166.586 30.5887C166.896 30.2802 167.051 29.9717 167.361 29.509C169.995 26.2699 172.164 24.7275 173.869 24.7275C176.348 24.7275 176.968 27.3496 176.193 30.5887C176.193 30.7429 178.828 31.3599 182.082 28.2751L182.237 28.1208C182.857 27.1954 183.787 26.4242 184.562 25.8072C185.336 25.3445 185.801 26.1157 185.956 26.7326C185.956 26.8869 185.956 27.0411 185.801 27.3496C183.167 31.0514 181.617 33.982 181.152 35.8329C188.126 28.892 192.465 25.3445 194.169 25.3445C195.409 25.1902 196.029 25.4987 196.029 26.4242C196.029 26.5784 196.029 26.7326 196.029 26.7326C195.874 27.0411 195.409 27.8123 194.169 29.2005C192.775 30.8972 191.69 32.2853 191.07 33.365C189.985 35.0617 189.52 36.4499 189.52 37.5296C189.52 37.838 189.675 38.1465 189.83 38.455C189.985 38.6093 190.14 38.6093 190.295 38.6093C191.07 38.6093 192.155 37.9923 193.704 36.7584C194.789 35.9871 195.564 35.0617 196.494 34.2905C197.114 32.7481 198.198 31.0514 199.903 29.2005C202.537 26.4242 205.017 25.036 207.341 25.036C208.116 25.036 208.736 25.1902 209.201 25.653C209.666 26.1157 209.976 26.5784 209.976 27.0411C210.131 28.7378 208.736 30.4344 205.947 32.1311C203.467 33.6735 201.453 34.2905 199.748 34.2905C199.438 34.2905 199.283 34.2905 199.128 34.2905C198.663 35.0617 198.508 35.9871 198.508 36.9126C198.663 38.455 199.438 39.3805 200.988 39.2262C203.312 39.072 206.101 37.838 207.806 36.2956C208.116 35.9871 208.271 35.6787 208.581 35.6787C208.736 35.6787 208.891 35.8329 208.891 35.9871C208.891 36.1414 208.736 36.4499 208.426 36.7584C207.651 37.6838 204.862 39.689 201.917 39.9974C199.593 40.3059 196.339 39.9974 196.184 36.7584C196.184 36.4499 196.184 36.2956 196.184 35.9871C195.564 36.6041 194.944 37.3753 194.324 37.9923C192.775 39.3805 191.535 39.9974 190.76 39.9974C188.901 39.9974 187.816 38.9177 187.661 36.9126C187.661 35.6787 188.126 34.1362 189.365 31.9769C190.295 30.4344 191.225 28.892 192.155 27.3496C189.985 28.892 187.971 30.7429 185.956 33.0566C184.871 34.2905 183.477 35.8329 181.927 37.9923C180.842 39.3805 180.223 40.1517 179.913 40.1517C179.448 40.1517 178.983 39.9974 178.673 39.5347C178.363 39.2262 178.208 38.9177 178.208 38.6093C178.208 37.838 179.138 33.6735 181.152 30.126C179.913 31.0514 177.898 31.9769 175.884 32.1311C175.419 33.0566 175.109 33.8278 173.559 35.9871C171.235 38.7635 169.065 40.3059 167.361 40.3059H166.586C165.811 40.3059 165.036 39.8432 164.571 39.072C164.106 38.455 163.951 37.838 163.951 37.2211C163.951 36.6041 164.106 35.8329 164.416 35.0617C163.486 35.9871 162.557 36.7584 161.472 37.6838C159.147 39.3805 157.133 40.3059 155.428 40.3059C155.118 40.3059 154.809 40.3059 154.499 40.1517C152.484 39.5347 151.399 38.455 151.244 36.7584C151.244 36.2956 151.244 35.9871 151.244 35.5244C150.47 36.6041 149.54 37.5296 148.455 38.455C147.525 39.2262 146.285 40.1517 144.891 40.1517C143.806 40.1517 143.031 39.8432 142.256 39.072C141.172 37.838 141.017 36.4499 141.327 34.7532C139.312 37.3753 136.678 39.9974 134.043 39.9974C131.874 39.9974 130.944 38.6093 130.789 36.4499C130.789 35.2159 131.099 33.6735 131.719 31.9769C132.339 30.5887 132.959 29.509 133.578 28.5835C133.424 28.5835 133.114 28.5835 132.959 28.5835C132.184 28.5835 131.409 28.5835 130.944 27.5039C130.169 28.7378 128.93 30.126 126.45 30.7429C126.14 31.8226 125.83 32.9023 123.816 35.6787C121.491 38.6093 119.322 39.9974 117.617 39.9974H116.842C116.068 39.9974 115.293 39.5347 114.828 38.7635C114.363 38.1465 114.208 37.5296 114.208 36.9126C114.208 36.1414 114.363 35.3702 114.673 34.4447C109.404 38.6093 101.966 42.1568 95.9223 42.7738C95.1475 42.7738 94.5276 42.928 93.9078 42.928C89.7238 42.928 86.6245 41.6941 84.455 39.3805C82.4405 37.0668 81.6656 34.1362 82.2855 30.5887C83.6802 22.7224 91.7383 15.9357 98.8666 13.0051C102.276 11.617 105.685 11 108.939 11C110.644 11 112.193 11.1542 113.433 11.617C116.997 12.6967 118.857 14.7018 119.012 17.6324C118.857 19.6375 118.237 21.1799 117.152 22.5681ZM208.426 27.8123C208.581 27.1954 208.271 26.8869 207.496 26.8869C206.566 26.8869 205.172 27.5039 203.622 28.892C202.382 29.9717 201.298 31.0514 200.523 31.9769C200.213 32.4396 199.748 33.0566 199.438 33.5193C199.593 33.5193 199.748 33.6735 200.058 33.6735C201.298 33.6735 202.847 33.0566 204.707 31.9769C206.721 30.7429 207.961 29.3548 208.426 27.8123Z" fill="white"/>
</svg>
