<svg width="40" height="40" viewBox="0 0 40 40" fill="none" xmlns="http://www.w3.org/2000/svg">
<rect width="40" height="40" rx="10" fill="#414449"/>
<path fill-rule="evenodd" clip-rule="evenodd" d="M15.2 28C15.2 27.1163 15.9163 26.4 16.8 26.4C17.6837 26.4 18.4 27.1163 18.4 28C18.4 28.8837 17.6837 29.6 16.8 29.6C15.9163 29.6 15.2 28.8837 15.2 28Z" fill="white"/>
<path fill-rule="evenodd" clip-rule="evenodd" d="M24 28C24 27.1163 24.7163 26.4 25.6 26.4C26.4837 26.4 27.2 27.1163 27.2 28C27.2 28.8837 26.4837 29.6 25.6 29.6C24.7163 29.6 24 28.8837 24 28Z" fill="white"/>
<path fill-rule="evenodd" clip-rule="evenodd" d="M9.60001 12C9.60001 11.5582 9.95818 11.2 10.4 11.2H13.6C13.9813 11.2 14.3096 11.4691 14.3844 11.843L15.0563 15.2H28C28.2384 15.2 28.4644 15.3063 28.6164 15.49C28.7684 15.6737 28.8305 15.9157 28.7858 16.1499L27.5047 22.8678C27.395 23.4203 27.0944 23.9166 26.6556 24.2698C26.219 24.6213 25.6733 24.8088 25.1131 24.8H17.3509C16.7907 24.8088 16.245 24.6213 15.8084 24.2698C15.3698 23.9167 15.0693 23.4207 14.9595 22.8686C14.9595 22.8687 14.9594 22.8683 14.9595 22.8686L13.623 16.1914C13.6176 16.1693 13.6131 16.1468 13.6096 16.1241L12.9443 12.8H10.4C9.95818 12.8 9.60001 12.4418 9.60001 12ZM15.3766 16.8L16.5287 22.5562C16.5653 22.7403 16.6654 22.9058 16.8117 23.0234C16.958 23.1412 17.141 23.2038 17.3287 23.2002L17.344 23.2H25.12L25.1354 23.2002C25.323 23.2038 25.5061 23.1412 25.6523 23.0234C25.7979 22.9062 25.8978 22.7418 25.9348 22.5587L27.033 16.8H15.3766Z" fill="white"/>
</svg>
