<svg width="22" height="22" viewBox="0 0 22 22" fill="none" xmlns="http://www.w3.org/2000/svg">
<path d="M11 0.879883C5.41609 0.879883 0.879999 5.41597 0.879999 10.9999C0.879999 16.5838 5.41609 21.1199 11 21.1199C16.5839 21.1199 21.12 16.5838 21.12 10.9999C21.12 5.41597 16.5839 0.879883 11 0.879883ZM11 1.75988C16.1083 1.75988 20.24 5.89156 20.24 10.9999C20.24 16.1082 16.1083 20.2399 11 20.2399C5.89168 20.2399 1.76 16.1082 1.76 10.9999C1.76 5.89156 5.89168 1.75988 11 1.75988ZM10.9931 3.07387C10.8766 3.07569 10.7655 3.12368 10.6843 3.20729C10.6031 3.29091 10.5584 3.40333 10.56 3.51988V9.75637C10.3028 9.8473 10.0801 10.0157 9.92251 10.2384C9.76493 10.461 9.6802 10.7271 9.68 10.9999C9.6804 11.1965 9.72474 11.3906 9.80976 11.5679L7.16891 14.2088C7.12668 14.2493 7.09296 14.2979 7.06974 14.3516C7.04651 14.4054 7.03424 14.4632 7.03364 14.5217C7.03305 14.5803 7.04414 14.6383 7.06627 14.6925C7.08839 14.7467 7.12111 14.796 7.16251 14.8374C7.2039 14.8788 7.25314 14.9115 7.30734 14.9336C7.36154 14.9557 7.41961 14.9668 7.47814 14.9662C7.53668 14.9656 7.59451 14.9534 7.64825 14.9301C7.70199 14.9069 7.75055 14.8732 7.79109 14.831L10.432 12.1901C10.6093 12.2751 10.8033 12.3195 11 12.3199C11.3501 12.3199 11.6858 12.1808 11.9334 11.9333C12.1809 11.6857 12.32 11.35 12.32 10.9999C12.3196 10.7272 12.2348 10.4614 12.0772 10.2389C11.9197 10.0164 11.6971 9.84811 11.44 9.75723V3.51988C11.4408 3.46102 11.4298 3.40258 11.4076 3.34805C11.3854 3.29352 11.3525 3.24399 11.3109 3.2024C11.2692 3.16081 11.2196 3.12801 11.165 3.10593C11.1104 3.08385 11.052 3.07295 10.9931 3.07387Z" fill="white"/>
</svg>
