<svg width="64" height="66" viewBox="0 0 64 66" fill="none" xmlns="http://www.w3.org/2000/svg">
<path fill-rule="evenodd" clip-rule="evenodd" d="M44.3127 0H43.8478C43.073 0.616967 43.5379 0.462725 43.073 1.23393C42.918 1.69666 42.6081 2.15938 42.2981 2.46787C41.8333 3.39332 41.0584 4.16452 40.7485 4.93573C41.2134 4.78149 41.8333 4.31877 42.2981 4.16452C43.073 3.85604 43.3829 4.31877 43.8478 4.62725C44.1577 4.47301 45.3974 3.7018 45.7074 3.7018H46.0173C46.0173 4.01028 44.6226 4.93573 44.3127 5.08997C44.3127 5.70694 44.9325 6.01542 45.0875 6.47815C45.3974 6.32391 45.3974 6.16967 46.1722 6.16967H47.4119C47.8768 6.16967 48.1868 7.09512 49.4265 7.09512C49.5814 7.09512 50.0463 6.32391 50.0463 6.01542C50.0463 5.5527 49.5814 5.24422 49.4265 5.08997C48.8066 4.62725 48.9616 4.78149 48.1868 4.78149C48.0318 4.78149 48.0318 4.78149 48.0318 4.62725V4.01028C48.4967 3.85604 49.7364 3.54756 50.0463 3.08483C49.8914 2.62211 50.0463 1.38817 49.4265 1.38817H48.4967C47.7219 1.38817 46.9471 2.46787 46.1722 2.46787C46.0173 2.46787 45.7074 1.23393 45.5524 0.92545C45.0875 0.462725 44.9325 0.462725 44.3127 0ZM58.8793 28.6889C58.8793 30.0771 57.7945 30.8483 57.7945 31.3111C57.7945 31.4653 58.1044 31.928 58.4144 31.928C60.2739 31.928 59.1892 29.1517 60.2739 29.1517C60.7388 29.7686 61.0488 29.9229 61.2037 28.072C61.2037 27.3008 60.2739 26.9923 60.119 26.5296C60.4289 26.3753 60.2739 26.3753 60.5839 26.3753C60.8938 26.3753 61.0488 26.838 61.2037 26.838C61.3587 26.838 61.6686 26.2211 61.8236 26.2211C61.8236 25.1414 61.8236 25.2956 60.8938 25.2956L57.9495 23.1362C57.9495 23.7532 58.5693 24.5244 58.5693 25.7584C58.7243 26.6838 58.8793 27.6093 58.8793 28.6889ZM44.6226 13.2648V13.5733C44.6226 14.036 43.3829 15.1157 43.3829 15.2699C43.3829 15.4242 44.4676 16.5039 44.6226 16.8123L45.5524 16.6581C45.3974 16.0411 43.8478 14.9614 45.5524 14.9614H45.7074C46.9471 14.9614 47.7219 17.4293 48.3417 18.2005C48.9616 18.2005 48.8066 18.3548 49.2715 18.3548H49.4265C49.5814 18.3548 50.0463 18.0463 50.0463 17.892C50.0463 17.1208 48.9616 15.5784 48.4967 15.2699C48.1868 14.9614 46.3272 13.5733 46.0173 13.5733V13.419C46.3272 13.419 47.7219 14.036 48.0318 14.1902C48.6517 14.653 49.1166 14.9614 49.5814 15.5784C50.0463 16.1954 50.3563 16.6581 50.6662 17.2751C50.8212 17.5835 51.441 19.126 51.7509 19.126H52.2158V18.6632C52.2158 18.509 52.3708 18.3548 52.5258 18.3548C53.3006 18.3548 53.3006 18.509 53.3006 19.2802C53.3006 19.5887 52.9906 19.8972 52.9906 20.2057V20.5141C52.9906 20.6684 54.5403 22.365 54.6952 22.365C54.8502 22.365 55.1601 22.0566 55.1601 22.0566C55.1601 21.4396 55.4701 20.3599 56.0899 21.4396C56.0899 22.2108 55.625 22.8278 55.625 23.1362C55.625 23.2905 56.3998 23.7532 56.5548 23.7532C56.5548 24.8329 57.0197 24.8329 57.3296 25.4499C57.6396 26.0668 57.3296 26.9923 58.1045 27.1465C58.1045 26.6838 57.7945 24.5244 57.6396 24.0617C57.4846 23.599 57.4846 22.982 57.3296 22.6735C57.1747 22.365 56.8647 21.7481 56.7098 21.4396C55.78 19.8972 54.8502 18.6632 53.6105 17.4293C52.5258 16.3496 51.1311 14.9614 49.7364 14.1902C48.8066 13.7275 45.7074 12.3393 44.3127 12.3393C44.4676 12.8021 44.6226 12.9563 44.6226 13.2648ZM49.2715 7.86632H48.6517C48.3417 7.86632 47.7219 7.4036 47.4119 7.09512H45.8623L46.1722 8.17481L47.7219 8.02057C47.8768 8.02057 47.8768 8.02057 48.0318 8.02057V8.17481L46.4822 8.79177C46.4822 9.2545 47.102 9.71722 47.102 10.1799V10.3342C47.102 10.6427 46.6371 10.9512 46.4822 11.2596C47.412 11.2596 48.3417 11.4139 49.2715 11.4139C50.0463 11.5681 50.9761 11.8766 51.9059 11.8766C52.8357 11.8766 53.9204 11.7224 54.6952 11.8766C55.4701 12.0308 57.1747 11.5681 57.3296 12.3393H52.3708H51.596L46.3272 12.0308H46.1722C45.8623 12.0308 46.1722 12.0308 46.0173 12.0308C46.3272 12.3393 50.2013 13.419 50.9761 13.7275C51.9059 13.8817 52.9906 14.036 53.7655 14.1902C54.2304 14.3445 54.6952 14.4987 55.0052 14.4987C55.4701 14.653 56.0899 14.653 56.0899 15.1157H55.78C55.0052 15.1157 54.0754 14.653 53.3006 14.4987C52.3708 14.3445 51.441 14.1902 50.6662 14.1902C51.1311 14.4987 52.5257 15.1157 53.1456 15.5784C53.9204 16.1954 54.6952 16.8123 55.4701 17.2751C56.2449 17.892 57.0197 18.3548 57.9495 18.8175C58.4144 19.126 58.7243 19.2802 59.3442 19.4344C59.809 19.5887 60.4289 19.7429 60.5839 20.2057C60.4289 20.2057 60.5839 20.2057 60.4289 20.2057C60.2739 20.2057 58.1044 19.2802 57.7945 19.126C57.1747 18.8175 55.625 18.0463 55.3151 17.892C55.3151 18.2005 56.3998 19.126 56.7098 19.5887C57.1747 20.5141 57.1747 20.8226 57.7945 21.5938C58.2594 22.0566 60.5839 24.3702 61.0488 24.3702H61.2037C61.6686 24.3702 62.1335 24.2159 62.1335 23.599C62.1335 23.1362 60.7388 23.1362 60.4289 22.8278C60.2739 22.6735 59.3442 21.5938 59.3442 21.4396V21.1311H59.4991C59.964 21.1311 60.119 21.5938 60.4289 21.9023C60.5839 22.0566 61.2037 22.365 61.5136 22.365C61.8236 22.365 61.6686 22.0566 62.1335 21.9023C61.9785 21.5938 61.5136 21.5938 61.5136 21.2853C61.5136 20.5141 62.4434 21.1311 62.5984 21.1311C62.7534 21.1311 63.3732 20.2057 63.3732 20.0514C63.3732 19.8972 63.2182 19.4344 63.0633 19.4344H62.9083C62.4434 19.4344 61.5136 19.5887 61.5136 19.2802V19.126C61.5136 18.8175 62.4434 18.3548 62.4434 18.0463V17.892C62.4434 17.4293 62.2885 17.1208 61.9785 16.8123C61.2037 16.8123 61.2037 16.6581 60.7388 17.2751C60.4289 17.5835 60.2739 18.2005 59.809 18.2005C58.8793 18.2005 57.0197 16.8123 56.5548 16.1954C56.7098 16.0411 57.0197 15.7326 57.3296 15.7326C57.6396 15.7326 57.7945 16.8123 58.2594 16.8123H59.0342L59.809 16.6581L59.964 16.5039C59.964 16.1954 59.809 16.0411 59.809 15.7326C59.809 15.4242 60.8938 14.9614 60.8938 14.653C60.8938 13.2648 59.6541 12.6478 59.6541 13.419C59.6541 14.1902 58.1045 15.2699 58.1045 15.2699C57.4846 15.2699 57.4846 14.653 57.1747 14.4987C56.8647 14.1902 56.5548 13.8817 56.2449 13.7275L54.6952 13.419C54.6952 13.1105 55.1601 12.6478 55.1601 12.6478C55.4701 12.6478 56.2449 13.2648 56.5548 13.419C57.1747 13.8817 56.7098 14.1902 57.9495 14.1902H58.1045C58.2594 14.1902 58.4144 14.036 58.4144 13.8817V14.1902C58.4144 13.8817 58.2594 13.7275 58.2594 13.5733C58.2594 13.2648 59.1892 12.9563 59.4991 12.9563C59.4991 11.7224 58.4144 11.5681 57.9495 10.7969C57.4846 10.1799 57.1747 8.94602 56.0899 8.94602C55.4701 8.94602 55.4701 10.1799 55.4701 10.9512C55.3151 11.1054 54.5403 11.5681 54.3853 11.5681C53.4555 11.5681 52.6807 11.4139 52.2158 10.9512L50.9761 11.1054C50.5112 11.1054 49.1166 10.6427 49.1166 10.1799V10.0257C49.1166 9.87146 49.4265 9.56298 49.7364 9.56298H50.3563C51.1311 9.56298 52.5258 10.7969 53.6105 10.7969C54.2304 10.7969 54.3853 10.3342 54.3853 9.71722C54.3853 9.40874 53.6105 8.02057 53.4555 8.02057C53.3006 8.02057 53.3006 8.17481 52.9906 8.17481C52.8357 8.17481 52.8357 7.71208 52.8357 7.71208C52.8357 7.24936 53.1456 6.78663 53.1456 6.16967C53.1456 4.93573 51.1311 4.93573 50.9761 5.5527C50.6662 6.94087 50.8212 7.86632 49.2715 7.86632ZM44.0028 16.8123C44.0028 16.6581 43.6928 16.3496 43.5379 16.1954C43.6928 16.5039 43.8478 16.6581 44.0028 16.8123ZM13.165 10.6427V10.9512C13.165 11.1054 13.165 10.9512 13.3199 11.2596C13.165 11.1054 13.01 11.1054 12.7001 11.1054C12.5451 11.1054 12.3902 11.4139 12.3902 11.7224V12.0308C12.3902 12.3393 12.5451 12.3393 12.5451 12.8021V13.2648C12.0802 13.2648 12.2352 12.8021 11.9253 12.8021C11.6153 12.8021 11.6153 13.2648 11.6153 13.7275C11.4604 14.3445 11.1505 13.8817 10.8405 13.8817C10.6856 13.8817 10.3756 14.036 10.3756 14.1902V14.3445C10.3756 14.8072 10.9955 15.4242 11.3054 15.8869C11.6153 16.5039 11.4604 17.2751 10.6856 17.4293L10.5306 16.1954V15.4242C10.5306 14.8072 10.0657 15.5784 9.91074 15.7326C9.91074 14.3445 8.36111 13.7275 8.36111 15.2699C8.36111 15.7326 8.51607 15.8869 8.67104 16.0411C8.51607 16.0411 8.36111 16.0411 8.20614 16.0411H8.05118C7.89622 16.0411 7.1214 16.6581 7.1214 16.6581C7.1214 16.8123 7.58629 17.4293 7.74125 17.4293H7.89622C8.20614 17.4293 8.20614 17.2751 8.36111 17.2751C9.13593 17.2751 9.60082 18.509 9.60082 19.2802V19.4344C9.60082 19.7429 9.44585 19.7429 9.44585 19.8972C9.13593 19.7429 8.36111 19.2802 8.20614 19.2802H8.05118C7.58629 19.2802 7.27636 19.8972 7.27636 20.5141C7.27636 20.8226 8.51607 20.9769 8.51607 21.7481V22.2108C8.51607 23.1362 7.89622 23.1362 7.58629 23.4447C7.43132 23.7532 7.27636 24.9871 6.96643 24.9871C6.81147 24.9871 6.65651 24.6787 6.65651 24.5244C6.65651 24.2159 6.96643 23.2905 7.1214 23.1362C7.27636 22.982 8.05118 22.6735 8.05118 22.0566C8.05118 21.7481 7.74125 21.2853 7.43132 21.2853C6.81147 21.2853 6.65651 21.5938 6.34658 21.9023C6.34658 22.2108 6.34658 22.5193 6.03665 22.5193C5.88169 22.5193 5.72673 22.5193 5.57176 22.365C5.57176 21.9023 5.88169 20.5141 4.33205 20.5141C3.09234 21.7481 4.02213 22.6735 4.02213 22.982V23.4447L3.86716 23.599C3.7122 23.599 3.7122 23.599 3.40227 23.599H3.24731C2.78242 23.599 1.85263 23.9075 1.85263 24.5244V24.6787C1.85263 24.8329 5.4168 27.7635 5.4168 29.7686V30.6941C5.4168 31.1568 5.26183 31.6195 4.64198 31.6195C4.48702 31.3111 4.02213 31.1568 4.02213 30.3856C4.02213 29.7686 4.33205 27.6093 3.40227 27.6093C2.93738 27.6093 2.47249 28.072 2.47249 28.5347V29.3059H1.85263C1.07782 29.3059 0.922852 29.9229 0.922852 30.6941C0.922852 31.7738 2.78242 32.3907 3.09234 31.7738L2.47249 30.6941H2.62745C3.24731 30.6941 3.55723 31.6195 3.86716 31.928C4.33205 32.3907 4.79694 32.8535 5.10687 33.3162C5.4168 33.7789 5.88169 34.3959 6.03665 35.0129C6.19162 35.3213 6.50154 36.8638 6.65651 37.018C6.65651 36.8638 6.65651 37.018 6.65651 36.8638V35.9383C6.65651 35.0128 6.50154 33.6247 6.34658 32.8535C6.19162 31.928 6.19162 30.8483 6.03665 29.7686C5.88169 28.8432 5.72672 27.9177 5.4168 26.9923C5.26183 26.2211 4.95191 24.9871 4.95191 24.0617C4.95191 23.9075 4.95191 24.0617 4.95191 23.9075C5.26184 24.0617 6.19162 27.6093 6.19162 28.3805C6.34658 29.3059 6.34658 30.0771 6.50154 30.8483C6.65651 31.6195 6.81147 32.545 6.81147 33.3162C6.96643 33.0077 7.1214 29.9229 7.27636 29.1517C7.43133 28.072 7.74125 26.0668 8.20614 25.4499C8.20614 27.6093 7.58629 28.9974 7.58629 31.1568C7.89622 31.0026 8.36111 29.4602 8.36111 29.1517C8.51607 28.6889 8.51607 28.3805 8.67104 28.072C8.98096 27.3008 8.826 27.7635 8.826 26.838V26.0668C8.826 23.4447 9.91074 21.2853 11.1505 19.7429C12.0802 18.6632 11.9253 17.892 12.2352 16.5039C12.3902 15.7326 13.01 13.5733 13.4749 13.2648L12.2352 18.509C12.7001 18.2005 13.01 17.4293 13.6299 17.1208C14.0948 16.8123 14.2497 17.1208 14.5597 16.6581C14.8696 16.3496 15.0245 16.1954 15.1795 15.8869L14.0948 15.7326C14.0948 14.9614 15.0245 15.1157 15.0245 13.8817C14.5597 13.419 14.2497 13.5733 13.7848 13.8817V13.2648C13.7848 12.8021 14.4047 12.3393 14.4047 12.0308C14.4047 11.7224 13.9398 11.5681 13.7848 11.5681V10.7969C13.7848 10.4884 13.4749 9.87146 13.165 9.71722C13.6299 9.87146 13.165 10.1799 13.165 10.6427ZM6.96643 37.3265V39.0231C6.96643 45.964 11.7703 54.7558 15.7994 57.6864C17.194 58.7661 18.2788 59.5373 19.8284 60.4627C21.2231 61.2339 22.9277 62.0051 24.4773 62.6221C27.7316 63.856 31.2957 65.2442 35.7897 65.2442H36.5645C37.6492 65.2442 38.4241 65.09 39.3538 65.09C40.2836 64.9357 41.0584 64.7815 41.8333 64.473C41.8333 64.1645 41.5233 64.0103 41.3684 64.0103H40.7485C40.1287 64.0103 39.9737 64.3188 39.5088 64.473C39.3538 64.473 38.1141 64.7815 38.1141 64.7815C37.8042 64.7815 37.3393 64.473 36.8744 64.473C35.9446 64.3188 35.7897 64.6272 35.6347 64.6272C35.3248 64.6272 34.7049 63.3933 34.7049 62.9306C34.55 62.7763 34.24 62.6221 33.9301 62.6221C31.7606 62.6221 30.3659 62.6221 28.6613 61.8509C28.0415 61.5424 27.1117 61.2339 26.4919 61.0797C25.717 60.7712 25.0972 60.4627 24.3224 60.1542C21.688 59.0745 18.5887 57.2236 16.7291 55.3727C15.4894 54.1388 15.0245 53.5218 13.9398 51.9794C13.165 50.8997 12.2352 49.3573 11.6153 48.1234C10.2207 45.347 9.44585 42.108 9.44585 37.9434V36.5553C9.44585 34.2416 10.6856 32.545 11.6153 31.1568C12.0802 30.5398 12.8551 29.7686 13.4749 29.3059C13.7848 28.9974 15.4894 27.9177 15.7994 27.9177C15.7994 27.9177 16.7291 28.5347 17.349 28.5347C18.2788 28.5347 18.8986 27.455 18.8986 26.5296V26.0668C18.8986 25.1414 17.9689 23.599 17.0391 23.599C16.1093 23.599 15.7994 24.3702 15.4894 25.1414C15.1795 25.7584 15.4894 25.6041 14.8696 25.9126C14.5597 26.0668 14.0948 26.2211 13.7848 26.3753C12.3902 27.1465 11.4604 27.7635 10.3756 28.8432C8.67104 30.5398 6.96643 33.9332 6.96643 37.3265ZM48.0318 58.3033C49.1166 58.1491 52.5258 55.527 53.4555 54.91C53.9204 54.4473 57.7945 50.5913 57.7945 50.2828C57.7945 50.1285 57.4846 49.82 57.3296 49.6658C57.1747 49.6658 55.625 51.8252 55.4701 52.1337C54.8502 53.0591 53.9204 53.6761 53.3006 54.4473C52.6807 55.0643 51.441 55.8355 50.8211 56.4524C50.3563 56.6067 48.1868 57.9949 48.0318 58.3033ZM16.5742 50.5913C16.5742 50.8997 16.1093 51.054 16.1093 51.5167C16.1093 52.1337 17.8139 52.1337 17.9689 53.0591C17.6589 53.2134 16.7291 53.5219 16.7291 53.8303C16.7291 54.6015 18.1238 54.7558 18.8986 54.7558L18.5887 55.9897C18.7437 55.9897 18.8986 55.9897 19.0536 55.9897H20.4483C21.0681 55.9897 21.688 56.4524 21.688 56.9152V57.0694H21.2231C20.9132 57.0694 20.6032 57.3779 20.6032 57.6864C20.9132 57.6864 22.9277 58.7661 23.3926 59.0745C24.3224 59.5373 25.4071 59.8458 26.3369 60.3085C27.5766 60.9254 31.4507 62.0051 33.1553 62.0051H33.4652C33.6202 62.0051 33.6202 62.0051 33.7751 62.0051V61.8509C32.8454 61.8509 29.7461 60.7712 28.9713 60.3085C27.5766 59.5373 26.1819 58.7661 24.9422 57.9949C23.8575 57.2236 22.1529 56.144 21.2231 55.3727C20.6032 54.7558 18.2788 52.7506 18.1238 52.1337C18.5887 52.2879 20.9132 54.4473 21.533 54.91C22.6178 55.8355 23.8575 56.7609 25.0972 57.5321C26.9567 58.6118 30.9858 61.2339 33.7751 61.2339C33.7751 60.3085 33.0003 60.4627 32.2255 60.1542C31.6057 60 31.1408 59.383 31.1408 58.6118C31.1408 58.1491 31.4507 57.8406 31.7606 57.8406C31.6057 57.3779 31.1408 57.0694 31.1408 56.4524V56.2982C31.1408 56.144 31.2957 55.9897 31.4507 55.8355C31.6057 55.6812 31.4507 55.527 31.7606 55.3727C31.9156 55.2185 32.3805 54.7558 32.6904 54.7558H33.1553C33.0003 54.4473 32.5354 54.2931 32.0706 54.1388V53.5218C32.0706 53.2134 31.7606 52.9049 31.4507 52.9049C31.1408 52.9049 30.9858 53.5219 30.9858 53.8303V53.9846H30.3659C29.9011 53.9846 29.7461 54.2931 29.7461 54.7558C29.7461 55.0643 30.056 55.3727 30.211 55.527V56.144C30.3659 56.4524 30.6759 56.6067 30.6759 57.0694V57.5321C30.211 57.5321 29.7461 56.9152 29.4362 56.6067C28.8163 55.3727 29.4362 55.527 29.4362 55.0643C29.4362 54.91 29.2812 53.9846 29.1262 53.9846C28.6613 53.9846 28.3514 54.2931 28.1965 54.6015H27.5766H27.1117V55.2185C27.1117 55.9897 28.1965 56.4524 28.1965 56.7609V57.2236C27.2667 57.2236 26.6468 55.8355 26.6468 55.0643V54.4473C26.6468 53.8303 26.9567 53.5218 27.2667 53.2134C28.1965 53.2134 28.1965 52.7506 28.1965 51.9794C28.1965 51.6709 27.4216 51.6709 27.1117 51.6709C26.3369 51.6709 26.3369 52.1337 26.027 52.4422C26.027 51.8252 25.872 51.3625 25.5621 51.054C25.4071 51.054 25.0972 50.8997 24.9422 50.8997C24.6323 50.7455 24.6323 50.7455 24.4773 50.5913C24.4773 51.2082 24.1674 51.8252 24.3224 51.9794L24.4773 52.7506L23.3926 52.4422C23.3926 53.3676 24.4773 53.9846 24.4773 54.4473V54.91C23.5475 54.91 22.7727 54.1388 22.9277 53.0591L23.0827 51.5167C23.0827 51.2082 22.7727 50.8997 22.4628 50.8997C21.8429 51.054 21.8429 51.2082 21.533 51.5167C20.9132 51.2082 21.0681 50.2828 20.2933 50.2828C19.8284 50.2828 19.9834 50.8997 19.9834 51.2082C19.8284 51.6709 19.5185 50.8997 19.5185 50.7455C19.3635 50.2828 18.8986 49.2031 18.4337 49.2031C18.1238 49.2031 17.9689 49.6658 17.8139 49.82V49.2031C17.504 48.8946 17.0391 48.4319 16.5742 48.4319H16.1093C16.1093 48.5861 16.2643 49.6658 16.2643 49.6658C16.1093 49.9743 16.5742 50.5913 16.5742 50.5913ZM41.0584 60.1542H39.5088C37.4943 60.1542 32.6904 57.9949 32.6904 56.2982V55.3727L32.2255 55.9897V56.4524C32.0705 56.6067 31.9156 56.7609 31.9156 56.9152V57.0694C31.9156 57.5321 32.8454 58.1491 32.8454 58.6118C32.8454 58.7661 31.9156 58.9203 31.9156 59.2288C31.9156 59.6915 32.5354 60 33.0003 60H33.3103C33.7752 60 34.0851 59.6915 34.395 59.6915H34.7049C35.0149 59.6915 35.4798 59.8458 35.4798 60.1542C35.4798 60.617 34.24 60.4627 34.24 60.9254V61.2339C34.24 61.6967 35.9446 61.8509 36.2546 61.8509V62.0051C35.9446 62.1594 35.3248 62.4679 35.3248 62.9306V63.0848C35.3248 63.3933 35.6347 63.856 35.9446 63.856H36.0996C36.5645 63.856 37.0294 63.2391 37.4943 63.2391H37.8042C37.9592 63.7018 37.9592 64.3188 38.4241 64.3188C38.734 64.3188 39.1989 64.0103 39.1989 63.7018V63.5476C39.1989 62.7763 39.0439 62.7763 39.6638 62.3136C40.1287 62.0051 40.2836 61.6967 41.0584 61.6967H41.9882C41.9882 61.8509 42.1432 62.0051 42.1432 62.1594C42.1432 63.0848 40.1287 62.0051 40.1287 63.3933C40.1287 63.856 41.0584 63.7018 41.3684 63.856C41.9882 64.0103 41.8333 64.6272 42.2981 64.6272C42.6081 64.6272 43.6928 62.9306 43.6928 62.3136C43.8478 62.4679 44.4676 63.7018 44.6226 63.7018C44.7776 63.7018 45.5524 63.2391 45.7074 63.2391C46.0173 62.7763 45.7074 62.4679 45.7074 61.8509C45.7074 61.6967 46.1722 61.0797 46.4822 61.0797C46.4822 61.2339 46.4822 61.3882 46.4822 61.5424V61.6967C46.4822 62.0051 46.9471 62.7763 47.102 62.7763C48.3417 62.7763 54.0754 58.7661 55.1601 57.9949C56.2449 57.2236 61.8236 52.9049 61.8236 51.6709V51.3625C61.3587 51.2082 59.4991 49.9743 59.0342 49.6658C58.4144 49.0488 57.3296 48.1234 57.3296 46.8895C57.1747 47.0437 56.0899 48.8946 55.935 49.2031C55.4701 49.9743 55.0052 50.7455 54.3853 51.3625C53.3006 52.7506 52.0609 53.8303 50.6662 55.0643C49.4265 56.144 47.7219 57.2236 46.1722 57.9949C45.3974 58.4576 42.2982 60.1542 41.0584 60.1542ZM34.55 2.00514H35.7897C36.8744 2.00514 37.0294 2.31362 37.8042 2.77635C38.4241 3.23907 38.4241 3.85604 38.4241 4.93573C39.1989 4.78149 39.0439 4.62725 39.9737 4.62725C40.1287 4.47301 40.4386 3.7018 40.4386 3.39332C40.4386 2.77635 39.6638 2.15938 39.0439 2.15938C38.2691 2.15938 37.8042 3.08483 37.6492 2.15938C37.6492 1.8509 37.1844 0.771208 36.7195 0.771208C36.0996 1.07969 34.7049 1.38817 34.55 2.00514Z" fill="white"/>
<path fill-rule="evenodd" clip-rule="evenodd" d="M17.5033 19.8971C17.3484 18.8174 16.8835 18.2004 16.8835 17.275C16.8835 16.9665 17.0384 16.8123 17.0384 16.5038C16.7285 16.8123 16.4186 18.3547 16.4186 18.9717V20.0513C16.4186 21.4395 17.0384 22.2107 17.1934 23.1362C18.4331 23.2904 19.3629 24.5244 19.3629 25.7583V26.9922C19.3629 27.3007 19.053 27.9177 19.053 27.9177C19.053 28.0719 20.2927 30.5398 20.4476 30.8483C21.0675 31.7737 21.6873 32.3907 22.4622 33.0076C24.3217 34.2416 26.1813 34.8585 28.5058 35.6298C30.9852 36.401 38.7334 39.7943 38.7334 42.4164C38.7334 39.7943 33.6196 37.0179 31.4501 36.0925C29.1256 35.167 23.5469 33.1619 22.3072 31.4652C22.4622 31.4652 23.5469 32.3907 23.8568 32.5449C24.4767 32.8534 24.9416 33.1619 25.5614 33.4704C26.6462 33.9331 28.3508 34.7043 29.4355 34.8585C29.4355 34.8585 25.8714 33.1619 25.4065 32.8534C24.6317 32.3907 22.4622 30.694 22.1522 29.9228C22.6171 30.2313 23.082 30.8483 23.8568 31.311C24.6317 31.7737 25.0966 32.0822 25.8714 32.3907C26.6462 32.6992 29.7455 34.0873 30.3653 34.0873C30.3653 34.0873 26.4912 32.0822 26.0263 31.7737C25.2515 31.311 22.6171 29.4601 22.4622 28.6889C23.8568 29.6143 25.0966 30.694 26.9561 31.4652C27.8859 31.7737 28.5058 32.2364 29.4355 32.5449C30.3653 32.8534 31.1401 33.1619 32.0699 33.6246C33.7745 34.2416 35.6341 34.8585 37.3387 35.4755C38.1135 35.784 38.8883 36.5552 39.3532 37.0179C39.8181 37.4807 39.8181 37.4807 40.128 37.9434C40.283 38.2519 40.5929 39.0231 40.7479 39.1773C40.7479 38.4061 39.9731 37.1722 39.5082 36.7094C39.0433 36.0925 38.1135 35.4755 37.4936 35.0128C35.944 34.0873 34.0844 33.6246 32.2249 32.8534C30.5203 32.0822 28.8157 31.311 27.1111 30.694C26.3363 30.3855 22.7721 28.5346 22.4622 27.9177C23.082 28.0719 24.1668 28.8431 24.9416 28.9974C25.8714 29.3058 26.6462 29.7686 27.576 29.9228C28.5058 30.0771 29.4355 30.3855 30.5203 30.5398C31.4501 30.694 32.8447 30.694 33.7745 31.0025C34.8593 31.1567 35.944 31.311 36.8738 31.4652C37.9585 31.6195 38.8883 31.928 39.8181 32.0822C40.7479 32.2364 41.6777 32.6992 42.4525 33.0076C42.6074 33.1619 43.3823 33.6246 43.5372 33.6246C43.6922 33.7789 44.312 34.5501 44.312 34.5501C44.312 33.7789 42.7624 32.8534 42.2975 32.5449C42.7624 32.5449 43.3823 32.5449 43.6922 32.5449C44.0021 32.3907 44.622 32.2364 44.9319 32.0822V31.928L43.0723 32.2364H42.4525C42.4525 32.2364 40.128 31.6195 39.9731 31.6195C39.3532 31.311 38.2685 31.0025 37.4936 30.8483C36.7188 30.694 35.6341 30.3855 34.8593 30.3855C34.2394 30.3855 32.8447 30.0771 32.0699 29.9228C30.5203 29.6143 28.1958 29.3058 26.8011 28.8431C25.4065 28.2262 23.392 27.7634 22.3072 26.9922C22.6171 26.9922 24.4767 27.7634 25.0966 27.9177C26.0263 28.0719 27.1111 28.5346 28.1958 28.5346C29.1256 28.5346 30.5203 28.8431 31.4501 28.9974C32.2249 29.1516 34.2394 29.3058 34.8593 29.3058C34.7043 29.3058 29.2806 28.2262 28.6607 28.0719C27.421 27.7634 23.5469 26.838 22.9271 26.3753C23.3919 26.3753 23.8568 26.6837 24.1668 26.6837C24.6317 26.838 25.0965 26.838 25.5614 26.9922C26.3363 27.1465 27.576 27.3007 28.3508 27.4549C30.2104 27.6092 32.3798 28.0719 34.2394 28.0719C35.789 28.0719 39.3532 28.0719 40.5929 28.3804C41.6777 28.6889 44.0021 30.5398 44.7769 30.8483C44.622 30.694 43.0723 29.6143 42.6074 29.3058C41.6777 28.6889 41.3677 28.3804 40.283 27.9177C40.438 27.7634 38.8883 27.7634 37.8036 27.7634C36.4089 27.7634 35.3242 27.6092 34.2394 27.6092C33.7745 27.6092 32.9997 27.4549 32.5348 27.4549C32.0699 27.3007 31.2951 27.4549 30.8302 27.3007C29.7455 27.1465 28.6607 26.9922 27.576 26.838C26.3363 26.6837 22.4622 25.7583 21.9973 24.9871C23.8568 25.4498 24.4767 26.221 26.9561 26.221C28.9706 26.221 30.9852 26.0668 32.9997 26.0668C31.1401 26.0668 28.9706 26.0668 27.1111 25.7583C26.0263 25.604 25.5614 25.604 24.6317 25.1413C24.1668 24.9871 22.6171 24.5244 22.3072 24.2159C22.6171 24.2159 23.8568 24.5244 24.3217 24.6786C25.0966 24.8328 25.5614 24.9871 26.3363 25.1413C27.7309 25.2956 29.2806 25.604 30.9852 25.604C32.2249 25.604 33.3096 25.604 34.5493 25.604C35.6341 25.604 36.8738 25.2956 37.8036 25.2956H39.0433C39.5082 25.2956 40.438 25.4498 40.7479 25.7583C41.3677 26.0668 41.5227 26.3753 41.9876 26.6837C41.8326 25.7583 40.438 24.9871 39.1982 24.9871C39.3532 24.8328 40.283 24.5244 40.5929 24.3701C41.0578 24.0616 41.3677 23.9074 41.8326 23.5989C42.1426 23.4447 44.0021 22.0565 44.1571 21.9022C43.6922 22.0565 40.283 23.9074 39.5082 24.2159C38.4234 24.8328 35.3242 25.1413 33.4646 25.1413H29.4355C28.1958 25.1413 23.082 24.0616 22.4622 23.7531C25.8714 23.7531 27.576 24.8328 30.8302 24.2159V24.0616C29.2806 24.2159 26.1813 24.2159 24.9416 23.1362C26.3363 23.1362 30.3653 22.365 30.8302 21.9022C29.2806 21.9022 27.7309 22.0565 26.3363 22.0565C25.5614 22.0565 24.9416 22.0565 24.1668 22.2107C23.7019 22.2107 22.6171 22.6735 22.1522 22.6735C22.9271 21.9022 27.1111 21.4395 27.421 21.2853C26.0263 21.2853 24.7866 21.2853 23.7019 21.4395C23.082 21.5938 22.6171 21.5938 22.1522 21.748C21.6873 21.9022 21.0675 22.2107 20.7576 22.365C21.5324 21.131 25.8714 21.131 26.6462 20.5141L23.082 20.6683C23.237 20.3598 24.0118 19.4344 24.4767 19.4344H24.7866C26.3363 19.4344 27.7309 20.6683 28.6607 20.6683H28.9706C30.3653 20.6683 30.0554 18.6632 30.9852 18.6632C31.4501 18.6632 32.0699 19.8971 32.3798 20.2056C32.6898 20.5141 33.7745 21.2853 34.2394 21.2853H35.0142C35.789 21.2853 37.0288 20.0513 37.0288 19.2801C37.0288 18.9717 36.8738 18.8174 36.8738 18.3547V18.0462C36.8738 17.5835 37.6486 16.9665 37.6486 16.0411C37.6486 14.9614 35.6341 12.802 35.0142 12.3393C35.1692 13.1105 37.3387 14.3444 37.3387 15.7326V16.0411C37.3387 16.3495 36.8738 17.1208 36.7188 17.275C36.4089 17.892 36.5639 18.2004 36.5639 18.9717C36.5639 19.5886 35.4791 20.5141 34.7043 20.5141H34.2394C32.3798 20.5141 31.4501 17.7377 30.8302 17.7377H30.5203C29.4355 17.7377 29.5905 19.5886 28.5058 19.5886C27.1111 19.5886 25.5614 18.3547 24.1668 18.3547H24.0118C23.237 18.3547 20.6026 20.3598 19.8278 20.8226C19.9827 20.3598 21.3774 19.4344 21.6873 19.1259C22.3072 18.6632 24.0118 18.0462 24.1668 17.892C23.3919 17.892 22.1522 18.3547 21.6873 18.6632C21.0675 18.9717 19.8278 19.7429 19.6728 19.8971C20.4476 18.8174 24.1668 16.9665 26.0263 16.9665C24.1668 16.9665 23.5469 17.1208 21.9973 17.4292C21.3774 17.5835 20.9125 17.892 20.4476 18.2004C20.1377 18.3547 19.2079 19.1259 19.053 19.1259C20.1377 17.4292 22.3072 16.8123 24.6317 16.1953C26.1813 15.7326 30.3653 14.9614 30.9852 14.0359C30.8302 14.0359 28.5057 14.8071 28.0409 14.9614C27.1111 15.2699 25.7164 15.2699 24.7866 15.5783C23.7019 15.8868 22.7721 16.0411 21.6873 16.3495C21.2225 16.5038 20.7576 16.8123 20.2927 16.9665C19.9827 17.1208 19.3629 17.5835 19.053 17.7377C20.6026 15.4241 26.6462 14.4986 27.266 13.419C26.8011 13.5732 25.7164 14.0359 25.0966 14.1902C24.3217 14.4986 23.5469 14.6529 22.7721 14.8071C22.1522 14.9614 21.0675 15.4241 20.6026 15.5783C20.1377 15.8868 18.898 16.8123 18.898 16.8123C19.6728 15.4241 20.7576 14.9614 22.1522 14.3444C22.7721 14.0359 25.8714 12.9562 26.1813 12.4935C25.4065 12.4935 24.0118 12.9562 23.237 13.1105C23.237 13.7274 22.9271 13.8817 22.4622 14.0359C21.9973 14.1902 21.5324 14.4986 21.2225 14.6529C21.9973 13.5732 27.421 11.7223 27.8859 10.9511C27.576 10.9511 26.6462 11.5681 26.1813 11.7223C25.7164 12.0308 25.0965 12.185 24.4767 12.4935C23.237 12.9562 22.3072 13.419 21.2225 14.0359C20.2927 14.4986 19.3629 15.5783 18.743 16.3495C18.4331 16.9665 17.5033 18.8174 17.5033 19.8971ZM17.9682 17.4292C18.2781 17.275 18.898 15.7326 19.3629 15.2699C19.9827 14.6529 20.6026 14.1902 21.3774 13.5732C22.6171 12.6477 24.6317 11.7223 26.0263 10.9511C27.576 10.1799 29.2806 9.25443 30.6752 8.32898C31.2951 7.86625 32.2249 7.40353 33.1547 7.09505C33.9295 6.9408 35.1692 6.32384 35.3242 5.55263C34.8593 5.86111 34.2394 6.32384 33.6196 6.47808C32.8447 6.63232 32.0699 7.24929 31.76 7.24929C32.2249 6.47808 32.8447 5.86111 33.1547 4.78142C32.6898 5.24415 32.5348 5.86111 32.3798 6.1696C32.2249 6.47808 31.915 6.78656 31.605 7.09505C30.9852 7.55777 30.0554 8.17474 29.4355 8.48322C27.8859 9.25443 26.4912 10.1799 24.9416 10.7968C23.3919 11.5681 21.9973 12.3393 20.6026 13.419C19.8278 13.8817 19.5179 14.3444 18.898 15.1156C18.743 15.4241 18.1232 16.9665 17.9682 17.4292ZM25.4065 8.94595C25.4065 8.63746 25.5614 8.63746 25.5614 8.17474V7.55777C25.5614 7.40353 25.4065 6.9408 25.2515 6.78656C25.2515 9.40867 24.4767 9.71715 22.7721 10.6426C22.3072 10.9511 19.2079 13.2647 18.898 13.2647C19.2079 12.802 21.2225 11.2596 21.6873 10.7968C22.6171 10.0256 23.5469 8.94595 23.5469 7.40353C23.237 7.86625 23.237 8.32898 22.9271 8.7917C22.6171 9.25443 22.3072 9.56291 21.8423 9.8714C21.8423 9.56291 21.9973 9.40867 21.9973 9.10019C21.9973 8.63746 21.8423 8.32898 21.5324 8.0205C21.5324 8.17474 21.5324 8.32898 21.5324 8.48322V9.10019C21.5324 10.0256 19.6728 11.5681 19.053 12.0308C18.2781 12.6477 17.0384 14.1902 17.0384 15.5783V16.0411L17.1934 17.4292H17.3484C17.3484 15.1156 18.4331 14.0359 19.8278 13.1105C21.0675 12.185 22.6171 11.2596 23.8568 10.3341C25.2515 9.40867 26.4912 8.63746 27.8859 7.55777C28.5058 7.09505 29.2806 6.47808 29.7455 6.01536C30.0554 5.70687 30.0554 5.24415 30.2104 4.78142C30.2104 4.16445 30.5203 4.01021 30.8302 3.54749C30.2104 3.70173 30.2104 4.78142 29.9004 5.24415C29.7455 5.70687 28.9706 6.1696 28.5058 6.47808C28.0409 7.09505 25.7164 8.79171 25.4065 8.94595ZM27.8859 12.6477C28.8157 12.6477 31.915 11.7223 32.0699 11.1053H31.76C31.605 11.1053 30.0554 11.7223 29.7455 11.8765C29.5905 12.0308 28.1958 12.4935 27.8859 12.6477ZM27.576 5.39839C27.1111 5.39839 26.4912 4.62718 26.1813 4.62718H26.0263C25.2515 4.62718 24.4767 5.86111 23.7019 5.86111C22.9271 5.86111 22.6171 5.55263 22.1522 5.55263H21.6873C20.1377 5.55263 21.0675 9.25443 20.1377 9.25443C19.8278 9.25443 19.6728 9.10019 19.5179 9.10019C18.4331 9.10019 17.5033 12.6477 17.5033 14.1902C17.5033 13.1105 17.9682 11.8765 18.4331 11.1053C19.2079 9.56291 19.8278 10.4884 20.7576 9.40867C21.6874 8.48322 20.6026 6.78656 21.9973 6.63232C22.6171 6.63232 23.3919 6.63232 24.0118 6.63232C24.6317 6.47808 25.2515 5.86111 25.4065 5.86111H26.0263C26.4912 5.86111 27.1111 6.1696 27.7309 6.1696C29.9004 6.1696 30.3653 2.62204 31.605 2.62204H32.2249C32.9997 2.62204 33.7745 3.08476 34.7043 3.08476C35.6341 3.08476 36.5639 3.23901 36.8738 3.70173C37.3387 4.47294 37.1837 5.24415 37.4936 6.01536C37.6486 6.47808 38.4234 7.40353 39.1982 7.40353H39.8181C40.5929 7.40353 42.1426 6.1696 43.0723 6.1696H43.3823C44.1571 6.1696 45.8617 9.10019 45.8617 10.0256C45.8617 10.7968 44.7769 11.2596 44.312 11.5681C44.9319 11.5681 46.0167 10.7968 46.0167 10.1799V9.8714C46.0167 8.7917 45.5518 7.71201 45.0869 6.9408C44.7769 6.1696 44.312 4.78142 43.3823 4.78142H43.0723C42.6074 4.78142 40.7479 5.86111 40.283 6.1696C39.6631 6.47808 39.1982 6.47808 38.7334 5.86111C38.2685 5.24415 38.5784 4.93566 38.4234 4.01021C37.8036 3.39325 37.8036 3.08476 37.1837 2.77628C36.7188 2.4678 36.099 2.4678 35.3242 2.4678C34.5493 2.4678 33.7745 2.4678 33.3096 2.31355C32.9997 2.31355 31.76 1.85083 31.605 1.85083C29.1256 2.00507 28.9706 5.39839 27.576 5.39839ZM40.128 10.7968C40.128 10.1799 40.128 9.56291 40.7479 9.56291H40.9028C41.6777 9.56291 43.0723 10.3341 43.8472 10.3341C43.6922 10.1799 41.0578 9.10019 40.9028 9.10019C39.9731 9.10019 39.8181 10.0256 40.128 10.7968ZM46.0167 9.8714C46.0167 11.2596 44.7769 11.4138 44.1571 11.8765C45.2418 11.8765 46.3266 11.4138 46.3266 10.4884V9.71715C46.3266 9.25443 44.9319 7.24929 44.622 6.9408C44.7769 7.71201 46.0167 8.94595 46.0167 9.8714ZM39.5082 16.1953V16.3495C39.5082 18.0462 40.438 19.2801 42.2975 19.2801H43.3823L45.5518 19.1259L45.8617 19.7429C45.8617 18.8174 45.3968 18.6632 44.622 18.6632C43.8472 18.6632 43.2273 18.6632 42.4525 18.6632C40.9028 18.6632 40.128 17.892 40.128 16.3495V16.1953C40.128 14.8071 40.9028 14.3444 41.0578 13.5732C40.438 13.8817 39.5082 15.2699 39.5082 16.1953ZM43.5372 24.0616V24.6786C43.5372 25.1413 44.0021 26.0668 44.0021 26.5295C44.0021 27.3007 43.8472 27.7634 43.8472 28.3804C44.0021 28.8431 44.467 29.3058 45.0869 29.3058C45.7067 29.3058 46.1716 28.8431 46.3266 28.8431C46.9464 28.8431 46.7915 29.4601 47.1014 29.7686C47.1014 29.1516 46.9464 28.5346 46.4815 28.5346H46.1716C45.7067 28.5346 45.3968 28.6889 45.0869 28.6889C44.7769 28.6889 44.312 28.3804 44.312 28.0719V27.7634C44.312 27.3007 44.467 27.3007 44.467 26.838C44.467 26.0668 44.0021 25.4498 44.0021 24.5244C44.0021 23.9074 44.7769 23.4447 45.3968 23.4447H45.7067C46.1716 23.4447 46.4815 23.7531 46.6365 24.0616C46.4815 23.5989 46.0166 23.1362 45.3968 23.1362H44.622C44.1571 22.8277 43.5372 23.4447 43.5372 24.0616ZM45.8617 27.4549C46.9464 27.4549 47.2564 27.4549 47.7212 27.9177C48.1861 28.3804 48.4961 28.6889 48.4961 29.6143V29.9228C48.4961 31.4652 46.4815 32.0822 46.4815 34.3958V34.8585C46.4815 35.6298 47.1014 36.7094 47.1014 37.4807C47.1014 38.2519 46.3266 39.4858 45.7067 39.4858C44.7769 39.4858 44.467 38.2519 44.312 37.9434C44.312 39.0231 45.2418 39.9485 46.3266 39.9485H46.4815C47.4113 39.9485 48.0312 38.5603 48.0312 37.6349C48.0312 36.5552 47.5663 35.3213 47.5663 34.2416V33.9331C47.5663 32.6992 49.2709 31.311 49.2709 29.9228C49.2709 28.6889 48.1861 27.3007 46.9464 27.3007H46.4815C46.0166 27.3007 46.0166 27.3007 45.8617 27.4549ZM26.4912 44.8843C26.9561 44.8843 26.9561 44.73 27.266 44.5758C27.421 45.0385 28.1958 46.2724 28.6607 46.2724C30.0554 46.2724 32.2249 45.9639 32.8447 46.8894C33.3096 47.6606 34.2394 49.203 35.3242 49.203H35.6341C36.2539 49.203 36.8738 48.7403 37.3387 48.4318C38.1135 47.8148 38.1135 48.1233 39.1982 48.1233C40.7479 48.1233 39.3532 44.8843 40.283 44.8843C41.0578 44.8843 41.8326 45.8097 42.7624 45.8097H43.2273C43.8472 45.8097 44.312 44.8843 44.622 44.2673C44.7769 43.9588 45.5518 42.7249 45.5518 42.4164C45.5518 41.9537 44.7769 41.6452 44.467 41.6452C44.622 41.7994 45.0869 41.9537 45.0869 42.2621C45.0869 42.2621 44.1571 43.4961 44.0021 43.6503C43.6922 43.9588 43.3823 44.8843 42.7624 44.8843H42.6074C41.6777 44.8843 41.3677 44.2673 40.438 44.2673C38.8883 44.2673 39.8181 46.7351 39.0433 46.8894C38.2685 47.0436 37.9585 46.7352 37.1837 47.1979C36.8738 47.3521 36.4089 47.9691 35.944 47.9691H35.789C35.0142 47.9691 34.0844 46.4267 33.4646 45.9639C32.2249 45.0385 31.605 45.5012 29.9004 45.5012H29.5905C28.1958 45.5012 28.3508 43.9588 27.8859 43.9588H27.7309C27.421 43.9588 27.266 44.4215 27.1111 44.4215H26.9561C25.4065 44.4215 24.6317 38.0976 23.7019 37.4807C23.8568 38.0976 24.1668 38.8688 24.3217 39.64C24.4767 40.257 24.6317 41.1825 24.9416 41.7994C25.0965 42.2621 25.5614 43.3418 25.7164 43.6503C25.5614 44.113 25.4065 44.8843 26.4912 44.8843ZM42.6074 37.1722V38.4061C42.1426 39.0231 40.7479 40.257 40.7479 41.1825C40.7479 41.6452 41.2128 42.4164 41.6777 42.4164C42.4525 42.4164 42.7624 41.7994 42.9174 41.7994C43.5372 41.7994 43.6922 42.4164 43.8472 42.5706C43.8472 42.1079 43.3823 41.4909 43.0723 41.4909H42.7624C42.4525 41.4909 42.1426 41.7994 41.9876 41.7994C41.6777 41.7994 41.3677 41.4909 41.3677 41.1825C41.3677 40.257 43.3823 39.4858 43.3823 38.2519V38.0976C43.3823 37.7891 43.2273 37.7891 43.2273 37.3264V37.0179C43.2273 36.7094 43.6922 36.2467 43.8472 36.2467H44.0021C44.9319 36.2467 44.9319 37.1722 45.2418 37.4807C45.2418 36.5552 44.7769 35.6298 44.0021 35.6298H43.6922C43.0723 35.784 42.4525 36.5552 42.6074 37.1722ZM37.8036 44.2673V44.4215C37.8036 44.73 37.9585 45.347 38.1135 45.6555C38.1135 43.9588 38.1135 43.0334 39.8181 43.0334H40.9028C41.0578 43.0334 41.3677 43.1876 41.5227 43.1876C41.3677 42.7249 40.283 42.5706 39.6631 42.5706C38.7334 42.7249 37.8036 43.3418 37.8036 44.2673ZM17.6583 29.1516C16.8835 29.1516 16.4186 28.5346 15.9537 28.5346H15.7987C15.3338 28.5346 13.7842 29.9228 13.4743 30.2313C12.8544 31.0025 12.3895 32.0822 12.3895 33.3161V34.0873L12.5445 35.0128C12.5445 33.6246 13.3193 31.0025 14.4041 30.694C14.4041 31.0025 14.0941 31.311 14.0941 31.6195C13.9392 31.928 13.9392 32.2364 13.7842 32.5449C13.6292 33.1619 13.4743 34.0873 13.4743 34.8585V35.4755C13.4743 35.9382 13.7842 37.4807 14.0941 37.6349L13.7842 35.3213C13.7842 33.9331 14.4041 31.7737 15.1789 31.311C14.8689 32.3907 14.559 33.4704 14.559 34.8585V35.784C14.559 37.1722 14.8689 39.7943 15.6438 40.257C15.4888 39.4858 15.0239 39.4858 15.0239 38.2519C15.0239 37.3264 15.0239 36.5552 15.0239 35.6298C15.0239 34.2416 15.3338 32.0822 15.9537 31.311C15.9537 31.7737 15.6438 33.3161 15.4888 33.9331C15.3338 34.7043 15.3338 35.9382 15.4888 36.8637C15.6438 38.4061 16.8835 39.9485 17.8133 40.7197C19.053 41.6452 20.4476 42.1079 21.6873 42.8791C22.1522 43.1876 25.2515 45.1927 25.4065 45.1927C24.7866 44.2673 21.0675 42.4164 19.8278 41.7994C17.9682 40.7197 15.9537 39.4858 15.9537 36.5552V35.9382L16.5735 31.928H16.7285C16.7285 35.0128 17.1934 36.0925 18.4331 37.7891C19.053 38.5603 19.6728 39.0231 20.4476 39.64C20.7576 39.7943 22.6171 41.0282 22.7721 41.1825C22.6171 41.0282 21.0675 39.7943 20.6026 39.4858C19.8278 39.0231 19.2079 38.2519 18.743 37.6349C17.5033 35.784 17.1934 34.5501 17.1934 31.6195C17.1934 31.6195 17.9682 33.6246 18.2781 34.0873C18.743 35.0128 19.2079 35.3213 19.6728 36.0925C20.1377 36.5552 20.9125 37.3264 21.3774 37.7891C21.8423 38.2519 22.7721 39.1773 23.082 39.4858C22.9271 39.0231 20.6026 36.8637 19.9827 36.0925C19.2079 35.167 17.9682 33.1619 17.9682 31.6195C18.2781 32.0822 18.5881 32.8534 19.053 33.4704C19.5179 34.0873 19.9827 34.5501 20.4476 35.0128C21.2225 35.9382 22.6171 36.8637 23.8568 37.4807C25.2515 38.0976 26.4912 38.7146 27.8859 39.3316C28.6607 39.64 31.2951 41.3367 31.76 41.4909C31.2951 40.7197 29.1256 39.64 28.1958 39.1773C26.9561 38.5603 25.5614 37.9434 24.3217 37.1722C23.237 36.5552 21.8423 35.4755 21.0675 34.5501C20.4476 33.9331 18.898 31.928 18.898 30.8483C19.2079 31.1567 19.3629 31.6195 19.6728 31.928C19.9827 32.2364 20.1377 32.5449 20.4476 33.0076C20.9125 33.6246 21.6874 34.3958 22.3072 34.8585C23.7019 35.9382 24.9416 37.1722 26.9561 37.6349C29.1256 38.0976 30.8302 38.5603 32.2249 39.9485C33.3096 41.0282 34.5493 43.0334 34.5493 45.1927C34.5493 43.8046 34.3944 43.0334 34.0844 41.9537C35.1692 42.4164 35.3242 43.1876 37.0288 43.1876C36.8738 43.0334 35.944 42.7249 35.6341 42.5706C35.1692 42.4164 34.7043 41.9537 34.3944 41.7994C33.9295 41.4909 33.6196 41.1824 33.3096 40.7197C33.1547 40.4112 32.6898 39.7943 32.3798 39.4858C30.5203 37.7891 29.1256 37.7891 26.6462 37.0179C24.9416 36.5552 22.9271 34.7043 21.8423 33.6246C20.4476 32.2364 19.3629 30.5398 18.898 28.3804C18.743 28.5346 18.4331 29.1516 17.6583 29.1516ZM15.4888 20.3598V20.8226L15.7987 22.365C15.3338 21.9022 15.0239 20.6683 15.0239 19.7429V18.9717C15.0239 18.3547 15.3338 17.7377 15.4888 17.275C15.0239 17.5835 14.559 19.4344 14.559 20.2056V20.3598C14.559 20.8226 14.714 21.131 14.714 21.5938C14.8689 21.9022 15.0239 22.365 15.0239 22.6735C14.4041 21.9022 13.7842 20.5141 13.7842 19.1259V18.9717C13.7842 18.6632 13.9392 18.6632 13.9392 18.3547C13.6292 18.5089 13.4743 19.2801 13.4743 19.8971V20.0513C13.4743 22.0565 14.2491 22.0565 14.559 23.1362C14.2491 23.1362 13.3193 22.365 13.1643 22.0565C12.0796 21.2853 12.5445 21.2853 12.0796 20.6683C12.0796 22.365 13.4743 22.8277 14.0941 23.7531C13.7842 23.5989 13.1643 23.1362 12.6995 22.9819C12.2346 22.8277 11.4597 22.365 11.1498 22.365L13.6292 24.2159C12.6995 24.0616 12.3895 23.9074 10.9949 23.9074L13.0094 24.6786C12.5445 24.6786 12.6995 24.5244 12.2346 24.5244H11.6147L10.9949 24.6786L13.0094 25.1413V25.2956H12.5445C11.7697 25.2956 10.6849 25.7583 10.53 26.3753C11.1498 26.0668 11.9246 25.7583 12.8544 25.7583C12.5445 26.0668 11.7697 26.221 11.3048 26.6837C10.9949 26.9922 10.375 27.6092 10.375 28.2262C11.6147 26.6837 12.0796 26.6837 14.0941 25.9125C14.4041 25.7583 14.8689 25.604 15.0239 25.4498C15.4888 25.1413 15.3338 24.9871 15.6438 24.5244C15.9537 23.7531 16.2636 23.2904 17.3484 23.2904C16.8835 22.5192 16.1087 21.131 16.2636 19.7429L16.5735 17.4292C15.9537 17.5835 15.4888 19.4344 15.4888 20.3598ZM16.1087 40.7197V41.0282C16.1087 41.9537 18.1232 43.3418 18.1232 43.6503C18.1232 44.2673 16.8835 45.1927 16.8835 46.2724V46.4267C16.8835 47.8148 19.2079 49.3573 20.1377 49.9742C20.6026 50.2827 21.9973 50.8997 22.7721 50.7454C23.7019 50.5912 23.7019 48.8945 24.3217 48.8945C25.0966 48.8945 25.2515 51.5166 27.266 51.5166C27.8859 51.5166 28.9706 51.2082 28.9706 50.5912V50.437C28.9706 49.6657 27.8859 49.0488 27.8859 48.4318V48.1233C27.8859 47.8148 28.3508 47.3521 28.6607 47.3521C29.2806 47.3521 29.7455 47.8148 30.5203 47.9691C30.2104 47.6606 28.8157 47.0436 28.1958 47.0436C27.7309 47.0436 27.266 47.8148 27.266 48.1233C27.266 48.8945 28.1958 49.5115 28.1958 49.9742C28.1958 50.437 27.8859 50.8997 27.576 50.8997C25.5614 50.8997 25.4065 48.2776 24.4767 48.2776C23.237 48.2776 24.4767 50.7454 20.7576 49.203C19.9827 48.8945 17.8133 47.1979 17.8133 46.4267C17.8133 45.1927 19.6728 44.113 18.5881 43.0334C18.1232 42.5706 17.6583 42.2621 17.3484 41.9537C16.8835 41.4909 16.4186 40.4112 16.4186 40.4112C16.1087 40.4112 16.1087 40.4112 16.1087 40.7197ZM32.9997 10.4884C32.9997 13.5732 33.3096 14.6529 31.2951 16.1953C30.5203 16.8123 29.7455 17.1208 28.6607 17.4292C28.1958 17.5835 25.7164 18.0462 25.5614 18.2004C26.9561 18.2004 28.9706 17.7377 30.0554 17.5835C32.2249 16.9665 32.5348 17.4292 33.9295 18.3547C33.9295 18.0462 33.1547 17.4292 32.9997 17.275C32.5348 16.8123 32.3798 16.658 31.4501 16.658C31.915 16.0411 32.2249 16.0411 32.6898 15.2699C32.9997 14.4986 33.1547 14.0359 33.3096 13.2647C33.7745 13.8817 33.7745 14.1902 34.3944 14.8071C34.7043 15.1156 35.6341 15.7326 35.944 15.8868C35.0142 14.4986 33.1547 13.2647 33.1547 11.1053V10.7968C33.1547 9.8714 34.0844 8.7917 35.0142 8.7917H35.944C36.2539 8.7917 37.3387 9.10019 37.4936 9.25443C37.1837 9.71715 36.5639 10.9511 36.5639 11.4138V11.7223C36.5639 12.185 37.1837 12.4935 37.6486 12.4935H38.1135L41.8326 12.0308C42.1426 12.0308 42.7624 12.4935 42.7624 12.802C42.7624 13.5732 41.0578 14.1902 41.0578 15.4241V15.8868C41.0578 18.8174 47.1014 17.4292 47.1014 18.8174V19.1259C47.1014 19.7429 46.3266 20.5141 46.3266 21.131C46.3266 22.8277 48.4961 22.5192 48.4961 23.4447V23.7531C48.4961 24.2159 48.0312 25.1413 47.5663 25.1413C46.6365 25.1413 46.0167 24.6786 45.2418 24.6786V24.9871C45.7067 25.1413 46.7915 25.604 47.2564 25.604H48.0312C48.806 25.604 49.2709 24.5244 49.2709 23.7531V23.4447C49.2709 22.6735 46.9464 22.2107 46.9464 21.4395C46.9464 20.9768 48.0312 20.3598 48.0312 19.5886C48.0312 18.0462 46.7915 17.275 45.3968 17.275C44.1571 17.275 41.9876 16.8123 41.9876 15.7326V15.5783C41.9876 14.6529 43.8472 14.0359 43.8472 12.9562C43.8472 12.3393 42.7624 11.4138 41.9876 11.4138H41.5227L37.8036 11.8765C37.6486 11.8765 37.3387 11.7223 37.3387 11.5681C37.3387 10.7968 38.2685 10.0256 38.2685 9.25443C38.2685 8.63746 36.2539 8.17474 35.4791 8.17474H35.6341C34.2394 8.17474 32.9997 9.10019 32.9997 10.4884Z" fill="#827AFF"/>
</svg>
