<svg width="14" height="23" viewBox="0 0 14 23" fill="none" xmlns="http://www.w3.org/2000/svg">
<path d="M12.8847 0.822617L9.83203 0.818115C6.40243 0.818115 4.18607 2.90808 4.18607 6.14285V8.59791H1.11673C0.851497 8.59791 0.636719 8.79554 0.636719 9.03932V12.5964C0.636719 12.8402 0.851742 13.0376 1.11673 13.0376H4.18607V22.0133C4.18607 22.2571 4.40085 22.4545 4.66608 22.4545H8.6707C8.93593 22.4545 9.15071 22.2568 9.15071 22.0133V13.0376H12.7395C13.0047 13.0376 13.2195 12.8402 13.2195 12.5964L13.221 9.03932C13.221 8.92227 13.1703 8.81017 13.0804 8.72734C12.9905 8.64451 12.8681 8.59791 12.7407 8.59791H9.15071V6.51673C9.15071 5.51643 9.41006 5.00862 10.8278 5.00862L12.8842 5.00795C13.1492 5.00795 13.364 4.81032 13.364 4.56677V1.26379C13.364 1.02047 13.1495 0.823067 12.8847 0.822617Z" fill="#EEEEEE"/>
</svg>
