<svg width="157" height="56" viewBox="0 0 157 56" fill="none" xmlns="http://www.w3.org/2000/svg">
<path d="M12.6186 10.147C9.58882 11.4137 6.25808 14.992 5.20612 19.4836C3.8739 25.1746 9.41789 27.5811 9.87261 26.792C10.4078 25.8648 8.8792 25.5513 8.56454 22.5986C8.15787 18.7848 9.93313 14.5234 12.1674 12.6536C12.5827 12.3062 12.5629 12.7897 12.5629 13.6841C12.5629 15.2834 12.4744 29.6403 12.4744 32.6366C12.4744 36.6909 12.3067 37.9712 12.0056 39.2363C11.7005 40.5183 11.21 41.3846 11.5817 41.7183C11.9969 42.0916 13.77 41.2037 14.7965 39.7729C16.0274 38.0569 16.4583 35.996 16.5357 33.7579C16.6291 31.06 16.6251 26.7789 16.6291 24.337C16.6328 22.0975 16.6669 15.5395 16.5898 11.5971C16.5709 10.6301 13.8857 9.61561 12.6185 10.1459L12.6186 10.147ZM120.206 29.1212C120.108 31.2289 119.641 32.8764 119.061 34.0385C117.939 36.2882 115.61 36.9868 114.621 33.7527C114.082 31.9899 114.057 29.0457 114.444 26.5856C114.839 24.0795 115.94 22.1869 117.763 22.3576C119.562 22.5263 120.404 24.841 120.206 29.1211V29.1212ZM89.8834 42.1983C89.8589 45.7005 89.3071 48.7711 88.1236 49.663C86.445 50.9276 84.1889 49.979 84.656 47.4234C85.0694 45.162 87.0243 42.8525 89.8881 40.0306C89.8881 40.0306 89.8941 40.6741 89.8834 42.1983H89.8834ZM89.4249 29.1008C89.3223 31.0205 88.8239 32.9491 88.2803 34.0388C87.1581 36.2885 84.812 36.9918 83.8398 33.753C83.175 31.5401 83.3342 28.6761 83.6631 26.8716C84.0899 24.5302 85.1244 22.3581 86.9824 22.3581C88.7888 22.3581 89.6796 24.3374 89.4249 29.1009V29.1008ZM71.859 29.0714C71.7489 31.1046 71.3517 32.8043 70.7144 34.0388C69.5613 36.273 67.28 36.9816 66.2739 33.753C65.5486 31.425 65.7955 28.2506 66.0972 26.5359C66.5449 23.9912 67.6662 22.1871 69.4165 22.3581C71.2144 22.5335 72.0885 24.8413 71.859 29.0716V29.0714ZM152.36 31.4463C151.92 31.4463 151.719 31.8988 151.554 32.6604C150.978 35.3085 150.373 35.9065 149.593 35.9065C148.721 35.9065 147.938 34.5952 147.737 31.9703C147.579 29.9063 147.604 26.1064 147.806 22.3265C147.848 21.5499 147.633 20.7814 145.548 20.0247C144.65 19.6992 143.346 19.22 142.696 20.7859C140.861 25.2101 140.143 28.7225 139.974 30.1493C139.965 30.2232 139.874 30.2382 139.858 30.0657C139.751 28.9229 139.51 26.8462 139.48 22.483C139.474 21.6317 139.294 20.9071 138.353 20.3139C137.742 19.9289 135.889 19.2481 135.221 20.0581C134.643 20.7205 133.973 22.5032 133.277 24.6163C132.712 26.3338 132.318 27.4957 132.318 27.4957C132.318 27.4957 132.325 22.8615 132.332 21.1037C132.335 20.4405 131.879 20.2196 131.742 20.1795C131.124 20.0003 129.906 19.701 129.389 19.701C128.751 19.701 128.595 20.0571 128.595 20.5759C128.595 20.6438 128.494 26.6772 128.494 30.8961C128.494 31.0793 128.494 31.2793 128.496 31.4917C128.143 33.4307 126.999 36.0629 125.755 36.0629C124.509 36.0629 123.922 34.9624 123.922 29.9329C123.922 26.9988 124.01 25.723 124.053 23.6009C124.078 22.3786 124.127 21.44 124.124 21.227C124.115 20.5738 122.984 20.2445 122.458 20.1229C121.929 20.0002 121.47 19.9526 121.111 19.973C120.603 20.0017 120.244 20.3344 120.244 20.792C120.244 21.0373 120.246 21.5039 120.246 21.5039C119.592 20.4775 118.541 19.763 117.841 19.556C115.956 18.9969 113.988 19.4923 112.505 21.5659C111.325 23.2135 110.615 25.0795 110.335 27.7605C110.13 29.7206 110.197 31.7081 110.56 33.3891C110.121 35.2858 109.306 36.0629 108.413 36.0629C107.116 36.0629 106.177 33.9496 106.286 30.2947C106.358 27.8908 106.839 26.2038 107.366 23.7631C107.59 22.7227 107.408 22.178 106.95 21.656C106.531 21.1772 105.637 20.9326 104.352 21.2334C103.436 21.4479 102.127 21.6786 100.93 21.8558C100.93 21.8558 101.002 21.5679 101.062 21.0603C101.373 18.3981 98.4765 18.6141 97.5524 19.4644C97.0008 19.9721 96.6253 20.5708 96.4828 21.6473C96.2568 23.3556 97.6518 24.1613 97.6518 24.1613C97.1941 26.2538 96.0722 28.9873 94.9138 30.9636C94.2934 32.0225 93.8188 32.8071 93.2061 33.6411C93.2038 33.3306 93.2022 33.02 93.201 32.7109C93.187 28.3116 93.2456 24.8493 93.2715 23.6013C93.2967 22.379 93.3458 21.4653 93.3431 21.2523C93.3361 20.7745 93.0568 20.5941 92.4757 20.3656C91.962 20.1636 91.3545 20.0237 90.7244 19.975C89.9291 19.913 89.45 20.3343 89.4624 20.8325C89.4648 20.9265 89.4648 21.5041 89.4648 21.5041C88.8108 20.4776 87.7588 19.7632 87.059 19.5562C85.1738 18.9973 83.2067 19.4927 81.723 21.5661C80.544 23.2136 79.7718 25.5256 79.553 27.7403C79.3492 29.8044 79.3869 31.5585 79.6647 33.0361C79.365 34.5158 78.5031 36.063 77.5286 36.063C76.2829 36.063 75.574 34.9626 75.574 29.9331C75.574 26.999 75.6622 25.7232 75.7056 23.6013C75.7307 22.379 75.7793 21.4402 75.7766 21.2274C75.7674 20.5742 74.6364 20.245 74.1102 20.123C73.5596 19.9959 73.0842 19.9491 72.7191 19.976C72.2375 20.0118 71.8989 20.4426 71.8989 20.7638V21.5041C71.2449 20.4776 70.1929 19.7632 69.493 19.5562C67.6079 18.9973 65.6518 19.5007 64.1571 21.5661C63.1824 22.9128 62.3933 24.4058 61.9871 27.7109C61.8698 28.6661 61.818 29.5605 61.8247 30.3964C61.436 32.7705 59.7193 35.5066 58.315 35.5066C57.4933 35.5066 56.7107 33.9148 56.7107 30.5224C56.7107 26.0034 56.9908 19.5694 57.0381 18.9493C57.0381 18.9493 58.8124 18.9191 59.156 18.9152C60.041 18.9054 60.8425 18.9264 62.0213 18.8661C62.6125 18.836 63.1821 16.7169 62.5719 16.4546C62.2953 16.3359 60.3407 16.2319 59.5658 16.2155C58.9143 16.2007 57.1004 16.0667 57.1004 16.0667C57.1004 16.0667 57.2631 11.7961 57.301 11.3449C57.3331 10.9689 56.846 10.7753 56.5667 10.6579C55.8875 10.371 55.2798 10.2336 54.5595 10.0853C53.5643 9.88025 53.1129 10.0808 53.0247 10.9196C52.8919 12.1927 52.8231 15.9216 52.8231 15.9216C52.0928 15.9216 49.5982 15.779 48.8677 15.779C48.189 15.779 47.4565 18.6942 48.3948 18.73C49.4744 18.7718 51.3558 18.8079 52.6031 18.8455C52.6031 18.8455 52.5475 25.3855 52.5475 27.4046C52.5475 27.6194 52.5494 27.8263 52.5498 28.027C51.8633 31.6004 49.4455 33.5306 49.4455 33.5306C49.9648 31.1666 48.9041 29.3914 46.9935 27.8887C46.2897 27.3349 44.9001 26.2865 43.3454 25.1377C43.3454 25.1377 44.2458 24.2514 45.0444 22.4682C45.6102 21.205 45.6346 19.7595 44.2458 19.4408C41.9511 18.9137 40.059 20.5969 39.4946 22.3938C39.0573 23.7858 39.2906 24.8187 40.1472 25.8917C40.2097 25.9701 40.2775 26.0502 40.3475 26.1308C39.8295 27.128 39.1179 28.4705 38.5152 29.5116C36.8423 32.4021 35.5786 34.6885 34.6236 34.6885C33.8601 34.6885 33.8704 32.3673 33.8704 30.1939C33.8704 28.3203 34.0089 25.5035 34.1195 22.5871C34.1561 21.6226 33.6733 21.0732 32.8638 20.5755C32.3719 20.2731 31.3222 19.6787 30.7143 19.6787C29.8043 19.6787 27.179 19.8023 24.6984 26.9687C24.3857 27.872 23.7716 29.5178 23.7716 29.5178L23.8244 20.9C23.8244 20.6979 23.7167 20.5026 23.47 20.3689C23.052 20.1422 21.9355 19.6787 20.9428 19.6787C20.4698 19.6787 20.2337 19.8984 20.2337 20.3363L20.1471 33.8191C20.1471 34.8435 20.1739 36.0386 20.2753 36.5613C20.3763 37.0846 20.54 37.5104 20.7428 37.7637C20.9452 38.0165 21.1794 38.2094 21.5655 38.289C21.9248 38.3629 23.8925 38.6152 23.9947 37.8642C24.1173 36.9642 24.122 35.9907 25.1552 32.3601C26.7637 26.7077 28.8609 23.9498 29.8468 22.9703C30.0192 22.7991 30.2161 22.7889 30.2066 23.0691C30.1645 24.3083 30.0165 27.4049 29.9168 30.0357C29.6498 37.0759 30.9321 38.3808 32.7647 38.3808C34.1667 38.3808 36.1431 36.9895 38.2617 33.4677C39.5825 31.2729 40.8649 29.1209 41.7862 27.5699C42.4283 28.1635 43.1489 28.8025 43.869 29.485C45.5423 31.0712 46.0917 32.5784 45.7272 34.0082C45.4484 35.1012 44.3984 36.2277 42.5297 35.1328C41.9851 34.8134 41.7526 34.5666 41.205 34.2065C40.9107 34.013 40.4615 33.9552 40.1921 34.1579C39.4925 34.6847 39.0924 35.3548 38.8639 36.1845C38.6416 36.9917 39.4511 37.4185 40.2903 37.7917C41.0129 38.113 42.5659 38.4041 43.5563 38.4373C47.4152 38.5661 50.5066 36.5764 52.6585 31.4438C53.0437 35.8764 54.6832 38.3847 57.5316 38.3847C59.4359 38.3847 61.3452 35.9264 62.1801 33.508C62.4198 34.4938 62.7746 35.3511 63.2328 36.076C65.4277 39.5491 69.6855 38.8016 71.8243 35.8524C72.4856 34.9411 72.5862 34.6136 72.5862 34.6136C72.8982 37.3984 75.1436 38.3713 76.4292 38.3713C77.8691 38.3713 79.3559 37.6915 80.3978 35.3487C80.5199 35.6029 80.6532 35.8457 80.7987 36.0759C82.9936 39.549 87.2514 38.8015 89.3902 35.8523C89.4911 35.7139 89.5786 35.5884 89.6551 35.4758L89.7178 37.305C89.7178 37.305 88.4977 38.4228 87.7487 39.1086C84.4524 42.129 81.9459 44.4206 81.7615 47.0892C81.5248 50.4918 84.2879 51.7564 86.3784 51.9221C88.5984 52.0981 90.4995 50.8733 91.668 49.1593C92.6958 47.6506 93.3685 44.4034 93.3192 41.1964C93.2995 39.9121 93.2671 38.2792 93.2417 36.5289C94.4003 35.1851 95.7056 33.4868 96.9076 31.4988C98.2174 29.3323 99.6211 26.4229 100.34 24.1587C100.34 24.1587 101.56 24.1692 102.861 24.0841C103.278 24.0569 103.397 24.1418 103.32 24.4466C103.227 24.8149 101.676 30.7916 103.092 34.773C104.061 37.4986 106.246 38.3755 107.541 38.3755C109.058 38.3755 110.508 37.2318 111.285 35.5335C111.379 35.7228 111.477 35.906 111.584 36.0752C113.779 39.5483 118.022 38.7963 120.175 35.8515C120.662 35.1871 120.937 34.6128 120.937 34.6128C121.4 37.4949 123.644 38.3852 124.929 38.3852C126.268 38.3852 127.539 37.837 128.57 35.4006C128.613 36.4733 128.681 37.3505 128.788 37.627C128.853 37.7962 129.234 38.0085 129.51 38.111C130.735 38.5647 131.985 38.3501 132.447 38.2568C132.767 38.1921 133.017 37.9356 133.051 37.2731C133.14 35.5338 133.085 32.6113 133.613 30.4394C134.5 26.7944 135.326 25.3805 135.718 24.6805C135.938 24.2884 136.186 24.2237 136.195 24.6387C136.213 25.4786 136.255 27.9448 136.598 31.2584C136.85 33.6954 137.187 35.1358 137.446 35.5917C138.185 36.8954 139.097 36.9571 139.84 36.9571C140.313 36.9571 141.301 36.8267 141.213 35.9971C141.17 35.5927 141.245 33.0936 142.119 29.5026C142.69 27.1575 143.641 25.0386 143.984 24.264C144.111 23.9783 144.169 24.2035 144.167 24.2473C144.095 25.8623 143.933 31.1447 144.592 34.0338C145.485 37.9475 148.068 38.3855 148.968 38.3855C150.89 38.3855 152.462 36.9255 152.991 33.0839C153.119 32.1595 152.93 31.4456 152.364 31.4456" fill="url(#paint0_linear_36:4932)"/>
<defs>
<linearGradient id="paint0_linear_36:4932" x1="153" y1="9.99999" x2="5" y2="52" gradientUnits="userSpaceOnUse">
<stop stop-color="#4A6DFF"/>
<stop offset="0.322917" stop-color="#ED41FF"/>
<stop offset="0.723958" stop-color="#FF3C63"/>
<stop offset="1" stop-color="#FFA92E"/>
</linearGradient>
</defs>
</svg>
