<svg width="22" height="22" viewBox="0 0 22 22" fill="none" xmlns="http://www.w3.org/2000/svg">
<path d="M15.5622 0.818115H6.43787C3.33927 0.818115 0.818359 3.33915 0.818359 6.43774V15.5621C0.818359 18.6608 3.33927 21.1818 6.43787 21.1818H15.5622C18.6611 21.1818 21.182 18.6607 21.182 15.5621V6.43774C21.1821 3.33915 18.6611 0.818115 15.5622 0.818115ZM19.3754 15.5621C19.3754 17.6646 17.6648 19.375 15.5624 19.375H6.43787C4.33552 19.3751 2.62512 17.6646 2.62512 15.5621V6.43774C2.62512 4.3354 4.33552 2.62488 6.43787 2.62488H15.5622C17.6647 2.62488 19.3752 4.3354 19.3752 6.43774L19.3754 15.5621Z" fill="#EEEEEE"/>
<path d="M11.0002 5.75304C8.10682 5.75304 5.75297 8.10689 5.75297 11.0002C5.75297 13.8935 8.10682 16.2472 11.0002 16.2472C13.8935 16.2472 16.2474 13.8935 16.2474 11.0002C16.2474 8.10689 13.8935 5.75304 11.0002 5.75304ZM11.0002 14.4403C9.10319 14.4403 7.55973 12.8971 7.55973 11.0001C7.55973 9.10301 9.10307 7.55968 11.0002 7.55968C12.8973 7.55968 14.4406 9.10301 14.4406 11.0001C14.4406 12.8971 12.8971 14.4403 11.0002 14.4403Z" fill="#EEEEEE"/>
<path d="M16.4674 4.22117C16.1193 4.22117 15.7773 4.3621 15.5315 4.60902C15.2845 4.85474 15.1424 5.19682 15.1424 5.54613C15.1424 5.89435 15.2846 6.23631 15.5315 6.48323C15.7772 6.72895 16.1193 6.87108 16.4674 6.87108C16.8167 6.87108 17.1576 6.72895 17.4045 6.48323C17.6514 6.23631 17.7924 5.89423 17.7924 5.54613C17.7924 5.19682 17.6514 4.85474 17.4045 4.60902C17.1588 4.3621 16.8167 4.22117 16.4674 4.22117Z" fill="#EEEEEE"/>
</svg>
