<svg width="128" height="120" viewBox="0 0 128 120" fill="none" xmlns="http://www.w3.org/2000/svg">
<g clip-path="url(#clip0)">
<path d="M89.4143 116.761V117.069C89.5693 117.069 90.1891 117.069 90.4991 117.069C90.964 117.069 91.5838 117.069 91.7388 117.069V116.761L91.4289 116.607C91.2739 116.607 91.1189 116.452 91.1189 116.144C91.1189 115.99 91.1189 115.99 91.1189 115.99C91.4289 115.527 92.8235 114.139 93.2884 113.83C93.2884 114.602 93.2884 115.835 93.2884 116.452C93.2884 116.607 93.2884 116.761 92.6686 116.915V117.224C92.8235 117.224 93.2884 117.224 93.5984 117.224C94.0632 117.224 94.5281 117.224 94.8381 117.224C94.8381 117.224 94.993 116.915 94.8381 116.915C94.6831 116.915 94.3732 116.915 94.2182 116.761C94.0632 116.761 94.0632 116.607 93.9083 116.452C93.9083 115.835 93.9083 113.985 93.9083 113.213C93.9083 113.059 93.9083 112.905 94.0632 112.905C94.2182 112.905 94.3732 112.905 94.5281 112.751V112.442C94.3732 112.442 93.7533 112.442 93.4434 112.442C92.9785 112.442 92.6686 112.442 92.3586 112.442V112.751C92.5136 112.751 92.6686 112.751 92.6686 112.751C92.8235 112.751 92.8235 112.905 92.8235 113.059V113.213C92.5136 113.676 91.1189 115.064 90.809 115.373C90.809 114.91 90.809 113.522 90.809 113.059C90.809 112.751 90.964 112.751 91.1189 112.751C91.2739 112.751 91.4289 112.751 91.5838 112.751V112.442C91.4289 112.442 91.1189 112.442 90.3441 112.442C89.7243 112.442 89.4143 112.442 89.2594 112.442V112.751C89.4143 112.751 89.5693 112.751 89.7243 112.751C89.8792 112.751 90.0342 112.905 90.0342 113.059C90.0342 113.522 90.0342 113.985 90.0342 114.447C90.0342 115.064 90.0342 115.527 90.0342 116.144C90.0342 116.452 90.0342 116.607 89.7243 116.761C89.8792 116.607 89.5693 116.761 89.4143 116.761ZM88.1746 116.144V115.835C87.7097 116.298 87.2448 116.452 86.7799 116.452C86.1601 116.452 85.6952 116.298 85.3853 115.835C85.0753 115.527 84.9204 114.91 84.9204 114.293C84.9204 113.522 85.3853 112.596 86.1601 112.596C86.7799 112.596 87.2448 113.059 87.5548 113.213H87.7097C87.8647 113.213 88.0197 112.905 88.1746 112.751V112.596C88.1746 112.442 88.0197 112.442 87.8647 112.288C87.7097 112.134 87.3998 112.134 86.9349 112.134C86.625 112.134 85.8502 112.288 85.3853 112.596C84.6105 113.059 84.1456 113.83 84.1456 114.756C84.1456 115.373 84.3005 115.99 84.6105 116.298C85.0753 116.915 85.5402 117.069 86.3151 117.069C86.78 117.224 87.5548 116.915 88.1746 116.144ZM80.8913 114.756C80.8913 114.91 80.8913 115.681 80.8913 115.99C80.8913 116.144 80.8913 116.144 80.7364 116.298C80.5814 116.452 80.2715 116.452 80.1165 116.452C79.6516 116.452 79.3417 116.144 79.3417 115.681C79.3417 115.527 79.3417 115.373 79.4967 115.219C79.4967 115.064 80.2715 114.91 80.8913 114.756C80.7364 114.602 80.8913 114.756 80.8913 114.756ZM80.8913 113.83C80.8913 113.985 80.8913 113.985 80.8913 114.139V114.293C80.4264 114.447 79.0318 114.91 78.5669 115.064C78.5669 115.219 78.4119 115.527 78.4119 115.681C78.4119 116.144 78.5669 116.452 78.8768 116.761C79.0318 116.915 79.3417 117.069 79.4967 117.069C79.8066 117.069 80.2715 116.761 80.8913 116.452C80.8913 116.607 80.8913 116.607 81.0463 116.761C81.2013 116.915 81.3562 117.069 81.6661 117.069C81.9761 117.069 82.441 116.915 82.5959 116.607V116.298C82.441 116.298 82.441 116.298 82.131 116.298C81.8211 116.298 81.6661 116.144 81.6661 115.835C81.6661 115.373 81.6661 114.447 81.6661 113.83C81.6661 113.368 81.6661 112.905 81.3562 112.596C81.0463 112.134 80.7364 111.979 80.1165 111.979C79.8066 111.979 79.0318 112.288 78.5669 112.596C78.5669 112.596 78.2569 113.213 78.2569 113.368C78.2569 113.522 78.5669 113.676 78.5669 113.676C78.7218 113.213 78.8768 112.905 79.0318 112.751C79.0318 112.751 79.1867 112.596 79.4967 112.596C79.8066 112.596 80.2715 112.751 80.4264 113.059C80.7364 113.368 80.8913 113.676 80.8913 113.83ZM74.0729 112.751C74.5378 112.751 74.8477 112.905 75.1577 113.213C75.4676 113.522 75.6226 114.139 75.6226 114.602C75.6226 115.219 75.4676 115.835 75.0027 116.144C74.6928 116.452 74.3829 116.452 74.2279 116.452C73.763 116.452 73.4531 116.298 73.2981 116.144C73.1431 115.99 73.1431 115.835 72.9882 115.527C72.9882 115.064 72.9882 113.522 72.9882 113.213C72.9882 113.059 72.9882 113.059 73.1431 112.905C73.2981 112.905 73.763 112.751 74.0729 112.751ZM71.2836 112.751C71.5935 112.751 71.7485 112.905 71.9034 112.905C72.0584 112.905 72.0584 113.059 72.0584 113.368C72.0584 113.83 72.0584 114.293 72.0584 115.835C72.0584 117.841 72.0584 118.458 72.0584 118.92C72.0584 119.383 71.9034 119.383 71.7485 119.537L71.2836 119.692V120C71.7485 120 72.5233 119.846 73.608 119.846H74.0729C74.0729 119.846 74.2279 119.537 74.0729 119.537C73.763 119.537 73.4531 119.537 73.2981 119.383C72.9882 119.383 72.9882 119.229 72.9882 118.92C72.9882 118.458 72.9882 117.841 72.9882 117.069C73.1431 117.069 73.2981 117.069 73.4531 117.069C74.0729 117.069 74.8477 116.761 75.4676 116.298C76.0875 115.835 76.5523 115.064 76.5523 114.139C76.5523 113.676 76.3974 113.059 75.9325 112.596C75.6226 112.288 75.1577 111.979 74.6928 111.979C74.2279 111.979 73.763 112.134 72.9882 112.751C72.9882 112.596 72.9882 112.134 72.9882 111.979C72.9882 111.979 72.9882 111.825 72.8332 111.825C72.3683 112.134 71.5935 112.288 71.2836 112.442C71.1286 112.596 71.1286 112.751 71.2836 112.751ZM65.24 116.761V117.069C65.395 117.069 66.0148 117.069 66.4797 117.069C66.6347 117.069 67.4095 117.069 67.5644 117.069V116.761C67.4095 116.761 67.2545 116.761 67.0996 116.761C66.9446 116.761 66.7896 116.607 66.7896 116.452C66.7896 116.144 66.7896 115.373 66.7896 114.91C67.0996 114.91 67.4095 115.064 67.5644 115.527C68.0293 116.144 68.1843 116.452 68.4942 116.915C68.6492 117.224 68.9591 117.224 69.2691 117.224C69.7339 117.224 70.1988 117.224 70.3538 117.224V116.915C69.7339 116.915 69.579 116.761 69.2691 116.452C68.9591 115.99 68.6492 115.527 68.3393 115.064C68.1843 114.91 68.0293 114.756 67.8744 114.602C68.0293 114.447 68.3393 114.139 68.4942 113.676C68.8042 113.213 68.9591 113.059 69.1141 113.059C69.2691 113.059 69.424 113.059 69.579 113.213C69.579 113.213 69.579 113.213 69.7339 113.213C69.7339 113.059 69.8889 112.442 69.8889 112.442C69.7339 112.288 69.579 112.288 69.424 112.288C69.1141 112.288 68.6492 112.442 68.1843 113.522C68.0293 113.83 67.8744 114.139 67.7194 114.293C67.5645 114.447 67.4095 114.447 66.9446 114.602V113.059C66.9446 112.905 67.0996 112.751 67.2545 112.751C67.4095 112.751 67.5645 112.751 67.7194 112.751V112.442C67.5645 112.442 67.2545 112.442 66.4797 112.442C65.8599 112.442 65.5499 112.442 65.395 112.442V112.751C65.5499 112.751 65.7049 112.751 65.8599 112.751C66.0148 112.751 66.1698 112.905 66.1698 113.059C66.1698 113.213 66.1698 113.985 66.1698 114.602C66.1698 115.219 66.1698 116.298 66.1698 116.452C66.1698 116.607 66.0148 116.761 65.8599 116.761C65.5499 116.607 65.395 116.761 65.24 116.761ZM56.0971 116.761V117.069C56.2521 117.069 56.717 117.069 57.1819 117.069C57.8017 117.069 58.2666 117.069 58.4216 117.069V116.761L57.9567 116.607C57.8017 116.607 57.6468 116.452 57.6468 116.144V114.756H59.8163C59.8163 115.219 59.8163 115.835 59.8163 116.144C59.8163 116.298 59.8163 116.452 59.5063 116.452C59.3514 116.452 59.1964 116.452 59.0414 116.607V116.915C59.1964 116.915 59.8163 116.915 60.2812 116.915C60.7461 116.915 61.056 116.915 61.5209 116.915C61.5209 116.915 61.6758 116.607 61.5209 116.607L61.056 116.452C60.901 116.452 60.7461 116.298 60.7461 115.99C60.7461 115.681 60.7461 114.91 60.7461 114.293C60.7461 113.676 60.7461 113.059 60.7461 112.751C60.7461 112.442 60.901 112.442 61.056 112.288C61.2109 112.288 61.3659 112.288 61.3659 112.288V111.979C61.2109 111.979 60.7461 111.979 60.2812 111.979C59.6613 111.979 59.3514 111.979 59.1964 111.979V112.288C59.3514 112.288 59.5063 112.288 59.6613 112.442C59.8163 112.442 59.9712 112.596 59.9712 112.751C59.9712 112.751 59.9712 113.83 59.9712 113.985C59.8163 113.985 59.3514 113.985 58.8865 113.985H57.9567V112.751C57.9567 112.596 58.1117 112.442 58.2666 112.442C58.4216 112.442 58.5766 112.442 58.7315 112.442V112.134C58.5766 112.134 58.2666 112.134 57.6468 112.134C57.0269 112.134 56.717 112.134 56.562 112.134V112.442C56.717 112.442 56.872 112.442 57.0269 112.442C57.1819 112.442 57.3368 112.596 57.3368 112.751C57.3368 113.059 57.3368 113.83 57.3368 114.293C57.3368 114.91 57.3368 115.527 57.3368 115.99C57.3368 116.298 57.3368 116.452 57.0269 116.452L56.0971 116.761ZM51.7582 112.596C52.8429 112.596 53.4628 113.522 53.4628 114.91C53.4628 115.681 53.3078 116.144 52.9979 116.452C52.8429 116.607 52.533 116.761 52.223 116.761C51.2933 116.761 50.5184 115.835 50.5184 114.293C50.5184 113.368 50.8284 112.905 51.1383 112.751C51.2933 112.596 51.6032 112.596 51.7582 112.596ZM52.223 112.134C51.6032 112.134 51.1383 112.288 50.6734 112.596C50.0536 113.059 49.5887 113.676 49.5887 114.602C49.5887 115.835 50.2085 117.224 52.0681 117.224C52.533 117.224 53.1528 116.915 53.4628 116.761C54.2376 116.298 54.5475 115.527 54.5475 114.602C54.3925 113.213 53.6177 112.134 52.223 112.134ZM42.9252 116.761V117.069C43.0802 117.069 43.5451 117.069 43.855 117.069C44.1649 117.069 44.7848 117.069 44.9398 117.069V116.761C44.7848 116.761 44.6298 116.761 44.4749 116.607C44.3199 116.607 44.1649 116.452 44.3199 115.99C44.4749 115.527 45.0947 113.83 45.0947 113.522C45.2497 113.985 46.0245 115.681 46.1795 116.298C46.1795 116.452 46.1795 116.452 46.1795 116.452C46.0245 116.452 45.8695 116.607 45.8695 116.607V116.915C46.0245 116.915 46.4894 116.915 46.9543 116.915C47.2642 116.915 47.8841 116.915 48.194 116.915V116.607C47.5741 116.452 47.5741 116.452 47.2642 115.99C46.9543 115.373 46.0245 113.213 45.7146 111.979C45.7146 111.979 45.7146 111.979 45.5596 111.979C45.5596 111.979 44.9398 112.288 44.7848 112.442C44.7848 112.442 44.7848 112.442 44.7848 112.596C44.9398 112.751 44.9398 112.905 44.7848 113.059C44.4749 113.985 43.855 115.681 43.5451 116.144C43.7 116.452 43.5451 116.607 42.9252 116.761ZM40.4458 114.756C40.4458 114.91 40.4458 115.681 40.4458 115.99C40.4458 116.144 40.4458 116.144 40.2908 116.298C40.1359 116.452 39.826 116.452 39.671 116.452C39.2061 116.452 38.8962 116.144 38.8962 115.681C38.8962 115.527 38.8962 115.373 39.0511 115.219C39.2061 115.064 39.9809 114.91 40.4458 114.756C40.4458 114.602 40.4458 114.756 40.4458 114.756ZM40.4458 113.83C40.4458 113.985 40.4458 113.985 40.4458 114.139V114.293C39.9809 114.447 38.5862 114.91 38.1214 115.064C38.1214 115.219 37.9664 115.527 37.9664 115.681C37.9664 116.144 38.1214 116.452 38.4313 116.761C38.5862 116.915 38.8962 117.069 39.0511 117.069C39.3611 117.069 39.826 116.761 40.4458 116.452C40.4458 116.607 40.4458 116.607 40.6008 116.761C40.7557 116.915 40.9107 117.069 41.2206 117.069C41.5306 117.069 41.9954 116.915 42.1504 116.607V116.298C41.9954 116.298 41.9954 116.298 41.6855 116.298C41.3756 116.298 41.2206 116.144 41.2206 115.835C41.2206 115.373 41.2206 114.447 41.2206 113.83C41.2206 113.368 41.2206 112.905 40.9107 112.596C40.6008 112.134 40.2908 111.979 39.671 111.979C39.3611 111.979 38.5862 112.288 38.1214 112.596C38.1214 112.596 37.8114 113.213 37.8114 113.368C37.8114 113.522 38.1214 113.676 38.1214 113.676C38.2763 113.213 38.4313 112.905 38.5862 112.751C38.5862 112.751 38.7412 112.596 39.0511 112.596C39.3611 112.596 39.826 112.751 39.9809 113.059C40.4458 113.368 40.4458 113.676 40.4458 113.83ZM36.4168 116.144V115.835C35.9519 116.298 35.487 116.452 35.0221 116.452C34.4022 116.452 33.9373 116.298 33.6274 115.835C33.3175 115.527 33.1625 114.91 33.1625 114.293C33.1625 113.522 33.6274 112.596 34.4022 112.596C35.0221 112.596 35.487 113.059 35.7969 113.213H35.9519C36.1068 113.213 36.2618 112.905 36.4168 112.751V112.596C36.4168 112.442 36.2618 112.442 36.1068 112.288C35.9519 112.134 35.6419 112.134 35.177 112.134C34.8671 112.134 34.0923 112.288 33.6274 112.596C32.8526 113.059 32.3877 113.83 32.3877 114.756C32.3877 115.373 32.5427 115.99 32.8526 116.298C33.3175 116.915 33.7824 117.069 34.5572 117.069C34.8671 117.224 35.7969 116.915 36.4168 116.144Z" fill="#827AFF"/>
<path fill-rule="evenodd" clip-rule="evenodd" d="M75.3127 0H74.8478C74.073 0.616967 74.5379 0.462725 74.073 1.23393C73.918 1.69666 73.6081 2.15938 73.2981 2.46787C72.8333 3.39332 72.0584 4.16452 71.7485 4.93573C72.2134 4.78149 72.8333 4.31877 73.2981 4.16452C74.073 3.85604 74.3829 4.31877 74.8478 4.62725C75.1577 4.47301 76.3974 3.7018 76.7074 3.7018H77.0173C77.0173 4.01028 75.6226 4.93573 75.3127 5.08997C75.3127 5.70694 75.9325 6.01542 76.0875 6.47815C76.3974 6.32391 76.3974 6.16967 77.1722 6.16967H78.4119C78.8768 6.16967 79.1868 7.09512 80.4265 7.09512C80.5814 7.09512 81.0463 6.32391 81.0463 6.01542C81.0463 5.5527 80.5814 5.24422 80.4265 5.08997C79.8066 4.62725 79.9616 4.78149 79.1868 4.78149C79.0318 4.78149 79.0318 4.78149 79.0318 4.62725V4.01028C79.4967 3.85604 80.7364 3.54756 81.0463 3.08483C80.8914 2.62211 81.0463 1.38817 80.4265 1.38817H79.4967C78.7219 1.38817 77.9471 2.46787 77.1722 2.46787C77.0173 2.46787 76.7074 1.23393 76.5524 0.92545C76.0875 0.462725 75.9325 0.462725 75.3127 0ZM89.8793 28.6889C89.8793 30.0771 88.7945 30.8483 88.7945 31.3111C88.7945 31.4653 89.1044 31.928 89.4144 31.928C91.2739 31.928 90.1892 29.1517 91.2739 29.1517C91.7388 29.7686 92.0488 29.9229 92.2037 28.072C92.2037 27.3008 91.2739 26.9923 91.119 26.5296C91.4289 26.3753 91.2739 26.3753 91.5839 26.3753C91.8938 26.3753 92.0488 26.838 92.2037 26.838C92.3587 26.838 92.6686 26.2211 92.8236 26.2211C92.8236 25.1414 92.8236 25.2956 91.8938 25.2956L88.9495 23.1362C88.9495 23.7532 89.5693 24.5244 89.5693 25.7584C89.7243 26.6838 89.8793 27.6093 89.8793 28.6889ZM75.6226 13.2648V13.5733C75.6226 14.036 74.3829 15.1157 74.3829 15.2699C74.3829 15.4242 75.4676 16.5039 75.6226 16.8123L76.5524 16.6581C76.3974 16.0411 74.8478 14.9614 76.5524 14.9614H76.7074C77.9471 14.9614 78.7219 17.4293 79.3417 18.2005C79.9616 18.2005 79.8066 18.3548 80.2715 18.3548H80.4265C80.5814 18.3548 81.0463 18.0463 81.0463 17.892C81.0463 17.1208 79.9616 15.5784 79.4967 15.2699C79.1868 14.9614 77.3272 13.5733 77.0173 13.5733V13.419C77.3272 13.419 78.7219 14.036 79.0318 14.1902C79.6517 14.653 80.1166 14.9614 80.5814 15.5784C81.0463 16.1954 81.3563 16.6581 81.6662 17.2751C81.8212 17.5835 82.441 19.126 82.7509 19.126H83.2158V18.6632C83.2158 18.509 83.3708 18.3548 83.5258 18.3548C84.3006 18.3548 84.3006 18.509 84.3006 19.2802C84.3006 19.5887 83.9906 19.8972 83.9906 20.2057V20.5141C83.9906 20.6684 85.5403 22.365 85.6952 22.365C85.8502 22.365 86.1601 22.0566 86.1601 22.0566C86.1601 21.4396 86.4701 20.3599 87.0899 21.4396C87.0899 22.2108 86.625 22.8278 86.625 23.1362C86.625 23.2905 87.3998 23.7532 87.5548 23.7532C87.5548 24.8329 88.0197 24.8329 88.3296 25.4499C88.6396 26.0668 88.3296 26.9923 89.1045 27.1465C89.1045 26.6838 88.7945 24.5244 88.6396 24.0617C88.4846 23.599 88.4846 22.982 88.3296 22.6735C88.1747 22.365 87.8647 21.7481 87.7098 21.4396C86.78 19.8972 85.8502 18.6632 84.6105 17.4293C83.5258 16.3496 82.1311 14.9614 80.7364 14.1902C79.8066 13.7275 76.7074 12.3393 75.3127 12.3393C75.4676 12.8021 75.6226 12.9563 75.6226 13.2648ZM80.2715 7.86632H79.6517C79.3417 7.86632 78.7219 7.4036 78.4119 7.09512H76.8623L77.1722 8.17481L78.7219 8.02057C78.8768 8.02057 78.8768 8.02057 79.0318 8.02057V8.17481L77.4822 8.79177C77.4822 9.2545 78.102 9.71722 78.102 10.1799V10.3342C78.102 10.6427 77.6371 10.9512 77.4822 11.2596C78.412 11.2596 79.3417 11.4139 80.2715 11.4139C81.0463 11.5681 81.9761 11.8766 82.9059 11.8766C83.8357 11.8766 84.9204 11.7224 85.6952 11.8766C86.4701 12.0308 88.1747 11.5681 88.3296 12.3393H83.3708H82.596L77.3272 12.0308H77.1722C76.8623 12.0308 77.1722 12.0308 77.0173 12.0308C77.3272 12.3393 81.2013 13.419 81.9761 13.7275C82.9059 13.8817 83.9906 14.036 84.7655 14.1902C85.2304 14.3445 85.6952 14.4987 86.0052 14.4987C86.4701 14.653 87.0899 14.653 87.0899 15.1157H86.78C86.0052 15.1157 85.0754 14.653 84.3006 14.4987C83.3708 14.3445 82.441 14.1902 81.6662 14.1902C82.1311 14.4987 83.5257 15.1157 84.1456 15.5784C84.9204 16.1954 85.6952 16.8123 86.4701 17.2751C87.2449 17.892 88.0197 18.3548 88.9495 18.8175C89.4144 19.126 89.7243 19.2802 90.3442 19.4344C90.809 19.5887 91.4289 19.7429 91.5839 20.2057C91.4289 20.2057 91.5839 20.2057 91.4289 20.2057C91.2739 20.2057 89.1044 19.2802 88.7945 19.126C88.1747 18.8175 86.625 18.0463 86.3151 17.892C86.3151 18.2005 87.3998 19.126 87.7098 19.5887C88.1747 20.5141 88.1747 20.8226 88.7945 21.5938C89.2594 22.0566 91.5839 24.3702 92.0488 24.3702H92.2037C92.6686 24.3702 93.1335 24.2159 93.1335 23.599C93.1335 23.1362 91.7388 23.1362 91.4289 22.8278C91.2739 22.6735 90.3442 21.5938 90.3442 21.4396V21.1311H90.4991C90.964 21.1311 91.119 21.5938 91.4289 21.9023C91.5839 22.0566 92.2037 22.365 92.5136 22.365C92.8236 22.365 92.6686 22.0566 93.1335 21.9023C92.9785 21.5938 92.5136 21.5938 92.5136 21.2853C92.5136 20.5141 93.4434 21.1311 93.5984 21.1311C93.7534 21.1311 94.3732 20.2057 94.3732 20.0514C94.3732 19.8972 94.2182 19.4344 94.0633 19.4344H93.9083C93.4434 19.4344 92.5136 19.5887 92.5136 19.2802V19.126C92.5136 18.8175 93.4434 18.3548 93.4434 18.0463V17.892C93.4434 17.4293 93.2885 17.1208 92.9785 16.8123C92.2037 16.8123 92.2037 16.6581 91.7388 17.2751C91.4289 17.5835 91.2739 18.2005 90.809 18.2005C89.8793 18.2005 88.0197 16.8123 87.5548 16.1954C87.7098 16.0411 88.0197 15.7326 88.3296 15.7326C88.6396 15.7326 88.7945 16.8123 89.2594 16.8123H90.0342L90.809 16.6581L90.964 16.5039C90.964 16.1954 90.809 16.0411 90.809 15.7326C90.809 15.4242 91.8938 14.9614 91.8938 14.653C91.8938 13.2648 90.6541 12.6478 90.6541 13.419C90.6541 14.1902 89.1045 15.2699 89.1045 15.2699C88.4846 15.2699 88.4846 14.653 88.1747 14.4987C87.8647 14.1902 87.5548 13.8817 87.2449 13.7275L85.6952 13.419C85.6952 13.1105 86.1601 12.6478 86.1601 12.6478C86.4701 12.6478 87.2449 13.2648 87.5548 13.419C88.1747 13.8817 87.7098 14.1902 88.9495 14.1902H89.1045C89.2594 14.1902 89.4144 14.036 89.4144 13.8817V14.1902C89.4144 13.8817 89.2594 13.7275 89.2594 13.5733C89.2594 13.2648 90.1892 12.9563 90.4991 12.9563C90.4991 11.7224 89.4144 11.5681 88.9495 10.7969C88.4846 10.1799 88.1747 8.94602 87.0899 8.94602C86.4701 8.94602 86.4701 10.1799 86.4701 10.9512C86.3151 11.1054 85.5403 11.5681 85.3853 11.5681C84.4555 11.5681 83.6807 11.4139 83.2158 10.9512L81.9761 11.1054C81.5112 11.1054 80.1166 10.6427 80.1166 10.1799V10.0257C80.1166 9.87146 80.4265 9.56298 80.7364 9.56298H81.3563C82.1311 9.56298 83.5258 10.7969 84.6105 10.7969C85.2304 10.7969 85.3853 10.3342 85.3853 9.71722C85.3853 9.40874 84.6105 8.02057 84.4555 8.02057C84.3006 8.02057 84.3006 8.17481 83.9906 8.17481C83.8357 8.17481 83.8357 7.71208 83.8357 7.71208C83.8357 7.24936 84.1456 6.78663 84.1456 6.16967C84.1456 4.93573 82.1311 4.93573 81.9761 5.5527C81.6662 6.94087 81.8212 7.86632 80.2715 7.86632ZM75.0028 16.8123C75.0028 16.6581 74.6928 16.3496 74.5379 16.1954C74.6928 16.5039 74.8478 16.6581 75.0028 16.8123ZM44.165 10.6427V10.9512C44.165 11.1054 44.165 10.9512 44.3199 11.2596C44.165 11.1054 44.01 11.1054 43.7001 11.1054C43.5451 11.1054 43.3902 11.4139 43.3902 11.7224V12.0308C43.3902 12.3393 43.5451 12.3393 43.5451 12.8021V13.2648C43.0802 13.2648 43.2352 12.8021 42.9253 12.8021C42.6153 12.8021 42.6153 13.2648 42.6153 13.7275C42.4604 14.3445 42.1505 13.8817 41.8405 13.8817C41.6856 13.8817 41.3756 14.036 41.3756 14.1902V14.3445C41.3756 14.8072 41.9955 15.4242 42.3054 15.8869C42.6153 16.5039 42.4604 17.2751 41.6856 17.4293L41.5306 16.1954V15.4242C41.5306 14.8072 41.0657 15.5784 40.9107 15.7326C40.9107 14.3445 39.3611 13.7275 39.3611 15.2699C39.3611 15.7326 39.5161 15.8869 39.671 16.0411C39.5161 16.0411 39.3611 16.0411 39.2061 16.0411H39.0512C38.8962 16.0411 38.1214 16.6581 38.1214 16.6581C38.1214 16.8123 38.5863 17.4293 38.7413 17.4293H38.8962C39.2061 17.4293 39.2061 17.2751 39.3611 17.2751C40.1359 17.2751 40.6008 18.509 40.6008 19.2802V19.4344C40.6008 19.7429 40.4459 19.7429 40.4459 19.8972C40.1359 19.7429 39.3611 19.2802 39.2061 19.2802H39.0512C38.5863 19.2802 38.2764 19.8972 38.2764 20.5141C38.2764 20.8226 39.5161 20.9769 39.5161 21.7481V22.2108C39.5161 23.1362 38.8962 23.1362 38.5863 23.4447C38.4313 23.7532 38.2764 24.9871 37.9664 24.9871C37.8115 24.9871 37.6565 24.6787 37.6565 24.5244C37.6565 24.2159 37.9664 23.2905 38.1214 23.1362C38.2764 22.982 39.0512 22.6735 39.0512 22.0566C39.0512 21.7481 38.7413 21.2853 38.4313 21.2853C37.8115 21.2853 37.6565 21.5938 37.3466 21.9023C37.3466 22.2108 37.3466 22.5193 37.0367 22.5193C36.8817 22.5193 36.7267 22.5193 36.5718 22.365C36.5718 21.9023 36.8817 20.5141 35.3321 20.5141C34.0923 21.7481 35.0221 22.6735 35.0221 22.982V23.4447L34.8672 23.599C34.7122 23.599 34.7122 23.599 34.4023 23.599H34.2473C33.7824 23.599 32.8526 23.9075 32.8526 24.5244V24.6787C32.8526 24.8329 36.4168 27.7635 36.4168 29.7686V30.6941C36.4168 31.1568 36.2618 31.6195 35.642 31.6195C35.487 31.3111 35.0221 31.1568 35.0221 30.3856C35.0221 29.7686 35.3321 27.6093 34.4023 27.6093C33.9374 27.6093 33.4725 28.072 33.4725 28.5347V29.3059H32.8526C32.0778 29.3059 31.9229 29.9229 31.9229 30.6941C31.9229 31.7738 33.7824 32.3907 34.0923 31.7738L33.4725 30.6941H33.6275C34.2473 30.6941 34.5572 31.6195 34.8672 31.928C35.3321 32.3907 35.7969 32.8535 36.1069 33.3162C36.4168 33.7789 36.8817 34.3959 37.0367 35.0129C37.1916 35.3213 37.5015 36.8638 37.6565 37.018C37.6565 36.8638 37.6565 37.018 37.6565 36.8638V35.9383C37.6565 35.0128 37.5015 33.6247 37.3466 32.8535C37.1916 31.928 37.1916 30.8483 37.0367 29.7686C36.8817 28.8432 36.7267 27.9177 36.4168 26.9923C36.2618 26.2211 35.9519 24.9871 35.9519 24.0617C35.9519 23.9075 35.9519 24.0617 35.9519 23.9075C36.2618 24.0617 37.1916 27.6093 37.1916 28.3805C37.3466 29.3059 37.3466 30.0771 37.5015 30.8483C37.6565 31.6195 37.8115 32.545 37.8115 33.3162C37.9664 33.0077 38.1214 29.9229 38.2764 29.1517C38.4313 28.072 38.7413 26.0668 39.2061 25.4499C39.2061 27.6093 38.5863 28.9974 38.5863 31.1568C38.8962 31.0026 39.3611 29.4602 39.3611 29.1517C39.5161 28.6889 39.5161 28.3805 39.671 28.072C39.981 27.3008 39.826 27.7635 39.826 26.838V26.0668C39.826 23.4447 40.9107 21.2853 42.1505 19.7429C43.0802 18.6632 42.9253 17.892 43.2352 16.5039C43.3902 15.7326 44.01 13.5733 44.4749 13.2648L43.2352 18.509C43.7001 18.2005 44.01 17.4293 44.6299 17.1208C45.0948 16.8123 45.2497 17.1208 45.5597 16.6581C45.8696 16.3496 46.0245 16.1954 46.1795 15.8869L45.0948 15.7326C45.0948 14.9614 46.0245 15.1157 46.0245 13.8817C45.5597 13.419 45.2497 13.5733 44.7848 13.8817V13.2648C44.7848 12.8021 45.4047 12.3393 45.4047 12.0308C45.4047 11.7224 44.9398 11.5681 44.7848 11.5681V10.7969C44.7848 10.4884 44.4749 9.87146 44.165 9.71722C44.6299 9.87146 44.165 10.1799 44.165 10.6427ZM37.9664 37.3265V39.0231C37.9664 45.964 42.7703 54.7558 46.7994 57.6864C48.194 58.7661 49.2788 59.5373 50.8284 60.4627C52.2231 61.2339 53.9277 62.0051 55.4773 62.6221C58.7316 63.856 62.2957 65.2442 66.7897 65.2442H67.5645C68.6492 65.2442 69.4241 65.09 70.3538 65.09C71.2836 64.9357 72.0584 64.7815 72.8333 64.473C72.8333 64.1645 72.5233 64.0103 72.3684 64.0103H71.7485C71.1287 64.0103 70.9737 64.3188 70.5088 64.473C70.3538 64.473 69.1141 64.7815 69.1141 64.7815C68.8042 64.7815 68.3393 64.473 67.8744 64.473C66.9446 64.3188 66.7897 64.6272 66.6347 64.6272C66.3248 64.6272 65.7049 63.3933 65.7049 62.9306C65.55 62.7763 65.24 62.6221 64.9301 62.6221C62.7606 62.6221 61.3659 62.6221 59.6613 61.8509C59.0415 61.5424 58.1117 61.2339 57.4919 61.0797C56.717 60.7712 56.0972 60.4627 55.3224 60.1542C52.688 59.0745 49.5887 57.2236 47.7291 55.3727C46.4894 54.1388 46.0245 53.5218 44.9398 51.9794C44.165 50.8997 43.2352 49.3573 42.6153 48.1234C41.2207 45.347 40.4459 42.108 40.4459 37.9434V36.5553C40.4459 34.2416 41.6856 32.545 42.6153 31.1568C43.0802 30.5398 43.8551 29.7686 44.4749 29.3059C44.7848 28.9974 46.4894 27.9177 46.7994 27.9177C46.7994 27.9177 47.7291 28.5347 48.349 28.5347C49.2788 28.5347 49.8986 27.455 49.8986 26.5296V26.0668C49.8986 25.1414 48.9689 23.599 48.0391 23.599C47.1093 23.599 46.7994 24.3702 46.4894 25.1414C46.1795 25.7584 46.4894 25.6041 45.8696 25.9126C45.5597 26.0668 45.0948 26.2211 44.7848 26.3753C43.3902 27.1465 42.4604 27.7635 41.3756 28.8432C39.671 30.5398 37.9664 33.9332 37.9664 37.3265ZM79.0318 58.3033C80.1166 58.1491 83.5258 55.527 84.4555 54.91C84.9204 54.4473 88.7945 50.5913 88.7945 50.2828C88.7945 50.1285 88.4846 49.82 88.3296 49.6658C88.1747 49.6658 86.625 51.8252 86.4701 52.1337C85.8502 53.0591 84.9204 53.6761 84.3006 54.4473C83.6807 55.0643 82.441 55.8355 81.8211 56.4524C81.3563 56.6067 79.1868 57.9949 79.0318 58.3033ZM47.5742 50.5913C47.5742 50.8997 47.1093 51.054 47.1093 51.5167C47.1093 52.1337 48.8139 52.1337 48.9689 53.0591C48.6589 53.2134 47.7291 53.5219 47.7291 53.8303C47.7291 54.6015 49.1238 54.7558 49.8986 54.7558L49.5887 55.9897C49.7437 55.9897 49.8986 55.9897 50.0536 55.9897H51.4483C52.0681 55.9897 52.688 56.4524 52.688 56.9152V57.0694H52.2231C51.9132 57.0694 51.6032 57.3779 51.6032 57.6864C51.9132 57.6864 53.9277 58.7661 54.3926 59.0745C55.3224 59.5373 56.4071 59.8458 57.3369 60.3085C58.5766 60.9254 62.4507 62.0051 64.1553 62.0051H64.4652C64.6202 62.0051 64.6202 62.0051 64.7751 62.0051V61.8509C63.8454 61.8509 60.7461 60.7712 59.9713 60.3085C58.5766 59.5373 57.1819 58.7661 55.9422 57.9949C54.8575 57.2236 53.1529 56.144 52.2231 55.3727C51.6032 54.7558 49.2788 52.7506 49.1238 52.1337C49.5887 52.2879 51.9132 54.4473 52.533 54.91C53.6178 55.8355 54.8575 56.7609 56.0972 57.5321C57.9567 58.6118 61.9858 61.2339 64.7751 61.2339C64.7751 60.3085 64.0003 60.4627 63.2255 60.1542C62.6057 60 62.1408 59.383 62.1408 58.6118C62.1408 58.1491 62.4507 57.8406 62.7606 57.8406C62.6057 57.3779 62.1408 57.0694 62.1408 56.4524V56.2982C62.1408 56.144 62.2957 55.9897 62.4507 55.8355C62.6057 55.6812 62.4507 55.527 62.7606 55.3727C62.9156 55.2185 63.3805 54.7558 63.6904 54.7558H64.1553C64.0003 54.4473 63.5354 54.2931 63.0706 54.1388V53.5218C63.0706 53.2134 62.7606 52.9049 62.4507 52.9049C62.1408 52.9049 61.9858 53.5219 61.9858 53.8303V53.9846H61.3659C60.9011 53.9846 60.7461 54.2931 60.7461 54.7558C60.7461 55.0643 61.056 55.3727 61.211 55.527V56.144C61.3659 56.4524 61.6759 56.6067 61.6759 57.0694V57.5321C61.211 57.5321 60.7461 56.9152 60.4362 56.6067C59.8163 55.3727 60.4362 55.527 60.4362 55.0643C60.4362 54.91 60.2812 53.9846 60.1262 53.9846C59.6613 53.9846 59.3514 54.2931 59.1965 54.6015H58.5766H58.1117V55.2185C58.1117 55.9897 59.1965 56.4524 59.1965 56.7609V57.2236C58.2667 57.2236 57.6468 55.8355 57.6468 55.0643V54.4473C57.6468 53.8303 57.9567 53.5218 58.2667 53.2134C59.1965 53.2134 59.1965 52.7506 59.1965 51.9794C59.1965 51.6709 58.4216 51.6709 58.1117 51.6709C57.3369 51.6709 57.3369 52.1337 57.027 52.4422C57.027 51.8252 56.872 51.3625 56.5621 51.054C56.4071 51.054 56.0972 50.8997 55.9422 50.8997C55.6323 50.7455 55.6323 50.7455 55.4773 50.5913C55.4773 51.2082 55.1674 51.8252 55.3224 51.9794L55.4773 52.7506L54.3926 52.4422C54.3926 53.3676 55.4773 53.9846 55.4773 54.4473V54.91C54.5475 54.91 53.7727 54.1388 53.9277 53.0591L54.0827 51.5167C54.0827 51.2082 53.7727 50.8997 53.4628 50.8997C52.8429 51.054 52.8429 51.2082 52.533 51.5167C51.9132 51.2082 52.0681 50.2828 51.2933 50.2828C50.8284 50.2828 50.9834 50.8997 50.9834 51.2082C50.8284 51.6709 50.5185 50.8997 50.5185 50.7455C50.3635 50.2828 49.8986 49.2031 49.4337 49.2031C49.1238 49.2031 48.9689 49.6658 48.8139 49.82V49.2031C48.504 48.8946 48.0391 48.4319 47.5742 48.4319H47.1093C47.1093 48.5861 47.2643 49.6658 47.2643 49.6658C47.1093 49.9743 47.5742 50.5913 47.5742 50.5913ZM72.0584 60.1542H70.5088C68.4943 60.1542 63.6904 57.9949 63.6904 56.2982V55.3727L63.2255 55.9897V56.4524C63.0705 56.6067 62.9156 56.7609 62.9156 56.9152V57.0694C62.9156 57.5321 63.8454 58.1491 63.8454 58.6118C63.8454 58.7661 62.9156 58.9203 62.9156 59.2288C62.9156 59.6915 63.5354 60 64.0003 60H64.3103C64.7752 60 65.0851 59.6915 65.395 59.6915H65.7049C66.0149 59.6915 66.4798 59.8458 66.4798 60.1542C66.4798 60.617 65.24 60.4627 65.24 60.9254V61.2339C65.24 61.6967 66.9446 61.8509 67.2546 61.8509V62.0051C66.9446 62.1594 66.3248 62.4679 66.3248 62.9306V63.0848C66.3248 63.3933 66.6347 63.856 66.9446 63.856H67.0996C67.5645 63.856 68.0294 63.2391 68.4943 63.2391H68.8042C68.9592 63.7018 68.9592 64.3188 69.4241 64.3188C69.734 64.3188 70.1989 64.0103 70.1989 63.7018V63.5476C70.1989 62.7763 70.0439 62.7763 70.6638 62.3136C71.1287 62.0051 71.2836 61.6967 72.0584 61.6967H72.9882C72.9882 61.8509 73.1432 62.0051 73.1432 62.1594C73.1432 63.0848 71.1287 62.0051 71.1287 63.3933C71.1287 63.856 72.0584 63.7018 72.3684 63.856C72.9882 64.0103 72.8333 64.6272 73.2981 64.6272C73.6081 64.6272 74.6928 62.9306 74.6928 62.3136C74.8478 62.4679 75.4676 63.7018 75.6226 63.7018C75.7776 63.7018 76.5524 63.2391 76.7074 63.2391C77.0173 62.7763 76.7074 62.4679 76.7074 61.8509C76.7074 61.6967 77.1722 61.0797 77.4822 61.0797C77.4822 61.2339 77.4822 61.3882 77.4822 61.5424V61.6967C77.4822 62.0051 77.9471 62.7763 78.102 62.7763C79.3417 62.7763 85.0754 58.7661 86.1601 57.9949C87.2449 57.2236 92.8236 52.9049 92.8236 51.6709V51.3625C92.3587 51.2082 90.4991 49.9743 90.0342 49.6658C89.4144 49.0488 88.3296 48.1234 88.3296 46.8895C88.1747 47.0437 87.0899 48.8946 86.935 49.2031C86.4701 49.9743 86.0052 50.7455 85.3853 51.3625C84.3006 52.7506 83.0609 53.8303 81.6662 55.0643C80.4265 56.144 78.7219 57.2236 77.1722 57.9949C76.3974 58.4576 73.2982 60.1542 72.0584 60.1542ZM65.55 2.00514H66.7897C67.8744 2.00514 68.0294 2.31362 68.8042 2.77635C69.4241 3.23907 69.4241 3.85604 69.4241 4.93573C70.1989 4.78149 70.0439 4.62725 70.9737 4.62725C71.1287 4.47301 71.4386 3.7018 71.4386 3.39332C71.4386 2.77635 70.6638 2.15938 70.0439 2.15938C69.2691 2.15938 68.8042 3.08483 68.6492 2.15938C68.6492 1.8509 68.1844 0.771208 67.7195 0.771208C67.0996 1.07969 65.7049 1.38817 65.55 2.00514Z" fill="white"/>
<path fill-rule="evenodd" clip-rule="evenodd" d="M48.5033 19.8971C48.3484 18.8174 47.8835 18.2004 47.8835 17.275C47.8835 16.9665 48.0384 16.8123 48.0384 16.5038C47.7285 16.8123 47.4186 18.3547 47.4186 18.9717V20.0513C47.4186 21.4395 48.0384 22.2107 48.1934 23.1362C49.4331 23.2904 50.3629 24.5244 50.3629 25.7583V26.9922C50.3629 27.3007 50.053 27.9177 50.053 27.9177C50.053 28.0719 51.2927 30.5398 51.4476 30.8483C52.0675 31.7737 52.6873 32.3907 53.4622 33.0076C55.3217 34.2416 57.1813 34.8585 59.5058 35.6298C61.9852 36.401 69.7334 39.7943 69.7334 42.4164C69.7334 39.7943 64.6196 37.0179 62.4501 36.0925C60.1256 35.167 54.5469 33.1619 53.3072 31.4652C53.4622 31.4652 54.5469 32.3907 54.8568 32.5449C55.4767 32.8534 55.9416 33.1619 56.5614 33.4704C57.6462 33.9331 59.3508 34.7043 60.4355 34.8585C60.4355 34.8585 56.8714 33.1619 56.4065 32.8534C55.6317 32.3907 53.4622 30.694 53.1522 29.9228C53.6171 30.2313 54.082 30.8483 54.8568 31.311C55.6317 31.7737 56.0966 32.0822 56.8714 32.3907C57.6462 32.6992 60.7455 34.0873 61.3653 34.0873C61.3653 34.0873 57.4912 32.0822 57.0263 31.7737C56.2515 31.311 53.6171 29.4601 53.4622 28.6889C54.8568 29.6143 56.0966 30.694 57.9561 31.4652C58.8859 31.7737 59.5058 32.2364 60.4355 32.5449C61.3653 32.8534 62.1401 33.1619 63.0699 33.6246C64.7745 34.2416 66.6341 34.8585 68.3387 35.4755C69.1135 35.784 69.8883 36.5552 70.3532 37.0179C70.8181 37.4807 70.8181 37.4807 71.128 37.9434C71.283 38.2519 71.5929 39.0231 71.7479 39.1773C71.7479 38.4061 70.9731 37.1722 70.5082 36.7094C70.0433 36.0925 69.1135 35.4755 68.4936 35.0128C66.944 34.0873 65.0844 33.6246 63.2249 32.8534C61.5203 32.0822 59.8157 31.311 58.1111 30.694C57.3363 30.3855 53.7721 28.5346 53.4622 27.9177C54.082 28.0719 55.1668 28.8431 55.9416 28.9974C56.8714 29.3058 57.6462 29.7686 58.576 29.9228C59.5058 30.0771 60.4355 30.3855 61.5203 30.5398C62.4501 30.694 63.8447 30.694 64.7745 31.0025C65.8593 31.1567 66.944 31.311 67.8738 31.4652C68.9585 31.6195 69.8883 31.928 70.8181 32.0822C71.7479 32.2364 72.6777 32.6992 73.4525 33.0076C73.6074 33.1619 74.3823 33.6246 74.5372 33.6246C74.6922 33.7789 75.312 34.5501 75.312 34.5501C75.312 33.7789 73.7624 32.8534 73.2975 32.5449C73.7624 32.5449 74.3823 32.5449 74.6922 32.5449C75.0021 32.3907 75.622 32.2364 75.9319 32.0822V31.928L74.0723 32.2364H73.4525C73.4525 32.2364 71.128 31.6195 70.9731 31.6195C70.3532 31.311 69.2685 31.0025 68.4936 30.8483C67.7188 30.694 66.6341 30.3855 65.8593 30.3855C65.2394 30.3855 63.8447 30.0771 63.0699 29.9228C61.5203 29.6143 59.1958 29.3058 57.8011 28.8431C56.4065 28.2262 54.392 27.7634 53.3072 26.9922C53.6171 26.9922 55.4767 27.7634 56.0966 27.9177C57.0263 28.0719 58.1111 28.5346 59.1958 28.5346C60.1256 28.5346 61.5203 28.8431 62.4501 28.9974C63.2249 29.1516 65.2394 29.3058 65.8593 29.3058C65.7043 29.3058 60.2806 28.2262 59.6607 28.0719C58.421 27.7634 54.5469 26.838 53.9271 26.3753C54.3919 26.3753 54.8568 26.6837 55.1668 26.6837C55.6317 26.838 56.0965 26.838 56.5614 26.9922C57.3363 27.1465 58.576 27.3007 59.3508 27.4549C61.2104 27.6092 63.3798 28.0719 65.2394 28.0719C66.789 28.0719 70.3532 28.0719 71.5929 28.3804C72.6777 28.6889 75.0021 30.5398 75.7769 30.8483C75.622 30.694 74.0723 29.6143 73.6074 29.3058C72.6777 28.6889 72.3677 28.3804 71.283 27.9177C71.438 27.7634 69.8883 27.7634 68.8036 27.7634C67.4089 27.7634 66.3242 27.6092 65.2394 27.6092C64.7745 27.6092 63.9997 27.4549 63.5348 27.4549C63.0699 27.3007 62.2951 27.4549 61.8302 27.3007C60.7455 27.1465 59.6607 26.9922 58.576 26.838C57.3363 26.6837 53.4622 25.7583 52.9973 24.9871C54.8568 25.4498 55.4767 26.221 57.9561 26.221C59.9706 26.221 61.9852 26.0668 63.9997 26.0668C62.1401 26.0668 59.9706 26.0668 58.1111 25.7583C57.0263 25.604 56.5614 25.604 55.6317 25.1413C55.1668 24.9871 53.6171 24.5244 53.3072 24.2159C53.6171 24.2159 54.8568 24.5244 55.3217 24.6786C56.0966 24.8328 56.5614 24.9871 57.3363 25.1413C58.7309 25.2956 60.2806 25.604 61.9852 25.604C63.2249 25.604 64.3096 25.604 65.5493 25.604C66.6341 25.604 67.8738 25.2956 68.8036 25.2956H70.0433C70.5082 25.2956 71.438 25.4498 71.7479 25.7583C72.3677 26.0668 72.5227 26.3753 72.9876 26.6837C72.8326 25.7583 71.438 24.9871 70.1982 24.9871C70.3532 24.8328 71.283 24.5244 71.5929 24.3701C72.0578 24.0616 72.3677 23.9074 72.8326 23.5989C73.1426 23.4447 75.0021 22.0565 75.1571 21.9022C74.6922 22.0565 71.283 23.9074 70.5082 24.2159C69.4234 24.8328 66.3242 25.1413 64.4646 25.1413H60.4355C59.1958 25.1413 54.082 24.0616 53.4622 23.7531C56.8714 23.7531 58.576 24.8328 61.8302 24.2159V24.0616C60.2806 24.2159 57.1813 24.2159 55.9416 23.1362C57.3363 23.1362 61.3653 22.365 61.8302 21.9022C60.2806 21.9022 58.7309 22.0565 57.3363 22.0565C56.5614 22.0565 55.9416 22.0565 55.1668 22.2107C54.7019 22.2107 53.6171 22.6735 53.1522 22.6735C53.9271 21.9022 58.1111 21.4395 58.421 21.2853C57.0263 21.2853 55.7866 21.2853 54.7019 21.4395C54.082 21.5938 53.6171 21.5938 53.1522 21.748C52.6873 21.9022 52.0675 22.2107 51.7576 22.365C52.5324 21.131 56.8714 21.131 57.6462 20.5141L54.082 20.6683C54.237 20.3598 55.0118 19.4344 55.4767 19.4344H55.7866C57.3363 19.4344 58.7309 20.6683 59.6607 20.6683H59.9706C61.3653 20.6683 61.0554 18.6632 61.9852 18.6632C62.4501 18.6632 63.0699 19.8971 63.3798 20.2056C63.6898 20.5141 64.7745 21.2853 65.2394 21.2853H66.0142C66.789 21.2853 68.0288 20.0513 68.0288 19.2801C68.0288 18.9717 67.8738 18.8174 67.8738 18.3547V18.0462C67.8738 17.5835 68.6486 16.9665 68.6486 16.0411C68.6486 14.9614 66.6341 12.802 66.0142 12.3393C66.1692 13.1105 68.3387 14.3444 68.3387 15.7326V16.0411C68.3387 16.3495 67.8738 17.1208 67.7188 17.275C67.4089 17.892 67.5639 18.2004 67.5639 18.9717C67.5639 19.5886 66.4791 20.5141 65.7043 20.5141H65.2394C63.3798 20.5141 62.4501 17.7377 61.8302 17.7377H61.5203C60.4355 17.7377 60.5905 19.5886 59.5058 19.5886C58.1111 19.5886 56.5614 18.3547 55.1668 18.3547H55.0118C54.237 18.3547 51.6026 20.3598 50.8278 20.8226C50.9827 20.3598 52.3774 19.4344 52.6873 19.1259C53.3072 18.6632 55.0118 18.0462 55.1668 17.892C54.3919 17.892 53.1522 18.3547 52.6873 18.6632C52.0675 18.9717 50.8278 19.7429 50.6728 19.8971C51.4476 18.8174 55.1668 16.9665 57.0263 16.9665C55.1668 16.9665 54.5469 17.1208 52.9973 17.4292C52.3774 17.5835 51.9125 17.892 51.4476 18.2004C51.1377 18.3547 50.2079 19.1259 50.053 19.1259C51.1377 17.4292 53.3072 16.8123 55.6317 16.1953C57.1813 15.7326 61.3653 14.9614 61.9852 14.0359C61.8302 14.0359 59.5057 14.8071 59.0409 14.9614C58.1111 15.2699 56.7164 15.2699 55.7866 15.5783C54.7019 15.8868 53.7721 16.0411 52.6873 16.3495C52.2225 16.5038 51.7576 16.8123 51.2927 16.9665C50.9827 17.1208 50.3629 17.5835 50.053 17.7377C51.6026 15.4241 57.6462 14.4986 58.266 13.419C57.8011 13.5732 56.7164 14.0359 56.0966 14.1902C55.3217 14.4986 54.5469 14.6529 53.7721 14.8071C53.1522 14.9614 52.0675 15.4241 51.6026 15.5783C51.1377 15.8868 49.898 16.8123 49.898 16.8123C50.6728 15.4241 51.7576 14.9614 53.1522 14.3444C53.7721 14.0359 56.8714 12.9562 57.1813 12.4935C56.4065 12.4935 55.0118 12.9562 54.237 13.1105C54.237 13.7274 53.9271 13.8817 53.4622 14.0359C52.9973 14.1902 52.5324 14.4986 52.2225 14.6529C52.9973 13.5732 58.421 11.7223 58.8859 10.9511C58.576 10.9511 57.6462 11.5681 57.1813 11.7223C56.7164 12.0308 56.0965 12.185 55.4767 12.4935C54.237 12.9562 53.3072 13.419 52.2225 14.0359C51.2927 14.4986 50.3629 15.5783 49.743 16.3495C49.4331 16.9665 48.5033 18.8174 48.5033 19.8971ZM48.9682 17.4292C49.2781 17.275 49.898 15.7326 50.3629 15.2699C50.9827 14.6529 51.6026 14.1902 52.3774 13.5732C53.6171 12.6477 55.6317 11.7223 57.0263 10.9511C58.576 10.1799 60.2806 9.25443 61.6752 8.32898C62.2951 7.86625 63.2249 7.40353 64.1547 7.09505C64.9295 6.9408 66.1692 6.32384 66.3242 5.55263C65.8593 5.86111 65.2394 6.32384 64.6196 6.47808C63.8447 6.63232 63.0699 7.24929 62.76 7.24929C63.2249 6.47808 63.8447 5.86111 64.1547 4.78142C63.6898 5.24415 63.5348 5.86111 63.3798 6.1696C63.2249 6.47808 62.915 6.78656 62.605 7.09505C61.9852 7.55777 61.0554 8.17474 60.4355 8.48322C58.8859 9.25443 57.4912 10.1799 55.9416 10.7968C54.3919 11.5681 52.9973 12.3393 51.6026 13.419C50.8278 13.8817 50.5179 14.3444 49.898 15.1156C49.743 15.4241 49.1232 16.9665 48.9682 17.4292ZM56.4065 8.94595C56.4065 8.63746 56.5614 8.63746 56.5614 8.17474V7.55777C56.5614 7.40353 56.4065 6.9408 56.2515 6.78656C56.2515 9.40867 55.4767 9.71715 53.7721 10.6426C53.3072 10.9511 50.2079 13.2647 49.898 13.2647C50.2079 12.802 52.2225 11.2596 52.6873 10.7968C53.6171 10.0256 54.5469 8.94595 54.5469 7.40353C54.237 7.86625 54.237 8.32898 53.9271 8.7917C53.6171 9.25443 53.3072 9.56291 52.8423 9.8714C52.8423 9.56291 52.9973 9.40867 52.9973 9.10019C52.9973 8.63746 52.8423 8.32898 52.5324 8.0205C52.5324 8.17474 52.5324 8.32898 52.5324 8.48322V9.10019C52.5324 10.0256 50.6728 11.5681 50.053 12.0308C49.2781 12.6477 48.0384 14.1902 48.0384 15.5783V16.0411L48.1934 17.4292H48.3484C48.3484 15.1156 49.4331 14.0359 50.8278 13.1105C52.0675 12.185 53.6171 11.2596 54.8568 10.3341C56.2515 9.40867 57.4912 8.63746 58.8859 7.55777C59.5058 7.09505 60.2806 6.47808 60.7455 6.01536C61.0554 5.70687 61.0554 5.24415 61.2104 4.78142C61.2104 4.16445 61.5203 4.01021 61.8302 3.54749C61.2104 3.70173 61.2104 4.78142 60.9004 5.24415C60.7455 5.70687 59.9706 6.1696 59.5058 6.47808C59.0409 7.09505 56.7164 8.79171 56.4065 8.94595ZM58.8859 12.6477C59.8157 12.6477 62.915 11.7223 63.0699 11.1053H62.76C62.605 11.1053 61.0554 11.7223 60.7455 11.8765C60.5905 12.0308 59.1958 12.4935 58.8859 12.6477ZM58.576 5.39839C58.1111 5.39839 57.4912 4.62718 57.1813 4.62718H57.0263C56.2515 4.62718 55.4767 5.86111 54.7019 5.86111C53.9271 5.86111 53.6171 5.55263 53.1522 5.55263H52.6873C51.1377 5.55263 52.0675 9.25443 51.1377 9.25443C50.8278 9.25443 50.6728 9.10019 50.5179 9.10019C49.4331 9.10019 48.5033 12.6477 48.5033 14.1902C48.5033 13.1105 48.9682 11.8765 49.4331 11.1053C50.2079 9.56291 50.8278 10.4884 51.7576 9.40867C52.6874 8.48322 51.6026 6.78656 52.9973 6.63232C53.6171 6.63232 54.3919 6.63232 55.0118 6.63232C55.6317 6.47808 56.2515 5.86111 56.4065 5.86111H57.0263C57.4912 5.86111 58.1111 6.1696 58.7309 6.1696C60.9004 6.1696 61.3653 2.62204 62.605 2.62204H63.2249C63.9997 2.62204 64.7745 3.08476 65.7043 3.08476C66.6341 3.08476 67.5639 3.23901 67.8738 3.70173C68.3387 4.47294 68.1837 5.24415 68.4936 6.01536C68.6486 6.47808 69.4234 7.40353 70.1982 7.40353H70.8181C71.5929 7.40353 73.1426 6.1696 74.0723 6.1696H74.3823C75.1571 6.1696 76.8617 9.10019 76.8617 10.0256C76.8617 10.7968 75.7769 11.2596 75.312 11.5681C75.9319 11.5681 77.0167 10.7968 77.0167 10.1799V9.8714C77.0167 8.7917 76.5518 7.71201 76.0869 6.9408C75.7769 6.1696 75.312 4.78142 74.3823 4.78142H74.0723C73.6074 4.78142 71.7479 5.86111 71.283 6.1696C70.6631 6.47808 70.1982 6.47808 69.7334 5.86111C69.2685 5.24415 69.5784 4.93566 69.4234 4.01021C68.8036 3.39325 68.8036 3.08476 68.1837 2.77628C67.7188 2.4678 67.099 2.4678 66.3242 2.4678C65.5493 2.4678 64.7745 2.4678 64.3096 2.31355C63.9997 2.31355 62.76 1.85083 62.605 1.85083C60.1256 2.00507 59.9706 5.39839 58.576 5.39839ZM71.128 10.7968C71.128 10.1799 71.128 9.56291 71.7479 9.56291H71.9028C72.6777 9.56291 74.0723 10.3341 74.8472 10.3341C74.6922 10.1799 72.0578 9.10019 71.9028 9.10019C70.9731 9.10019 70.8181 10.0256 71.128 10.7968ZM77.0167 9.8714C77.0167 11.2596 75.7769 11.4138 75.1571 11.8765C76.2418 11.8765 77.3266 11.4138 77.3266 10.4884V9.71715C77.3266 9.25443 75.9319 7.24929 75.622 6.9408C75.7769 7.71201 77.0167 8.94595 77.0167 9.8714ZM70.5082 16.1953V16.3495C70.5082 18.0462 71.438 19.2801 73.2975 19.2801H74.3823L76.5518 19.1259L76.8617 19.7429C76.8617 18.8174 76.3968 18.6632 75.622 18.6632C74.8472 18.6632 74.2273 18.6632 73.4525 18.6632C71.9028 18.6632 71.128 17.892 71.128 16.3495V16.1953C71.128 14.8071 71.9028 14.3444 72.0578 13.5732C71.438 13.8817 70.5082 15.2699 70.5082 16.1953ZM74.5372 24.0616V24.6786C74.5372 25.1413 75.0021 26.0668 75.0021 26.5295C75.0021 27.3007 74.8472 27.7634 74.8472 28.3804C75.0021 28.8431 75.467 29.3058 76.0869 29.3058C76.7067 29.3058 77.1716 28.8431 77.3266 28.8431C77.9464 28.8431 77.7915 29.4601 78.1014 29.7686C78.1014 29.1516 77.9464 28.5346 77.4815 28.5346H77.1716C76.7067 28.5346 76.3968 28.6889 76.0869 28.6889C75.7769 28.6889 75.312 28.3804 75.312 28.0719V27.7634C75.312 27.3007 75.467 27.3007 75.467 26.838C75.467 26.0668 75.0021 25.4498 75.0021 24.5244C75.0021 23.9074 75.7769 23.4447 76.3968 23.4447H76.7067C77.1716 23.4447 77.4815 23.7531 77.6365 24.0616C77.4815 23.5989 77.0166 23.1362 76.3968 23.1362H75.622C75.1571 22.8277 74.5372 23.4447 74.5372 24.0616ZM76.8617 27.4549C77.9464 27.4549 78.2564 27.4549 78.7212 27.9177C79.1861 28.3804 79.4961 28.6889 79.4961 29.6143V29.9228C79.4961 31.4652 77.4815 32.0822 77.4815 34.3958V34.8585C77.4815 35.6298 78.1014 36.7094 78.1014 37.4807C78.1014 38.2519 77.3266 39.4858 76.7067 39.4858C75.7769 39.4858 75.467 38.2519 75.312 37.9434C75.312 39.0231 76.2418 39.9485 77.3266 39.9485H77.4815C78.4113 39.9485 79.0312 38.5603 79.0312 37.6349C79.0312 36.5552 78.5663 35.3213 78.5663 34.2416V33.9331C78.5663 32.6992 80.2709 31.311 80.2709 29.9228C80.2709 28.6889 79.1861 27.3007 77.9464 27.3007H77.4815C77.0166 27.3007 77.0166 27.3007 76.8617 27.4549ZM57.4912 44.8843C57.9561 44.8843 57.9561 44.73 58.266 44.5758C58.421 45.0385 59.1958 46.2724 59.6607 46.2724C61.0554 46.2724 63.2249 45.9639 63.8447 46.8894C64.3096 47.6606 65.2394 49.203 66.3242 49.203H66.6341C67.2539 49.203 67.8738 48.7403 68.3387 48.4318C69.1135 47.8148 69.1135 48.1233 70.1982 48.1233C71.7479 48.1233 70.3532 44.8843 71.283 44.8843C72.0578 44.8843 72.8326 45.8097 73.7624 45.8097H74.2273C74.8472 45.8097 75.312 44.8843 75.622 44.2673C75.7769 43.9588 76.5518 42.7249 76.5518 42.4164C76.5518 41.9537 75.7769 41.6452 75.467 41.6452C75.622 41.7994 76.0869 41.9537 76.0869 42.2621C76.0869 42.2621 75.1571 43.4961 75.0021 43.6503C74.6922 43.9588 74.3823 44.8843 73.7624 44.8843H73.6074C72.6777 44.8843 72.3677 44.2673 71.438 44.2673C69.8883 44.2673 70.8181 46.7351 70.0433 46.8894C69.2685 47.0436 68.9585 46.7352 68.1837 47.1979C67.8738 47.3521 67.4089 47.9691 66.944 47.9691H66.789C66.0142 47.9691 65.0844 46.4267 64.4646 45.9639C63.2249 45.0385 62.605 45.5012 60.9004 45.5012H60.5905C59.1958 45.5012 59.3508 43.9588 58.8859 43.9588H58.7309C58.421 43.9588 58.266 44.4215 58.1111 44.4215H57.9561C56.4065 44.4215 55.6317 38.0976 54.7019 37.4807C54.8568 38.0976 55.1668 38.8688 55.3217 39.64C55.4767 40.257 55.6317 41.1825 55.9416 41.7994C56.0965 42.2621 56.5614 43.3418 56.7164 43.6503C56.5614 44.113 56.4065 44.8843 57.4912 44.8843ZM73.6074 37.1722V38.4061C73.1426 39.0231 71.7479 40.257 71.7479 41.1825C71.7479 41.6452 72.2128 42.4164 72.6777 42.4164C73.4525 42.4164 73.7624 41.7994 73.9174 41.7994C74.5372 41.7994 74.6922 42.4164 74.8472 42.5706C74.8472 42.1079 74.3823 41.4909 74.0723 41.4909H73.7624C73.4525 41.4909 73.1426 41.7994 72.9876 41.7994C72.6777 41.7994 72.3677 41.4909 72.3677 41.1825C72.3677 40.257 74.3823 39.4858 74.3823 38.2519V38.0976C74.3823 37.7891 74.2273 37.7891 74.2273 37.3264V37.0179C74.2273 36.7094 74.6922 36.2467 74.8472 36.2467H75.0021C75.9319 36.2467 75.9319 37.1722 76.2418 37.4807C76.2418 36.5552 75.7769 35.6298 75.0021 35.6298H74.6922C74.0723 35.784 73.4525 36.5552 73.6074 37.1722ZM68.8036 44.2673V44.4215C68.8036 44.73 68.9585 45.347 69.1135 45.6555C69.1135 43.9588 69.1135 43.0334 70.8181 43.0334H71.9028C72.0578 43.0334 72.3677 43.1876 72.5227 43.1876C72.3677 42.7249 71.283 42.5706 70.6631 42.5706C69.7334 42.7249 68.8036 43.3418 68.8036 44.2673ZM48.6583 29.1516C47.8835 29.1516 47.4186 28.5346 46.9537 28.5346H46.7987C46.3338 28.5346 44.7842 29.9228 44.4743 30.2313C43.8544 31.0025 43.3895 32.0822 43.3895 33.3161V34.0873L43.5445 35.0128C43.5445 33.6246 44.3193 31.0025 45.4041 30.694C45.4041 31.0025 45.0941 31.311 45.0941 31.6195C44.9392 31.928 44.9392 32.2364 44.7842 32.5449C44.6292 33.1619 44.4743 34.0873 44.4743 34.8585V35.4755C44.4743 35.9382 44.7842 37.4807 45.0941 37.6349L44.7842 35.3213C44.7842 33.9331 45.4041 31.7737 46.1789 31.311C45.8689 32.3907 45.559 33.4704 45.559 34.8585V35.784C45.559 37.1722 45.8689 39.7943 46.6438 40.257C46.4888 39.4858 46.0239 39.4858 46.0239 38.2519C46.0239 37.3264 46.0239 36.5552 46.0239 35.6298C46.0239 34.2416 46.3338 32.0822 46.9537 31.311C46.9537 31.7737 46.6438 33.3161 46.4888 33.9331C46.3338 34.7043 46.3338 35.9382 46.4888 36.8637C46.6438 38.4061 47.8835 39.9485 48.8133 40.7197C50.053 41.6452 51.4476 42.1079 52.6873 42.8791C53.1522 43.1876 56.2515 45.1927 56.4065 45.1927C55.7866 44.2673 52.0675 42.4164 50.8278 41.7994C48.9682 40.7197 46.9537 39.4858 46.9537 36.5552V35.9382L47.5735 31.928H47.7285C47.7285 35.0128 48.1934 36.0925 49.4331 37.7891C50.053 38.5603 50.6728 39.0231 51.4476 39.64C51.7576 39.7943 53.6171 41.0282 53.7721 41.1825C53.6171 41.0282 52.0675 39.7943 51.6026 39.4858C50.8278 39.0231 50.2079 38.2519 49.743 37.6349C48.5033 35.784 48.1934 34.5501 48.1934 31.6195C48.1934 31.6195 48.9682 33.6246 49.2781 34.0873C49.743 35.0128 50.2079 35.3213 50.6728 36.0925C51.1377 36.5552 51.9125 37.3264 52.3774 37.7891C52.8423 38.2519 53.7721 39.1773 54.082 39.4858C53.9271 39.0231 51.6026 36.8637 50.9827 36.0925C50.2079 35.167 48.9682 33.1619 48.9682 31.6195C49.2781 32.0822 49.5881 32.8534 50.053 33.4704C50.5179 34.0873 50.9827 34.5501 51.4476 35.0128C52.2225 35.9382 53.6171 36.8637 54.8568 37.4807C56.2515 38.0976 57.4912 38.7146 58.8859 39.3316C59.6607 39.64 62.2951 41.3367 62.76 41.4909C62.2951 40.7197 60.1256 39.64 59.1958 39.1773C57.9561 38.5603 56.5614 37.9434 55.3217 37.1722C54.237 36.5552 52.8423 35.4755 52.0675 34.5501C51.4476 33.9331 49.898 31.928 49.898 30.8483C50.2079 31.1567 50.3629 31.6195 50.6728 31.928C50.9827 32.2364 51.1377 32.5449 51.4476 33.0076C51.9125 33.6246 52.6874 34.3958 53.3072 34.8585C54.7019 35.9382 55.9416 37.1722 57.9561 37.6349C60.1256 38.0976 61.8302 38.5603 63.2249 39.9485C64.3096 41.0282 65.5493 43.0334 65.5493 45.1927C65.5493 43.8046 65.3944 43.0334 65.0844 41.9537C66.1692 42.4164 66.3242 43.1876 68.0288 43.1876C67.8738 43.0334 66.944 42.7249 66.6341 42.5706C66.1692 42.4164 65.7043 41.9537 65.3944 41.7994C64.9295 41.4909 64.6196 41.1824 64.3096 40.7197C64.1547 40.4112 63.6898 39.7943 63.3798 39.4858C61.5203 37.7891 60.1256 37.7891 57.6462 37.0179C55.9416 36.5552 53.9271 34.7043 52.8423 33.6246C51.4476 32.2364 50.3629 30.5398 49.898 28.3804C49.743 28.5346 49.4331 29.1516 48.6583 29.1516ZM46.4888 20.3598V20.8226L46.7987 22.365C46.3338 21.9022 46.0239 20.6683 46.0239 19.7429V18.9717C46.0239 18.3547 46.3338 17.7377 46.4888 17.275C46.0239 17.5835 45.559 19.4344 45.559 20.2056V20.3598C45.559 20.8226 45.714 21.131 45.714 21.5938C45.8689 21.9022 46.0239 22.365 46.0239 22.6735C45.4041 21.9022 44.7842 20.5141 44.7842 19.1259V18.9717C44.7842 18.6632 44.9392 18.6632 44.9392 18.3547C44.6292 18.5089 44.4743 19.2801 44.4743 19.8971V20.0513C44.4743 22.0565 45.2491 22.0565 45.559 23.1362C45.2491 23.1362 44.3193 22.365 44.1643 22.0565C43.0796 21.2853 43.5445 21.2853 43.0796 20.6683C43.0796 22.365 44.4743 22.8277 45.0941 23.7531C44.7842 23.5989 44.1643 23.1362 43.6995 22.9819C43.2346 22.8277 42.4597 22.365 42.1498 22.365L44.6292 24.2159C43.6995 24.0616 43.3895 23.9074 41.9949 23.9074L44.0094 24.6786C43.5445 24.6786 43.6995 24.5244 43.2346 24.5244H42.6147L41.9949 24.6786L44.0094 25.1413V25.2956H43.5445C42.7697 25.2956 41.6849 25.7583 41.53 26.3753C42.1498 26.0668 42.9246 25.7583 43.8544 25.7583C43.5445 26.0668 42.7697 26.221 42.3048 26.6837C41.9949 26.9922 41.375 27.6092 41.375 28.2262C42.6147 26.6837 43.0796 26.6837 45.0941 25.9125C45.4041 25.7583 45.8689 25.604 46.0239 25.4498C46.4888 25.1413 46.3338 24.9871 46.6438 24.5244C46.9537 23.7531 47.2636 23.2904 48.3484 23.2904C47.8835 22.5192 47.1087 21.131 47.2636 19.7429L47.5735 17.4292C46.9537 17.5835 46.4888 19.4344 46.4888 20.3598ZM47.1087 40.7197V41.0282C47.1087 41.9537 49.1232 43.3418 49.1232 43.6503C49.1232 44.2673 47.8835 45.1927 47.8835 46.2724V46.4267C47.8835 47.8148 50.2079 49.3573 51.1377 49.9742C51.6026 50.2827 52.9973 50.8997 53.7721 50.7454C54.7019 50.5912 54.7019 48.8945 55.3217 48.8945C56.0966 48.8945 56.2515 51.5166 58.266 51.5166C58.8859 51.5166 59.9706 51.2082 59.9706 50.5912V50.437C59.9706 49.6657 58.8859 49.0488 58.8859 48.4318V48.1233C58.8859 47.8148 59.3508 47.3521 59.6607 47.3521C60.2806 47.3521 60.7455 47.8148 61.5203 47.9691C61.2104 47.6606 59.8157 47.0436 59.1958 47.0436C58.7309 47.0436 58.266 47.8148 58.266 48.1233C58.266 48.8945 59.1958 49.5115 59.1958 49.9742C59.1958 50.437 58.8859 50.8997 58.576 50.8997C56.5614 50.8997 56.4065 48.2776 55.4767 48.2776C54.237 48.2776 55.4767 50.7454 51.7576 49.203C50.9827 48.8945 48.8133 47.1979 48.8133 46.4267C48.8133 45.1927 50.6728 44.113 49.5881 43.0334C49.1232 42.5706 48.6583 42.2621 48.3484 41.9537C47.8835 41.4909 47.4186 40.4112 47.4186 40.4112C47.1087 40.4112 47.1087 40.4112 47.1087 40.7197ZM63.9997 10.4884C63.9997 13.5732 64.3096 14.6529 62.2951 16.1953C61.5203 16.8123 60.7455 17.1208 59.6607 17.4292C59.1958 17.5835 56.7164 18.0462 56.5614 18.2004C57.9561 18.2004 59.9706 17.7377 61.0554 17.5835C63.2249 16.9665 63.5348 17.4292 64.9295 18.3547C64.9295 18.0462 64.1547 17.4292 63.9997 17.275C63.5348 16.8123 63.3798 16.658 62.4501 16.658C62.915 16.0411 63.2249 16.0411 63.6898 15.2699C63.9997 14.4986 64.1547 14.0359 64.3096 13.2647C64.7745 13.8817 64.7745 14.1902 65.3944 14.8071C65.7043 15.1156 66.6341 15.7326 66.944 15.8868C66.0142 14.4986 64.1547 13.2647 64.1547 11.1053V10.7968C64.1547 9.8714 65.0844 8.7917 66.0142 8.7917H66.944C67.2539 8.7917 68.3387 9.10019 68.4936 9.25443C68.1837 9.71715 67.5639 10.9511 67.5639 11.4138V11.7223C67.5639 12.185 68.1837 12.4935 68.6486 12.4935H69.1135L72.8326 12.0308C73.1426 12.0308 73.7624 12.4935 73.7624 12.802C73.7624 13.5732 72.0578 14.1902 72.0578 15.4241V15.8868C72.0578 18.8174 78.1014 17.4292 78.1014 18.8174V19.1259C78.1014 19.7429 77.3266 20.5141 77.3266 21.131C77.3266 22.8277 79.4961 22.5192 79.4961 23.4447V23.7531C79.4961 24.2159 79.0312 25.1413 78.5663 25.1413C77.6365 25.1413 77.0167 24.6786 76.2418 24.6786V24.9871C76.7067 25.1413 77.7915 25.604 78.2564 25.604H79.0312C79.806 25.604 80.2709 24.5244 80.2709 23.7531V23.4447C80.2709 22.6735 77.9464 22.2107 77.9464 21.4395C77.9464 20.9768 79.0312 20.3598 79.0312 19.5886C79.0312 18.0462 77.7915 17.275 76.3968 17.275C75.1571 17.275 72.9876 16.8123 72.9876 15.7326V15.5783C72.9876 14.6529 74.8472 14.0359 74.8472 12.9562C74.8472 12.3393 73.7624 11.4138 72.9876 11.4138H72.5227L68.8036 11.8765C68.6486 11.8765 68.3387 11.7223 68.3387 11.5681C68.3387 10.7968 69.2685 10.0256 69.2685 9.25443C69.2685 8.63746 67.2539 8.17474 66.4791 8.17474H66.6341C65.2394 8.17474 63.9997 9.10019 63.9997 10.4884Z" fill="#827AFF"/>
<path d="M93.1328 92.0823C91.7381 91.6196 91.4282 89.1517 91.7381 87.7635C88.019 88.3805 80.8907 99.1774 85.3846 99.3316C88.019 99.4859 92.8229 94.3959 93.1328 92.0823ZM81.5105 87.3008C81.6655 86.6838 81.3556 86.3753 80.5807 86.3753C79.651 86.3753 78.2563 87.1465 76.7066 88.5347C75.4669 89.6144 74.3822 90.6941 73.6074 91.7738C73.2975 92.2365 72.8326 92.8535 72.5226 93.4704C72.6776 93.4704 72.8326 93.6247 73.1425 93.6247C74.3822 93.6247 75.9318 93.0077 77.7914 91.7738C79.9609 90.2314 81.0456 88.8432 81.5105 87.3008ZM43.5444 91.1568C42.7696 90.8483 41.5299 89.7687 41.3749 88.3805C40.4452 88.689 38.8955 89.6144 37.0359 92.0823C35.1764 94.5501 34.2466 96.401 34.4016 97.635C34.5565 98.5604 34.8665 99.0231 35.6413 99.0231C37.0359 99.0231 38.7405 97.7892 40.7551 95.4756C42.4597 93.162 43.2345 91.928 43.5444 91.1568ZM35.4863 82.5193C32.697 85.9126 29.2878 87.455 25.2587 87.455C23.3991 87.455 21.6945 86.9923 20.2999 86.2211C18.9052 85.4499 18.2853 84.3702 18.1304 83.1363C17.9754 81.5938 19.0602 80.0514 21.2297 78.509C21.5396 78.2005 21.8495 78.0463 22.1594 78.0463C22.3144 78.0463 22.4694 78.0463 22.4694 78.2005C22.4694 78.509 22.3144 78.6633 21.6945 78.9717C19.9899 80.3599 19.2151 81.5938 19.2151 82.982C19.2151 83.9075 19.835 84.8329 20.7648 85.4499C21.6945 86.0669 22.9343 86.3753 24.4839 86.3753C27.5832 86.3753 30.5275 84.9872 33.1619 82.2108C34.5565 80.8226 35.1764 79.126 35.0214 77.2751C34.8665 75.4242 34.0916 73.8818 32.387 72.9563C30.9924 72.1851 29.2878 71.7224 27.1183 71.7224C24.019 71.7224 20.9197 72.4936 17.8205 73.8818C11.157 76.9666 2.01416 85.2956 2.47905 93.162C2.63401 95.7841 3.87372 97.9435 6.04321 99.4859C8.2127 101.028 11.157 101.645 14.7212 101.491C21.5396 101.028 29.9076 96.5553 34.4016 91.4653C34.8665 90.8483 35.3313 90.2314 35.7962 89.6144C38.4306 86.3753 40.6001 84.6787 42.3047 84.6787C44.6292 84.6787 45.249 87.9178 44.7841 89.9229C46.0238 89.9229 47.4185 88.5347 48.5033 87.1465C47.8834 84.6787 49.743 81.9023 50.8277 81.9023C51.6025 81.9023 51.9125 82.2108 51.9125 82.8278C51.9125 83.2905 51.6025 84.0617 50.8277 84.9872C50.0529 85.9126 49.743 86.3753 49.743 86.3753C49.743 86.9923 50.3628 87.3008 51.2926 87.3008C51.9125 87.3008 52.5323 87.1465 53.1522 86.6838C53.6171 86.3753 53.927 86.2211 54.3919 85.9126C54.5468 85.9126 54.5468 85.9126 54.7018 85.9126C55.0117 85.9126 55.4766 86.0669 55.7866 86.3753C56.0965 86.6838 56.2514 86.9923 56.0965 87.1465C55.0117 88.5347 54.082 89.7687 52.9972 91.0026C51.1376 93.4705 50.2079 95.4756 50.2079 96.8638C50.3628 98.2519 50.5178 98.7147 51.9125 98.7147C55.1667 98.7147 58.111 94.3959 60.1255 91.6196C61.2103 89.4602 62.7599 87.455 63.5347 86.2211C66.9439 80.6684 72.8326 72.9563 74.3822 72.9563C74.6921 72.9563 75.0021 73.1106 75.312 73.2648C75.6219 73.419 75.9318 73.7275 75.9318 74.036C75.9318 74.036 74.8471 75.4242 72.8326 78.2005C70.3531 81.4396 65.0844 89.1517 63.6897 91.3111C61.6752 94.5501 60.7454 96.7095 60.9004 97.7892C61.0553 98.7147 61.6752 99.1774 62.605 99.1774C64.6195 99.1774 67.0989 96.8638 70.0432 92.8535C70.6631 91.6196 71.5928 90.3856 72.8326 88.9974C75.4669 86.0669 77.9464 84.6787 80.2708 84.6787C81.0456 84.6787 81.6655 84.8329 82.1304 85.2956C82.5953 85.7584 82.9052 86.2211 82.9052 86.6838C83.0602 88.3805 81.6655 90.0771 78.8761 91.7738C76.3967 93.3162 74.3822 94.0874 72.6776 94.0874C72.3677 94.0874 72.2127 94.0874 72.0577 94.0874C71.5928 94.8586 71.4379 95.7841 71.4379 96.7095C71.5928 98.2519 72.3677 99.0231 73.9173 99.0231C75.4669 99.0231 77.4815 97.9435 79.9609 95.9383C81.8204 94.3959 83.3701 92.6992 84.6098 91.0026C84.7648 90.8483 84.9197 90.6941 84.9197 90.5399C85.2297 90.2314 85.3846 89.9229 85.6945 89.4602C88.3289 86.2211 90.4984 84.6787 92.203 84.6787C94.6824 84.6787 95.3023 87.3008 94.5275 90.5399C94.5275 90.6941 97.1619 91.3111 100.416 88.2262L100.571 88.072C101.191 87.1465 102.121 86.3753 102.896 85.7584C103.67 85.2956 104.135 86.0669 104.29 86.6838C104.29 86.8381 104.29 86.9923 104.135 87.3008C101.501 91.0026 99.9512 93.9332 99.4863 95.7841C106.46 88.8432 110.799 85.2956 112.503 85.2956C113.743 85.1414 114.363 85.4499 114.363 86.3753C114.363 86.5296 114.363 86.6838 114.363 86.6838C114.208 86.9923 113.743 87.7635 112.503 89.1517C111.109 90.8483 110.024 92.2365 109.404 93.3162C108.319 95.0129 107.854 96.401 107.854 97.4807C107.854 97.7892 108.009 98.0977 108.164 98.4062C108.319 98.5604 108.474 98.5604 108.629 98.5604C109.404 98.5604 110.489 97.9435 112.038 96.7095C113.123 95.9383 113.898 95.0129 114.828 94.2417C115.448 92.6992 116.532 91.0026 118.237 89.1517C120.871 86.3753 123.351 84.9872 125.675 84.9872C126.45 84.9872 127.07 85.1414 127.535 85.6041C128 86.0669 128.31 86.5296 128.31 86.9923C128.465 88.689 127.07 90.3856 124.281 92.0823C121.801 93.6247 119.787 94.2417 118.082 94.2417C117.772 94.2417 117.617 94.2417 117.462 94.2417C116.997 95.0129 116.842 95.9383 116.842 96.8638C116.997 98.4062 117.772 99.3316 119.322 99.1774C121.646 99.0232 124.435 97.7892 126.14 96.2468C126.45 95.9383 126.605 95.6298 126.915 95.6298C127.07 95.6298 127.225 95.7841 127.225 95.9383C127.225 96.0926 127.07 96.401 126.76 96.7095C125.985 97.635 123.196 99.6401 120.251 99.9486C117.927 100.257 114.673 99.9486 114.518 96.7095C114.518 96.401 114.518 96.2468 114.518 95.9383C113.898 96.5553 113.278 97.3265 112.658 97.9435C111.109 99.3316 109.869 99.9486 109.094 99.9486C107.234 99.9486 106.15 98.8689 105.995 96.8638C105.995 95.6298 106.46 94.0874 107.699 91.928C108.629 90.3856 109.559 88.8432 110.489 87.3008C108.319 88.8432 106.305 90.6941 104.29 93.0077C103.205 94.2417 101.811 95.7841 100.261 97.9435C99.1764 99.3316 98.5565 100.103 98.2466 100.103C97.7817 100.103 97.3168 99.9486 97.0069 99.4859C96.697 99.1774 96.542 98.8689 96.542 98.5604C96.542 97.7892 97.4718 93.6247 99.4863 90.0771C98.2466 91.0026 96.2321 91.928 94.2175 92.0823C93.7527 93.0077 93.4427 93.7789 91.8931 95.9383C89.5686 98.7147 87.3991 100.257 85.6945 100.257H84.9197C84.1449 100.257 83.3701 99.7944 82.9052 99.0231C82.4403 98.4062 82.2853 97.7892 82.2853 97.1723C82.2853 96.5553 82.4403 95.7841 82.7502 95.0129C81.8205 95.9383 80.8907 96.7095 79.8059 97.635C77.4815 99.3316 75.4669 100.257 73.7623 100.257C73.4524 100.257 73.1425 100.257 72.8326 100.103C70.818 99.4859 69.7333 98.4062 69.5783 96.7095C69.5783 96.2468 69.5783 95.9383 69.5783 95.4756C68.8035 96.5553 67.8737 97.4807 66.789 98.4062C65.8592 99.1774 64.6195 100.103 63.2248 100.103C62.1401 100.103 61.3652 99.7944 60.5904 99.0231C59.5057 97.7892 59.3507 96.401 59.6606 94.7044C57.6461 97.3265 55.0117 99.9486 52.3774 99.9486C50.2079 99.9486 49.2781 98.5604 49.1231 96.401C49.1231 95.1671 49.433 93.6247 50.0529 91.928C50.6728 90.5399 51.2926 89.4602 51.9125 88.5347C51.7575 88.5347 51.4476 88.5347 51.2926 88.5347C50.5178 88.5347 49.743 88.5347 49.2781 87.455C48.5033 88.689 47.2636 90.0771 44.7841 90.6941C44.4742 91.7738 44.1643 92.8535 42.1498 95.6298C39.8253 98.5604 37.6558 99.9486 35.9512 99.9486H35.1764C34.4016 99.9486 33.6267 99.4859 33.1619 98.7147C32.697 98.0977 32.542 97.4807 32.542 96.8638C32.542 96.0926 32.697 95.3214 33.0069 94.3959C27.7381 98.5604 20.2999 102.108 14.2563 102.725C13.4815 102.725 12.8616 102.879 12.2418 102.879C8.05774 102.879 4.95847 101.645 2.78898 99.3316C0.774448 97.018 -0.00037083 94.0874 0.619484 90.5399C2.01416 82.6735 10.0723 75.8869 17.2006 72.9563C20.6098 71.5681 24.019 70.9512 27.2732 70.9512C28.9778 70.9512 30.5275 71.1054 31.7672 71.5681C35.3313 72.6478 37.1909 74.653 37.3459 77.5836C37.1909 79.5887 36.5711 81.1311 35.4863 82.5193ZM126.76 87.7635C126.915 87.1465 126.605 86.8381 125.83 86.8381C124.9 86.8381 123.506 87.455 121.956 88.8432C120.716 89.9229 119.632 91.0026 118.857 91.928C118.547 92.3908 118.082 93.0077 117.772 93.4704C117.927 93.4704 118.082 93.6247 118.392 93.6247C119.632 93.6247 121.181 93.0077 123.041 91.928C125.055 90.6941 126.295 89.3059 126.76 87.7635Z" fill="white"/>
</g>
<defs>
<clipPath id="clip0">
<rect width="128" height="120" fill="white"/>
</clipPath>
</defs>
</svg>
