<svg width="22" height="22" viewBox="0 0 22 22" fill="none" xmlns="http://www.w3.org/2000/svg">
<path d="M11 0.439941C7.11047 0.439941 3.96 3.59041 3.96 7.47994C3.96 10.6957 5.65812 14.1521 7.32875 16.8299C8.99937 19.5078 10.67 21.4087 10.67 21.4087C10.7542 21.5032 10.8745 21.5582 11 21.5582C11.1255 21.5582 11.2458 21.5032 11.33 21.4087C11.33 21.4087 13.0023 19.4682 14.6712 16.7749C16.3402 14.0817 18.04 10.6338 18.04 7.47994C18.04 3.59041 14.8895 0.439941 11 0.439941ZM11 1.31994C14.4152 1.31994 17.16 4.06478 17.16 7.47994C17.16 10.3107 15.5598 13.676 13.9287 16.3074C12.5623 18.5126 11.4056 19.9323 11 20.4187C10.5909 19.9357 9.43422 18.547 8.07125 16.3624C6.44187 13.7499 4.84 10.3795 4.84 7.47994C4.84 4.06478 7.58484 1.31994 11 1.31994ZM11 4.83994C9.30359 4.83994 7.92 6.22353 7.92 7.91994C7.92 9.61635 9.30359 10.9999 11 10.9999C12.6964 10.9999 14.08 9.61635 14.08 7.91994C14.08 6.22353 12.6964 4.83994 11 4.83994ZM11 5.71994C12.2203 5.71994 13.2 6.69963 13.2 7.91994C13.2 9.14025 12.2203 10.1199 11 10.1199C9.77969 10.1199 8.8 9.14025 8.8 7.91994C8.8 6.69963 9.77969 5.71994 11 5.71994Z" fill="white"/>
</svg>
