<svg width="18" height="22" viewBox="0 0 18 22" fill="none" xmlns="http://www.w3.org/2000/svg">
<path d="M0.639648 0V22H17.3596V6.41781L10.9418 0H0.639648ZM1.51965 0.88H10.3196V7.04H16.4796V21.12H1.51965V0.88ZM11.1996 1.50219L15.8575 6.16H11.1996V1.50219ZM5.61887 10.7766C5.26652 10.7766 4.93824 10.8144 4.68387 10.8745V15.84H5.47621V13.872C5.55184 13.8806 5.61887 13.8806 5.70137 13.8806C6.12762 13.8806 6.61402 13.7087 6.91309 13.3564C7.14512 13.0866 7.28777 12.7428 7.28777 12.2358C7.28777 11.8009 7.15199 11.4125 6.88215 11.1581C6.58309 10.8745 6.14996 10.7766 5.61887 10.7766ZM8.80543 10.7766C8.46168 10.7766 8.14027 10.8144 7.90824 10.8745V15.8245C8.08871 15.8538 8.36543 15.8761 8.64215 15.8761C9.29184 15.8761 9.78684 15.7128 10.122 15.3673C10.5036 14.9944 10.7734 14.3138 10.7734 13.2292C10.7734 12.2186 10.519 11.562 10.1065 11.1942C9.80746 10.9175 9.38809 10.7766 8.80543 10.7766ZM11.4231 10.7989V15.84H12.224V13.6641H13.4134V12.9989H12.224V11.495H13.4959V10.7989H11.4231ZM8.93262 11.4194C9.62871 11.4194 9.9484 12.0777 9.9484 13.2223C9.9484 14.7555 9.44824 15.2195 8.8948 15.2195C8.84324 15.2195 8.76762 15.2195 8.70059 15.2041V11.4417C8.76762 11.428 8.85012 11.4194 8.93262 11.4194ZM5.75293 11.4262C6.2909 11.4262 6.48512 11.8233 6.48512 12.2942C6.48512 12.87 6.19465 13.2292 5.67215 13.2292C5.58965 13.2292 5.53637 13.2292 5.47621 13.2137V11.4641C5.54324 11.4417 5.64121 11.4262 5.75293 11.4262Z" fill="white"/>
</svg>
