<svg width="22" height="22" viewBox="0 0 22 22" fill="none" xmlns="http://www.w3.org/2000/svg">
<path d="M5.20953 1.31504C4.87094 1.28754 4.49453 1.38551 4.14734 1.62957C3.84141 1.8427 3.18141 2.36692 2.56438 2.95988C2.25672 3.25551 1.96281 3.56317 1.73594 3.86567C1.50734 4.16817 1.30797 4.44488 1.32 4.84707C1.33203 5.20801 1.36813 6.27535 2.13641 7.9116C2.90469 9.54613 4.39484 11.7891 7.30125 14.6972C10.2094 17.6054 12.4523 19.0955 14.0869 19.8638C15.7214 20.6321 16.7905 20.6682 17.1514 20.6802C17.5519 20.6922 17.8286 20.4929 18.1311 20.2643C18.4336 20.0357 18.7413 19.7435 19.0369 19.4358C19.6281 18.8188 20.1523 18.1588 20.3655 17.8529C20.8519 17.1602 20.7711 16.3421 20.2297 15.9622C19.8894 15.7233 16.7595 13.6402 16.2886 13.3514C15.8108 13.0593 15.2608 13.1916 14.7692 13.4511C14.3825 13.6557 13.3358 14.2555 13.0367 14.4274C12.8116 14.2847 11.9573 13.7158 10.12 11.8785C8.28094 10.0411 7.71375 9.18691 7.57109 8.96176C7.74297 8.6627 8.34109 7.62113 8.54734 7.22754C8.80516 6.7377 8.94953 6.18254 8.64188 5.70129C8.51297 5.49676 7.92688 4.60473 7.33563 3.70926C6.74266 2.81379 6.18063 1.96473 6.03453 1.76192V1.7602C5.84375 1.49723 5.54641 1.34254 5.20953 1.31504ZM5.12875 2.21395C5.24906 2.22942 5.32125 2.27754 5.32125 2.27754C5.39172 2.37551 6.00875 3.3002 6.6 4.19395C7.19125 5.08942 7.79453 6.00723 7.89938 6.17395C7.91656 6.19973 7.94063 6.49192 7.76875 6.81676V6.81848C7.57453 7.18801 6.66875 8.77098 6.66875 8.77098L6.54328 8.9927L6.67219 9.2127C6.67219 9.2127 7.34766 10.3522 9.49609 12.5007C11.6463 14.6491 12.7858 15.3263 12.7858 15.3263L13.0058 15.4552L13.2275 15.3297C13.2275 15.3297 14.807 14.4257 15.18 14.2297C15.5048 14.0596 15.797 14.0819 15.8314 14.1025C16.1356 14.2899 19.5164 16.5363 19.7244 16.6824C19.7313 16.6875 19.9152 16.966 19.647 17.3475H19.6453C19.4838 17.5796 18.9544 18.2516 18.4027 18.8257C18.1259 19.1127 17.8423 19.3808 17.6017 19.5613C17.3611 19.7418 17.1463 19.7985 17.1806 19.8002C16.8059 19.7882 15.9792 19.7796 14.4616 19.0663C12.9439 18.3547 10.7783 16.9299 7.92344 14.0733C5.07031 11.2202 3.64547 9.05457 2.93219 7.5352C2.22063 6.01754 2.21203 5.19082 2.2 4.81785C2.20172 4.85223 2.25844 4.63567 2.43891 4.39504C2.61938 4.15442 2.88578 3.8691 3.17281 3.59238C3.74859 3.04067 4.41891 2.51129 4.65094 2.34973V2.35145C4.84172 2.21738 5.00844 2.2002 5.12875 2.21395Z" fill="white"/>
</svg>
