<svg width="26" height="26" viewBox="0 0 26 26" fill="none" xmlns="http://www.w3.org/2000/svg">
<path d="M20.2962 24.44C20.2881 24.44 20.2799 24.44 20.2718 24.44C16.3637 24.3121 11.7852 20.5238 8.63072 17.3672C5.47212 14.2107 1.68384 9.63019 1.56197 5.74034C1.51728 4.37534 4.86681 1.948 4.90134 1.92362C5.77072 1.31831 6.73556 1.53362 7.13165 2.08206C7.39978 2.45378 9.93884 6.30097 10.2151 6.73769C10.5015 7.19066 10.4588 7.86503 10.1013 8.54144C9.90431 8.91722 9.25025 10.0669 8.94353 10.6032C9.27462 11.0744 10.1501 12.2302 11.9579 14.038C13.7677 15.8458 14.9215 16.7233 15.3948 17.0544C15.931 16.7477 17.0807 16.0936 17.4565 15.8966C18.1227 15.5432 18.7931 15.4985 19.2501 15.7788C19.7173 16.0652 23.5543 18.6164 23.9077 18.8622C24.2043 19.0714 24.3952 19.4289 24.4338 19.8453C24.4704 20.2658 24.3404 20.7107 24.0702 21.0986C24.0479 21.1311 21.649 24.44 20.2962 24.44Z" fill="white"/>
</svg>
