<svg width="1452" height="16" viewBox="0 0 1452 16" fill="none" xmlns="http://www.w3.org/2000/svg">
<path d="M0.292893 7.29289C-0.0976311 7.68342 -0.0976311 8.31658 0.292893 8.70711L6.65685 15.0711C7.04738 15.4616 7.68054 15.4616 8.07107 15.0711C8.46159 14.6805 8.46159 14.0474 8.07107 13.6569L2.41421 8L8.07107 2.34315C8.46159 1.95262 8.46159 1.31946 8.07107 0.928932C7.68054 0.538408 7.04738 0.538408 6.65685 0.928932L0.292893 7.29289ZM1 9H88V7H1V9Z" fill="white"/>
<path d="M1451.71 7.29289C1452.1 7.68342 1452.1 8.31658 1451.71 8.70711L1445.34 15.0711C1444.95 15.4616 1444.32 15.4616 1443.93 15.0711C1443.54 14.6805 1443.54 14.0474 1443.93 13.6569L1449.59 8L1443.93 2.34315C1443.54 1.95262 1443.54 1.31946 1443.93 0.928932C1444.32 0.538408 1444.95 0.538408 1445.34 0.928932L1451.71 7.29289ZM1451 9H1364V7H1451V9Z" fill="white"/>
</svg>
