<svg width="142" height="28" viewBox="0 0 142 28" fill="none" xmlns="http://www.w3.org/2000/svg">
<path d="M41.5788 21.7778V5.5H36V3.55556H49.5243V5.5H43.9455V21.7778H41.5788Z" fill="white"/>
<path d="M56.307 22.1111C55.3866 22.1111 54.5225 21.9537 53.7148 21.6389C52.9259 21.3056 52.2309 20.8426 51.6298 20.25C51.0475 19.6389 50.5873 18.8981 50.2492 18.0278C49.9111 17.1574 49.742 16.1667 49.742 15.0556C49.742 13.9444 49.9111 12.9537 50.2492 12.0833C50.6061 11.1944 51.0663 10.4444 51.6298 9.83333C52.2121 9.22222 52.8695 8.75926 53.6021 8.44444C54.3347 8.11111 55.0954 7.94444 55.8843 7.94444C56.7484 7.94444 57.5185 8.09259 58.1947 8.38889C58.8897 8.68519 59.4626 9.11111 59.9134 9.66667C60.383 10.2222 60.7399 10.8889 60.9841 11.6667C61.2283 12.4444 61.3504 13.3148 61.3504 14.2778C61.3504 14.5185 61.341 14.7593 61.3222 15C61.3222 15.2222 61.3035 15.4167 61.2659 15.5833H52.0243C52.1182 17.0278 52.569 18.1759 53.3767 19.0278C54.2032 19.8611 55.2739 20.2778 56.5887 20.2778C57.2462 20.2778 57.8472 20.1852 58.392 20C58.9555 19.7963 59.4908 19.537 59.998 19.2222L60.8151 20.7222C60.214 21.0926 59.5472 21.4167 58.8146 21.6944C58.082 21.9722 57.2462 22.1111 56.307 22.1111ZM51.9961 13.9444H59.3218C59.3218 12.5741 59.0212 11.537 58.4201 10.8333C57.8378 10.1111 57.0114 9.75 55.9407 9.75C55.4523 9.75 54.9827 9.84259 54.5319 10.0278C54.0999 10.213 53.7054 10.4907 53.3485 10.8611C52.9916 11.213 52.6911 11.6481 52.4469 12.1667C52.2215 12.6852 52.0712 13.2778 51.9961 13.9444Z" fill="white"/>
<path d="M67.1854 22.1111C66.3026 22.1111 65.6733 21.8519 65.2976 21.3333C64.922 20.8148 64.7341 20.0556 64.7341 19.0556V2H67.0445V19.2222C67.0445 19.5926 67.1103 19.8519 67.2418 20C67.3733 20.1481 67.5235 20.2222 67.6926 20.2222C67.7677 20.2222 67.8335 20.2222 67.8898 20.2222C67.9649 20.2222 68.0683 20.2037 68.1997 20.1667L68.5097 21.8889C68.3594 21.963 68.181 22.0185 67.9743 22.0556C67.7677 22.0926 67.5047 22.1111 67.1854 22.1111Z" fill="white"/>
<path d="M77.4662 22.1111C76.5458 22.1111 75.6818 21.9537 74.8741 21.6389C74.0852 21.3056 73.3902 20.8426 72.7891 20.25C72.2068 19.6389 71.7466 18.8981 71.4085 18.0278C71.0704 17.1574 70.9013 16.1667 70.9013 15.0556C70.9013 13.9444 71.0704 12.9537 71.4085 12.0833C71.7654 11.1944 72.2256 10.4444 72.7891 9.83333C73.3714 9.22222 74.0288 8.75926 74.7614 8.44444C75.4939 8.11111 76.2547 7.94444 77.0436 7.94444C77.9077 7.94444 78.6778 8.09259 79.354 8.38889C80.049 8.68519 80.6219 9.11111 81.0727 9.66667C81.5423 10.2222 81.8992 10.8889 82.1434 11.6667C82.3876 12.4444 82.5097 13.3148 82.5097 14.2778C82.5097 14.5185 82.5003 14.7593 82.4815 15C82.4815 15.2222 82.4627 15.4167 82.4252 15.5833H73.1835C73.2775 17.0278 73.7283 18.1759 74.536 19.0278C75.3625 19.8611 76.4331 20.2778 77.748 20.2778C78.4054 20.2778 79.0065 20.1852 79.5512 20C80.1148 19.7963 80.6501 19.537 81.1573 19.2222L81.9743 20.7222C81.3733 21.0926 80.7064 21.4167 79.9739 21.6944C79.2413 21.9722 78.4054 22.1111 77.4662 22.1111ZM73.1554 13.9444H80.481C80.481 12.5741 80.1805 11.537 79.5794 10.8333C78.9971 10.1111 78.1706 9.75 77.1 9.75C76.6116 9.75 76.142 9.84259 75.6912 10.0278C75.2591 10.213 74.8647 10.4907 74.5078 10.8611C74.1509 11.213 73.8504 11.6481 73.6062 12.1667C73.3808 12.6852 73.2305 13.2778 73.1554 13.9444Z" fill="white"/>
<path d="M90.2391 28C89.3938 28 88.6237 27.9167 87.9287 27.75C87.2337 27.6019 86.6326 27.3704 86.1254 27.0556C85.637 26.7407 85.252 26.3611 84.9702 25.9167C84.7072 25.4722 84.5758 24.9537 84.5758 24.3611C84.5758 23.787 84.7542 23.2407 85.1111 22.7222C85.468 22.2037 85.9564 21.7315 86.5762 21.3056V21.1944C86.2381 20.9907 85.947 20.713 85.7028 20.3611C85.4774 19.9907 85.3647 19.537 85.3647 19C85.3647 18.4259 85.5243 17.9259 85.8437 17.5C86.163 17.0741 86.5011 16.7407 86.858 16.5V16.3889C86.4072 16.0185 85.9939 15.5278 85.6183 14.9167C85.2614 14.287 85.0829 13.5648 85.0829 12.75C85.0829 12.0093 85.2144 11.3426 85.4774 10.75C85.7591 10.1574 86.1348 9.65741 86.6044 9.25C87.074 8.82407 87.6187 8.5 88.2386 8.27778C88.8772 8.05556 89.5441 7.94444 90.2391 7.94444C90.6147 7.94444 90.9622 7.98148 91.2816 8.05556C91.6197 8.11111 91.9202 8.18519 92.1832 8.27778H96.9449V10.0278H94.1273C94.4466 10.3426 94.7096 10.7407 94.9162 11.2222C95.1416 11.7037 95.2543 12.2315 95.2543 12.8056C95.2543 13.5278 95.1228 14.1852 94.8599 14.7778C94.5969 15.3519 94.24 15.8426 93.7892 16.25C93.3384 16.6389 92.8031 16.9444 92.1832 17.1667C91.5821 17.3889 90.9341 17.5 90.2391 17.5C89.901 17.5 89.5535 17.463 89.1966 17.3889C88.8397 17.2963 88.5016 17.1759 88.1822 17.0278C87.9381 17.2315 87.7314 17.463 87.5624 17.7222C87.3933 17.963 87.3088 18.2685 87.3088 18.6389C87.3088 19.0648 87.4778 19.4167 87.816 19.6944C88.1541 19.9722 88.7927 20.1111 89.7319 20.1111H92.3804C93.977 20.1111 95.1698 20.3704 95.9587 20.8889C96.7664 21.3889 97.1703 22.2037 97.1703 23.3333C97.1703 23.963 97.0106 24.5556 96.6913 25.1111C96.372 25.6852 95.9118 26.1852 95.3107 26.6111C94.7096 27.037 93.977 27.3704 93.113 27.6111C92.2677 27.8704 91.3097 28 90.2391 28ZM90.2391 15.9722C90.6335 15.9722 90.9998 15.8981 91.3379 15.75C91.6948 15.6019 92.0047 15.3889 92.2677 15.1111C92.5495 14.8333 92.7655 14.5 92.9158 14.1111C93.066 13.7037 93.1412 13.25 93.1412 12.75C93.1412 11.75 92.8594 10.9815 92.2959 10.4444C91.7324 9.88889 91.0468 9.61111 90.2391 9.61111C89.4314 9.61111 88.7458 9.88889 88.1822 10.4444C87.6187 10.9815 87.337 11.75 87.337 12.75C87.337 13.25 87.4121 13.7037 87.5624 14.1111C87.7126 14.5 87.9193 14.8333 88.1822 15.1111C88.464 15.3889 88.7739 15.6019 89.112 15.75C89.4689 15.8981 89.8446 15.9722 90.2391 15.9722ZM90.5772 26.4167C91.2346 26.4167 91.8263 26.3333 92.3522 26.1667C92.897 26.0185 93.3572 25.8148 93.7328 25.5556C94.1085 25.3148 94.3997 25.0278 94.6063 24.6944C94.8129 24.3611 94.9162 24.0185 94.9162 23.6667C94.9162 23.037 94.6814 22.6019 94.2118 22.3611C93.7422 22.1204 93.0566 22 92.155 22H89.7883C89.5253 22 89.2341 21.9815 88.9148 21.9444C88.6143 21.9259 88.3137 21.8704 88.0132 21.7778C87.5248 22.1296 87.1679 22.5 86.9425 22.8889C86.7171 23.2778 86.6044 23.6667 86.6044 24.0556C86.6044 24.7778 86.9519 25.3519 87.6469 25.7778C88.3607 26.2037 89.3374 26.4167 90.5772 26.4167Z" fill="white"/>
<path d="M99.8162 21.7778V8.27778H101.732L101.929 10.7222H102.014C102.483 9.87037 103.047 9.19444 103.704 8.69444C104.381 8.19444 105.113 7.94444 105.902 7.94444C106.447 7.94444 106.935 8.03704 107.367 8.22222L106.916 10.2222C106.691 10.1481 106.484 10.0926 106.297 10.0556C106.109 10.0185 105.874 10 105.592 10C105.01 10 104.399 10.2315 103.761 10.6944C103.141 11.1574 102.596 11.963 102.127 13.1111V21.7778H99.8162Z" fill="white"/>
<path d="M112.052 22.1111C110.906 22.1111 109.948 21.7778 109.178 21.1111C108.427 20.4444 108.051 19.5 108.051 18.2778C108.051 16.7963 108.718 15.6667 110.051 14.8889C111.385 14.0926 113.517 13.537 116.447 13.2222C116.447 12.7963 116.4 12.3796 116.306 11.9722C116.231 11.5648 116.09 11.2037 115.884 10.8889C115.677 10.5741 115.386 10.3241 115.01 10.1389C114.653 9.93519 114.193 9.83333 113.63 9.83333C112.841 9.83333 112.099 9.98148 111.404 10.2778C110.709 10.5741 110.089 10.9074 109.544 11.2778L108.643 9.69444C109.281 9.28704 110.061 8.89815 110.981 8.52778C111.902 8.13889 112.916 7.94444 114.024 7.94444C115.696 7.94444 116.907 8.4537 117.659 9.47222C118.41 10.4722 118.786 11.8148 118.786 13.5V21.7778H116.87L116.673 20.1667H116.588C115.931 20.7037 115.226 21.1667 114.475 21.5556C113.724 21.9259 112.916 22.1111 112.052 22.1111ZM112.728 20.2778C113.386 20.2778 114.005 20.1296 114.588 19.8333C115.17 19.5185 115.79 19.0648 116.447 18.4722V14.7222C115.301 14.8704 114.334 15.0463 113.545 15.25C112.775 15.4537 112.146 15.6944 111.657 15.9722C111.188 16.25 110.84 16.5741 110.615 16.9444C110.408 17.2963 110.305 17.6852 110.305 18.1111C110.305 18.8889 110.54 19.4444 111.009 19.7778C111.479 20.1111 112.052 20.2778 112.728 20.2778Z" fill="white"/>
<path d="M123.094 21.7778V8.27778H125.01L125.207 10.2222H125.292C125.893 9.57407 126.541 9.03704 127.236 8.61111C127.95 8.16667 128.72 7.94444 129.546 7.94444C130.598 7.94444 131.415 8.17593 131.998 8.63889C132.599 9.08333 133.04 9.71296 133.322 10.5278C134.036 9.75 134.749 9.12963 135.463 8.66667C136.196 8.18518 136.985 7.94444 137.83 7.94444C139.239 7.94444 140.281 8.38889 140.957 9.27778C141.652 10.1667 142 11.4815 142 13.2222V21.7778H139.69V13.5278C139.69 12.25 139.483 11.3333 139.07 10.7778C138.656 10.2037 138.018 9.91667 137.154 9.91667C136.121 9.91667 134.975 10.6111 133.716 12V21.7778H131.406V13.5278C131.406 12.25 131.199 11.3333 130.786 10.7778C130.373 10.2037 129.725 9.91667 128.842 9.91667C127.809 9.91667 126.663 10.6111 125.405 12V21.7778H123.094Z" fill="white"/>
<path d="M13.5 27C20.9558 27 27 20.9558 27 13.5C27 6.04416 20.9558 0 13.5 0C6.04416 0 0 6.04416 0 13.5C0 20.9558 6.04416 27 13.5 27Z" fill="url(#paint0_linear_44:4948)"/>
<path d="M11.0251 19.6875C10.5877 19.6875 10.6621 19.5223 10.5112 19.1059L9.2251 14.8733L19.1251 9" fill="#C8DAEA"/>
<path d="M11.0249 19.6876C11.3624 19.6876 11.5115 19.5332 11.6999 19.3501L13.4999 17.5998L11.2546 16.2458" fill="#A9C9DD"/>
<path d="M11.2546 16.2461L16.6951 20.2656C17.316 20.6082 17.7639 20.4308 17.9186 19.6893L20.1332 9.25345C20.3599 8.34445 19.7867 7.93203 19.1927 8.20169L6.18881 13.2159C5.30118 13.572 5.30647 14.0672 6.02703 14.2878L9.36412 15.3295L17.0898 10.4554C17.4546 10.2342 17.7894 10.353 17.5146 10.5969" fill="url(#paint1_linear_44:4948)"/>
<defs>
<linearGradient id="paint0_linear_44:4948" x1="18.009" y1="4.509" x2="11.259" y2="20.25" gradientUnits="userSpaceOnUse">
<stop stop-color="#37AEE2"/>
<stop offset="1" stop-color="#1E96C8"/>
</linearGradient>
<linearGradient id="paint1_linear_44:4948" x1="15.1925" y1="13.5011" x2="17.2994" y2="18.3013" gradientUnits="userSpaceOnUse">
<stop stop-color="#EFF7FC"/>
<stop offset="1" stop-color="white"/>
</linearGradient>
</defs>
</svg>
