<svg width="117" height="37" viewBox="0 0 117 37" fill="none" xmlns="http://www.w3.org/2000/svg">
<path d="M49.8272 25.9741L42.8538 8.61161C42.7589 8.37442 42.664 8.13723 42.6166 7.90004C42.5691 7.66285 42.5217 7.37821 42.5217 7.14102C42.5217 6.382 42.7589 5.81275 43.2807 5.29092C43.8026 4.81654 44.4192 4.57935 45.2257 4.57935C45.795 4.57935 46.2694 4.76909 46.6014 5.10116C46.9809 5.43323 47.313 6.00249 47.5976 6.80894L52.3415 19.5699L56.8956 6.9987C57.1802 6.09736 57.5597 5.48066 57.9392 5.10116C58.3187 4.76909 58.8405 4.57935 59.4572 4.57935C60.2637 4.57935 60.8804 4.76909 61.3073 5.19604C61.7343 5.62299 61.9715 6.19225 61.9715 6.95127C61.9715 7.2359 61.9241 7.52053 61.8766 7.8526C61.8292 8.13723 61.7343 8.46929 61.6394 8.75392L54.9032 25.7843C54.6185 26.5433 54.239 27.1126 53.8595 27.4447C53.4326 27.7767 52.9107 27.9665 52.294 27.9665C51.6773 27.9665 51.203 27.8242 50.8235 27.4921C50.4914 27.16 50.1593 26.6857 49.8272 25.9741V25.9741Z" fill="white"/>
<path d="M68.1857 24.4561C68.1857 25.6421 67.9959 26.496 67.6164 27.0652C67.2369 27.6345 66.6202 27.9191 65.8612 27.9191C65.0547 27.9191 64.438 27.6345 64.0585 27.0652C63.679 26.496 63.4893 25.6421 63.4893 24.4561V14.8735C63.4893 13.6876 63.679 12.8337 64.0585 12.2644C64.438 11.6951 65.0547 11.4105 65.8612 11.4105C66.6676 11.4105 67.2369 11.6951 67.6164 12.2644C67.9959 12.8337 68.1857 13.6876 68.1857 14.8735V24.4561Z" fill="white"/>
<path d="M75.3962 11.5528C75.9655 11.0784 76.5822 10.6989 77.2463 10.4617C77.9105 10.2245 78.622 10.0822 79.381 10.0822C81.5632 10.0822 83.4133 10.9361 84.9314 12.6913C86.4494 14.3991 87.161 16.5813 87.161 19.1904C87.161 21.6572 86.4019 23.7445 84.8365 25.4523C83.3184 27.1601 81.4683 28.0614 79.381 28.0614C78.5272 28.0614 77.7682 27.9191 77.0566 27.6344C76.345 27.3498 75.7757 26.9229 75.2539 26.3536C74.9219 26.8754 74.5898 27.3024 74.1628 27.587C73.7833 27.8716 73.3089 28.0139 72.8345 28.0139C71.9807 28.0139 71.364 27.7293 70.937 27.1126C70.5101 26.4959 70.3203 25.5946 70.3203 24.3137V8.27954C70.3203 7.04614 70.5101 6.09737 70.937 5.48067C71.364 4.86397 71.9807 4.57935 72.8345 4.57935C73.6884 4.57935 74.3526 4.86397 74.7321 5.48067C75.159 6.09737 75.3488 6.9987 75.3488 8.27954V11.5528H75.3962ZM75.0167 19.0955C75.0167 20.4712 75.3488 21.6097 76.0129 22.4162C76.6771 23.2701 77.5784 23.697 78.622 23.697C79.6657 23.697 80.567 23.2701 81.2312 22.4162C81.8953 21.5623 82.2748 20.4712 82.2748 19.0955C82.2748 17.7198 81.9427 16.5813 81.2786 15.7274C80.6144 14.8735 79.7131 14.4465 78.6695 14.4465C77.5784 14.4465 76.7245 14.8735 76.0604 15.7274C75.3488 16.5813 75.0167 17.7198 75.0167 19.0955Z" fill="white"/>
<path d="M92.854 20.5187C92.9489 21.4675 93.6605 22.2265 94.3246 22.7484C94.9887 23.2702 95.8901 23.5548 96.9812 23.5548C97.9299 23.5548 98.9736 23.2702 100.16 22.7484C101.346 22.1791 102.057 21.9419 102.294 21.9419C102.911 21.9419 103.385 22.1317 103.765 22.5112C104.144 22.8907 104.334 23.3651 104.334 23.9343C104.334 25.0254 103.575 25.9742 102.057 26.8755C100.539 27.7294 98.7364 28.2038 96.6965 28.2038C94.1823 28.2038 92.095 27.3499 90.4347 25.6421C88.7743 23.9343 87.9204 21.7996 87.9204 19.2379C87.9204 16.6762 88.7269 14.4941 90.3398 12.7863C91.9527 11.0785 93.9925 10.2246 96.4119 10.2246C98.7364 10.2246 100.729 11.0311 102.294 12.644C103.86 14.2569 104.666 16.2493 104.666 18.5738C104.666 19.3328 104.476 19.8546 104.144 20.1867C103.812 20.4713 103.148 20.6611 102.152 20.6611H92.854V20.5187ZM92.6643 17.5301H100.112C100.065 16.5814 99.6852 15.6326 98.9736 14.9685C98.262 14.3518 97.4556 14.0197 96.5068 14.0197C95.558 14.0197 94.6567 14.3043 93.9926 14.921C93.281 15.5377 92.854 16.5339 92.6643 17.5301V17.5301Z" fill="white"/>
<path d="M106.089 24.219V14.0197C106.089 12.7863 106.279 11.8376 106.706 11.2683C107.133 10.6516 107.75 10.367 108.604 10.367C109.125 10.367 109.552 10.5093 109.979 10.7465C110.359 11.0311 110.738 11.4106 111.023 11.9799C111.545 11.4106 112.114 10.9837 112.683 10.699C113.253 10.4144 113.869 10.2721 114.439 10.2721C115.15 10.2721 115.719 10.5093 116.241 11.0311C116.763 11.5055 117 12.1222 117 12.7863C117 13.7825 116.051 14.6364 114.201 15.348C113.537 15.5852 113.015 15.775 112.683 15.9647C112.067 16.2493 111.64 16.5814 111.402 16.9609C111.213 17.3404 111.07 18.0046 111.07 18.9533V24.219C111.07 25.4524 110.881 26.4012 110.454 27.0179C110.027 27.6346 109.41 27.9192 108.556 27.9192C107.702 27.9192 107.086 27.6346 106.659 27.0179C106.327 26.4012 106.089 25.4524 106.089 24.219V24.219Z" fill="white"/>
<path d="M63.2998 7.18856C63.2998 6.47696 63.5845 5.86022 64.1063 5.33838C64.6281 4.81654 65.2449 4.57935 66.0039 4.57935C66.7155 4.57935 67.3322 4.81654 67.8541 5.33838C68.3759 5.86022 68.6131 6.47696 68.6131 7.18856C68.6131 7.90017 68.3759 8.56433 67.8541 9.03873C67.3322 9.56057 66.7155 9.79778 66.0039 9.79778C65.2449 9.79778 64.6281 9.56057 64.1063 9.03873C63.537 8.56433 63.2998 7.94761 63.2998 7.18856Z" fill="white"/>
<path d="M30.4295 3.53567C29.5282 2.72922 25.9229 0.0726696 17.8109 0.0252311C17.8109 0.0252311 8.27577 -0.544036 3.6268 3.72543C1.01769 6.33454 0.116353 10.0822 0.0214763 14.7786C-0.0734006 19.475 -0.215704 28.2511 8.27578 30.6705V34.3232C8.27578 34.3232 8.22834 35.7938 9.17711 36.0785C10.3631 36.458 11.0272 35.3194 12.1657 34.1335C12.7824 33.4693 13.6363 32.5206 14.253 31.7616C20.0405 32.2359 24.4997 31.1449 25.0216 30.9551C26.2075 30.5756 32.8015 29.7217 33.8926 20.9456C35.0311 11.8374 33.4182 6.09735 30.4295 3.53567V3.53567ZM31.4257 20.234C30.5244 27.587 25.1639 28.0614 24.1677 28.346C23.7407 28.4883 19.8508 29.4371 14.9172 29.1524C14.9172 29.1524 11.2644 33.5642 10.0784 34.7502C9.88868 34.9399 9.69893 34.9874 9.55661 34.9874C9.36686 34.9399 9.31942 34.7027 9.31942 34.3707C9.31942 33.8963 9.36686 28.2986 9.36686 28.2986C2.20365 26.3061 2.63059 18.8109 2.67803 14.8735C2.77291 10.9361 3.4845 7.75769 5.66667 5.57552C9.60406 2.01764 17.716 2.53946 17.716 2.53946C24.5472 2.5869 27.8204 4.62675 28.5794 5.33833C31.0462 7.5205 32.3271 12.6913 31.4257 20.234V20.234Z" fill="#AA83EA"/>
<path fill-rule="evenodd" clip-rule="evenodd" d="M17.7312 11.7073C17.7506 11.3489 18.0569 11.074 18.4153 11.0934C19.4019 11.1467 20.2429 11.4468 20.847 12.0744C21.4474 12.6983 21.7284 13.5572 21.7809 14.5547C21.7997 14.9132 21.5244 15.2191 21.1659 15.2379C20.8074 15.2568 20.5015 14.9815 20.4827 14.623C20.4403 13.8177 20.2231 13.3009 19.9103 12.9759C19.6012 12.6548 19.1139 12.433 18.3452 12.3915C17.9867 12.3721 17.7118 12.0658 17.7312 11.7073Z" fill="#AA83EA"/>
<path fill-rule="evenodd" clip-rule="evenodd" d="M17.1156 9.22449C17.1438 8.86662 17.4568 8.59941 17.8147 8.62766C19.7445 8.78001 21.3348 9.44947 22.5123 10.734L22.5132 10.735C23.6317 11.9599 24.2054 13.5507 24.1536 15.3666C24.1433 15.7254 23.8441 16.008 23.4853 15.9977C23.1264 15.9875 22.8438 15.6883 22.8541 15.3294C22.8971 13.8247 22.4274 12.5692 21.5536 11.612C20.6438 10.6197 19.3878 10.0559 17.7124 9.92363C17.3545 9.89537 17.0873 9.58236 17.1156 9.22449Z" fill="#AA83EA"/>
<path fill-rule="evenodd" clip-rule="evenodd" d="M16.2122 6.95127C16.2122 6.59228 16.5032 6.30127 16.8622 6.30127C19.5837 6.30127 21.8839 7.21477 23.7197 8.99955C25.5741 10.8025 26.5258 13.2587 26.5258 16.297C26.5258 16.656 26.2348 16.947 25.8758 16.947C25.5168 16.947 25.2258 16.656 25.2258 16.297C25.2258 13.5476 24.3748 11.4496 22.8135 9.93165C21.2336 8.3956 19.2641 7.60127 16.8622 7.60127C16.5032 7.60127 16.2122 7.31025 16.2122 6.95127Z" fill="#AA83EA"/>
<path d="M18.475 20.7085C18.475 20.7085 19.1391 20.7559 19.4712 20.3289L20.1353 19.4751C20.4674 19.0481 21.2264 18.7635 22.0329 19.1904C22.4598 19.4276 23.2188 19.902 23.6932 20.2815C24.215 20.661 25.2587 21.5149 25.2587 21.5149C25.7805 21.9418 25.8754 22.5586 25.5433 23.2227C25.2112 23.8394 24.7369 24.4087 24.1202 24.9305C23.6458 25.3574 23.1714 25.5472 22.697 25.6421H22.5073C22.3175 25.6421 22.0803 25.5946 21.8906 25.5472C21.179 25.3574 19.993 24.8356 17.9532 23.7445C16.6723 23.0329 15.5812 22.2739 14.6799 21.5623C14.2055 21.1828 13.6837 20.7559 13.2093 20.2341L13.0196 20.0443C12.4977 19.5225 12.0708 19.0481 11.6913 18.5737C10.9797 17.6724 10.2207 16.5813 9.50911 15.3005C8.41803 13.308 7.89621 12.1221 7.70645 11.3631C7.65902 11.1733 7.61157 10.9836 7.61157 10.7464V10.5566C7.65901 10.0822 7.8962 9.60785 8.32315 9.13346C8.84497 8.5642 9.41424 8.08982 10.0309 7.71031C10.6951 7.37824 11.3118 7.47312 11.7387 7.99494C11.7387 7.99494 12.5926 9.0386 12.9721 9.56042C13.3042 10.0348 13.7786 10.7938 14.0632 11.2208C14.4902 11.9798 14.2055 12.7862 13.826 13.1183L12.9721 13.7824C12.5452 14.1145 12.5926 14.7786 12.5926 14.7786C12.5926 14.7786 13.7786 19.4751 18.475 20.7085V20.7085Z" fill="#AA83EA"/>
</svg>
