<svg width="29" height="30" viewBox="0 0 29 30" fill="none" xmlns="http://www.w3.org/2000/svg">
<path d="M11.8601 0.97998C5.67006 0.97998 0.640137 6.0099 0.640137 12.2C0.640137 18.3901 5.67006 23.42 11.8601 23.42C14.3094 23.42 16.5729 22.6311 18.4189 21.2956L27.102 29.9581L28.9583 28.1019L20.3783 19.5012C22.0644 17.5367 23.0801 14.9869 23.0801 12.2C23.0801 6.0099 18.0502 0.97998 11.8601 0.97998ZM11.8601 2.29998C17.3361 2.29998 21.7601 6.72404 21.7601 12.2C21.7601 17.6759 17.3361 22.1 11.8601 22.1C6.3842 22.1 1.96014 17.6759 1.96014 12.2C1.96014 6.72404 6.3842 2.29998 11.8601 2.29998ZM11.2001 6.91998V11.54H6.58014V12.86H11.2001V17.48H12.5201V12.86H17.1401V11.54H12.5201V6.91998H11.2001Z" fill="white"/>
</svg>
